<svg xmlns="http://www.w3.org/2000/svg" width="18" height="18" viewBox="0 0 18 18">
  <path d="M14.25 9.00005C14.2464 8.60547 14.0874 8.22823 13.8075 7.95005L10.59 4.72505C10.4495 4.58536 10.2594 4.50696 10.0613 4.50696C9.86311 4.50696 9.67302 4.58536 9.5325 4.72505C9.4622 4.79477 9.40641 4.87773 9.36833 4.96912C9.33026 5.06051 9.31065 5.15854 9.31065 5.25755C9.31065 5.35656 9.33026 5.45459 9.36833 5.54598C9.40641 5.63738 9.4622 5.72033 9.5325 5.79005L12 8.25005H4.5C4.30109 8.25005 4.11032 8.32907 3.96967 8.46972C3.82902 8.61037 3.75 8.80114 3.75 9.00005C3.75 9.19897 3.82902 9.38973 3.96967 9.53038C4.11032 9.67103 4.30109 9.75005 4.5 9.75005H12L9.5325 12.2176C9.39127 12.3578 9.31154 12.5484 9.31083 12.7474C9.31013 12.9464 9.38852 13.1376 9.52875 13.2788C9.66898 13.42 9.85958 13.4998 10.0586 13.5005C10.2576 13.5012 10.4488 13.4228 10.59 13.2826L13.8075 10.0576C14.0892 9.77754 14.2483 9.39724 14.25 9.00005Z" fill="current"/>
</svg>