<svg xmlns="http://www.w3.org/2000/svg" width="293" height="40" viewBox="0 0 293 40" fill="none">
<path d="M31.1923 13.7756H32.1484V25.8556H31.1923V13.7756ZM32.1484 36.1512H279.402L292.683 19.8098L279.402 3.46829H32.1474V8.78341H31.1913V3.48C30.8059 3.25366 30.245 3.08195 29.685 2.85951C28.8498 2.52585 28.1552 2.23024 27.324 1.89854L22.5757 0C22.0586 0 21.8947 0.429268 21.8947 0.936585V3.4078H10.5659C10.0586 3.4078 9.88399 3.75122 9.88399 4.25951V15.2488C7.25569 15.2488 7.27813 14.9024 5.51423 17.0127C4.99521 17.6332 3.83618 18.3941 3.83618 19.4224C3.83618 20.7161 5.23618 21.8751 6.66643 20.9766C7.11911 20.6927 7.0274 20.6429 7.34935 20.2956C7.70252 19.9112 8.05179 19.6498 8.34838 19.2498C8.69179 18.7873 8.63716 18.9112 9.88399 18.9112C9.88399 20.6576 10.0186 20.5229 9.33765 22.2839C8.43911 24.6039 8.6596 23.9259 7.20691 25.8615C7.04106 26.08 6.79911 26.3298 6.73179 26.5785C5.34057 26.5785 3.94935 26.5805 2.55813 26.5785C1.69277 26.5785 1.27423 26.5493 0.764962 26.9161C-0.274062 27.6644 -0.171623 29.0654 0.583499 29.7463C0.88984 30.0224 1.47911 30.2419 2.04691 30.2419H7.32691C8.64691 30.2419 9.00106 29.4985 9.61277 28.6956L9.72594 28.5522C9.7835 28.482 9.83423 28.4224 9.88204 28.3678V34.758C9.87716 35.5288 9.90155 36.121 10.6489 36.121H21.8947V38.9317C21.8947 40.559 23.3406 39.6517 24.964 38.9346L30.8274 36.5346C30.9484 36.4888 31.0733 36.4468 31.1913 36.3951V30.8468H32.1474V36.1502L32.1484 36.1512ZM48.522 28.242V14.398H43.1025V11.8166H56.9942V14.3971H51.5503V28.241H48.523L48.522 28.242ZM242.95 18.4683H250.881V21.1541H242.95V25.6829H252.218V28.241H239.9V11.8166H251.89V14.3737H242.95V18.4683ZM170.323 18.561H173.515L178.103 11.8156H181.341L175.725 19.761L181.552 28.241H178.103L173.292 21.319H170.242V28.241H167.239V11.8166H170.242L170.323 18.561ZM156.53 19.4585V11.8156H159.556V28.241H156.53V22.0663H156.475C156.475 22.0663 155.112 22.5249 154.489 22.6556C153.71 22.8239 152.915 22.9106 152.118 22.9141C150.023 22.9141 148.407 22.4098 147.273 21.401C146.139 20.3912 145.572 18.9415 145.572 17.0478V11.8156H148.598V16.719C148.598 17.8771 148.936 18.761 149.608 19.3707C150.281 19.9815 151.242 20.2859 152.494 20.2859C153.245 20.2859 154.02 20.2741 154.758 20.0283L156.53 19.4585ZM59.7942 28.241L67.1864 11.8156H70.1903L77.605 28.241H74.4128L72.7806 24.439H64.565L62.9386 28.241H59.7942ZM71.7523 22.0459L68.6645 14.8576L68.5767 15.0663L65.5894 22.0459H71.7523ZM83.2215 28.241V11.8166H96.0098V14.3268H86.2245V18.3629H91.0811C93.0528 18.3629 94.5503 18.7727 95.5747 19.5951C96.5991 20.4166 97.1123 21.6088 97.1123 23.1727C97.1123 24.7844 96.5455 26.0312 95.4108 26.9151C94.2772 27.799 92.6772 28.242 90.6128 28.242H83.2206L83.2215 28.241ZM86.2264 25.8946H90.4489C91.6225 25.8946 92.5142 25.6673 93.124 25.2137C93.7337 24.76 94.0391 24.1034 94.0391 23.2429C94.0391 21.5532 92.842 20.7083 90.4489 20.7083H86.2254V25.8946H86.2264ZM102.801 28.4751C102.534 28.4748 102.267 28.4513 102.003 28.4049C101.713 28.3534 101.424 28.2988 101.135 28.241L101.345 25.5893C101.565 25.6517 101.799 25.6829 102.05 25.6829C102.706 25.6829 103.231 25.4127 103.623 24.8732C104.014 24.3337 104.295 23.5395 104.466 22.4927C104.638 21.4439 104.756 20.1532 104.819 18.6195L105.054 11.8156H117.138V28.241H114.135V14.3971H107.682L107.517 18.5024C107.453 20.1288 107.361 21.561 107.188 22.7971C107.017 24.0332 106.754 25.0693 106.403 25.9063C106.051 26.7424 105.585 27.3795 105.006 27.8185C104.427 28.2556 103.693 28.4751 102.801 28.4751ZM124.866 28.241V11.8166H127.87V23.478L136.693 11.8166H139.532V28.242H136.529V16.6029L127.705 28.242L124.866 28.241ZM186.747 28.241V11.8166H189.751V23.478L198.573 11.8166H201.413V28.242H198.409V16.6029L189.586 28.242L186.747 28.241ZM209.658 28.4049C209.405 28.4094 209.155 28.3629 208.921 28.2682C208.687 28.1735 208.475 28.0325 208.297 27.8537C207.921 27.4859 207.734 27.0205 207.734 26.4576C207.734 25.8624 207.921 25.3893 208.297 25.0371C208.672 24.6859 209.126 24.5102 209.658 24.5102C210.19 24.5102 210.644 24.6859 211.02 25.0371C211.394 25.3893 211.582 25.8624 211.582 26.4566C211.582 27.0205 211.394 27.4859 211.02 27.8537C210.644 28.2215 210.19 28.4049 209.658 28.4049ZM217.81 28.241V11.8166H220.32L229.378 22.9366V11.8166H232.405V28.242H229.894L220.836 17.12V28.242L217.81 28.241ZM262.036 28.241V14.3971H256.592V11.8156H270.53V14.3961H265.086V28.24H262.036V28.241ZM15.2508 14.9073C12.8411 14.9073 13.1776 11.6702 15.0801 11.6702C17.4176 11.6702 17.1494 14.9073 15.2508 14.9073ZM12.2694 13.2888C12.2694 14.0585 12.6986 14.8615 13.0967 15.2732C14.7611 17 17.9767 16.1317 17.9767 13.119C17.9767 11.6849 16.6762 10.4263 15.0918 10.4488C13.5347 10.4722 12.2694 11.7737 12.2694 13.2888ZM11.1611 27.1776C11.5318 27.4263 12.0255 27.999 12.3757 28.3483C13.3347 29.3083 13.2147 28.9824 13.2069 29.9883C13.1991 30.8761 13.0489 34.3415 13.2908 34.8449H11.1611V27.1776ZM5.70838 20.0195C5.36496 20.0195 5.11228 19.8341 5.11228 19.5083C5.11228 19.118 6.02545 18.2068 6.32594 17.9102C6.72984 17.5102 7.55033 16.5259 7.75325 16.5259H11.5874C11.8957 16.5259 13.6118 17.321 14.0333 17.4878L15.2264 17.999C15.4635 18.1415 15.4898 18.2127 15.604 18.4722C17.0791 21.8283 16.7298 21.3151 18.7455 21.2966C19.085 21.2927 19.8508 21.1746 19.8508 21.8937C19.8508 22.2195 19.5991 22.4049 19.2547 22.4049C15.7259 22.4049 16.3064 22.758 15.5055 20.958C15.2079 20.2898 14.9474 19.5083 14.484 19.5083C13.8947 19.5083 13.8059 19.9854 13.6674 20.481C13.4947 21.1005 12.4381 24.4771 12.4381 24.7902C12.4381 25.242 12.884 25.5337 13.1415 25.7912L14.5045 27.0693C15.0567 27.5571 15.5913 28.0107 15.5913 28.6234V34.1619C15.5913 34.8937 14.3855 35.4117 14.3952 33.8244C14.4001 32.9376 14.4586 29.0673 14.3776 28.7298C14.3123 28.4605 12.2274 26.4956 11.8645 26.1317C11.4918 25.76 10.9279 24.9415 10.3406 25.6732L8.1113 28.641C7.95716 28.8312 7.82057 28.9649 7.49764 28.9649H1.87521C1.24886 28.9649 1.27911 28.562 1.27911 28.2829C1.27911 28.078 1.41667 28.0322 1.53472 27.8576C3.18252 27.8576 4.8313 27.8537 6.47911 27.8605C7.45764 27.8634 7.38545 27.6946 7.98448 26.8956C9.83813 24.4273 9.69765 25.0146 10.7025 22.1161C10.923 21.479 12.0128 18.7356 12.0128 18.3161C12.0128 17.8761 11.6586 17.6332 11.2459 17.6332C7.71911 17.6332 8.49862 17.2966 7.04886 18.8039C6.76496 19.0985 6.15325 20.0195 5.70838 20.0195ZM11.162 4.59902H21.8957V34.8429H16.6986C16.8918 34.442 16.8274 29.1873 16.7864 28.28C16.7445 27.3356 15.9659 26.8254 15.442 26.3024C15.0118 25.8712 14.1445 24.9063 13.7172 24.6195C13.8498 24.3434 14.4547 22.3239 14.484 21.9785H14.6537C15.1484 24.0985 16.9757 23.6829 19.2547 23.6829C20.2157 23.6829 21.043 22.799 21.043 22.1493C21.043 21.4166 20.9972 20.5756 19.9484 20.1776C19.3494 19.9493 18.4752 20.0195 17.6362 20.0195L16.842 18.1727C16.4586 17.4049 16.3455 17.1015 15.5181 16.7688C14.9279 16.5317 12.1776 15.2478 11.5864 15.2478H11.1611V4.60098L11.162 4.59902Z" fill="#6C707C"/>
</svg>