<svg xmlns="http://www.w3.org/2000/svg" width="205" height="28" viewBox="0 0 205 28" fill="none">
  <g clip-path="url(#clip0_23_184)">
    <path d="M21.8346 9.64293H22.5038V18.0989H21.8346V9.64293ZM22.5038 25.3059H195.581L204.878 13.8668L195.581 2.4278H22.5031V6.14839H21.8339V2.436C21.5641 2.27756 21.1714 2.15737 20.7794 2.00166C20.1949 1.7681 19.7086 1.56117 19.1268 1.32898L15.8029 0C15.441 0 15.3263 0.300488 15.3263 0.65561V2.38546H7.39612C7.041 2.38546 6.91875 2.62585 6.91875 2.98166V10.6741C5.07895 10.6741 5.09466 10.4317 3.85992 11.9089C3.49661 12.3432 2.68529 12.8759 2.68529 13.5957C2.68529 14.5013 3.66529 15.3126 4.66646 14.6836C4.98334 14.4849 4.91914 14.45 5.14451 14.2069C5.39173 13.9379 5.63622 13.7548 5.84383 13.4748C6.08422 13.1511 6.04597 13.2379 6.91875 13.2379C6.91875 14.4603 7.013 14.366 6.53632 15.5987C5.90734 17.2227 6.06168 16.7481 5.0448 18.103C4.92871 18.256 4.75934 18.4308 4.71222 18.605C3.73836 18.605 2.76451 18.6063 1.79066 18.605C1.1849 18.605 0.891925 18.5845 0.535437 18.8413C-0.19188 19.3651 -0.120173 20.3458 0.408413 20.8224C0.622852 21.0157 1.03534 21.1694 1.4328 21.1694H5.1288C6.0528 21.1694 6.30071 20.649 6.7289 20.0869L6.80812 19.9865C6.84841 19.9374 6.88392 19.8957 6.91739 19.8575V24.3306C6.91397 24.8701 6.93105 25.2847 7.45417 25.2847H15.3263V27.2522C15.3263 28.3913 16.3384 27.7562 17.4748 27.2542L21.5791 25.5742C21.6638 25.5421 21.7512 25.5128 21.8339 25.4766V21.5928H22.5031V25.3052L22.5038 25.3059ZM33.9654 19.7694V10.0786H30.1717V8.27161H39.8959V10.078H36.0852V19.7687H33.9661L33.9654 19.7694ZM170.065 12.9278H175.617V14.8079H170.065V17.978H176.552V19.7687H167.93V8.27161H176.323V10.0616H170.065V12.9278ZM119.226 12.9927H121.461L124.672 8.27093H126.938L123.007 13.8327L127.087 19.7687H124.672L121.304 14.9233H119.169V19.7687H117.067V8.27161H119.169L119.226 12.9927ZM109.571 13.621V8.27093H111.689V19.7687H109.571V15.4464H109.533C109.533 15.4464 108.579 15.7674 108.142 15.8589C107.597 15.9767 107.041 16.0374 106.483 16.0399C105.016 16.0399 103.885 15.6868 103.091 14.9807C102.297 14.2739 101.9 13.259 101.9 11.9335V8.27093H104.019V11.7033C104.019 12.5139 104.255 13.1327 104.725 13.5595C105.197 13.987 105.869 14.2001 106.746 14.2001C107.271 14.2001 107.814 14.1919 108.331 14.0198L109.571 13.621ZM41.8559 19.7687L47.0305 8.27093H49.1332L54.3234 19.7687H52.0889L50.9464 17.1073H45.1954L44.057 19.7687H41.8559ZM50.2266 15.4321L48.0651 10.4003L48.0036 10.5464L45.9125 15.4321H50.2266ZM58.2551 19.7687V8.27161H67.2069V10.0288H60.3571V12.854H63.7567C65.1369 12.854 66.1852 13.1409 66.9023 13.7166C67.6193 14.2916 67.9786 15.1261 67.9786 16.2209C67.9786 17.3491 67.5818 18.2219 66.7875 18.8406C65.994 19.4593 64.874 19.7694 63.4289 19.7694H58.2544L58.2551 19.7687ZM60.3585 18.1262H63.3142C64.1357 18.1262 64.7599 17.9671 65.1868 17.6496C65.6136 17.332 65.8273 16.8724 65.8273 16.27C65.8273 15.0872 64.9894 14.4958 63.3142 14.4958H60.3578V18.1262H60.3585ZM71.9607 19.9326C71.7734 19.9324 71.5865 19.9159 71.4021 19.8834C71.1991 19.8474 70.9964 19.8091 70.7943 19.7687L70.9418 17.9125C71.0954 17.9562 71.2593 17.978 71.4349 17.978C71.8945 17.978 72.2619 17.7889 72.5357 17.4112C72.8096 17.0336 73.0063 16.4777 73.1265 15.7449C73.2467 15.0107 73.3293 14.1072 73.373 13.0337L73.5376 8.27093H81.9963V19.7687H79.8943V10.078H75.3774L75.262 12.9517C75.2169 14.0901 75.1527 15.0927 75.0318 15.958C74.9116 16.8232 74.7279 17.5485 74.4821 18.1344C74.2355 18.7197 73.9098 19.1657 73.5041 19.473C73.0991 19.7789 72.5849 19.9326 71.9607 19.9326ZM87.4065 19.7687V8.27161H89.5092V16.4346L95.6849 8.27161H97.6722V19.7694H95.5702V11.622L89.3938 19.7694L87.4065 19.7687ZM130.723 19.7687V8.27161H132.826V16.4346L139.001 8.27161H140.989V19.7694H138.886V11.622L132.71 19.7694L130.723 19.7687ZM146.76 19.8834C146.584 19.8866 146.408 19.854 146.245 19.7877C146.081 19.7214 145.932 19.6227 145.808 19.4976C145.545 19.2401 145.414 18.9143 145.414 18.5203C145.414 18.1037 145.545 17.7725 145.808 17.5259C146.071 17.2801 146.388 17.1572 146.76 17.1572C147.133 17.1572 147.451 17.2801 147.714 17.5259C147.976 17.7725 148.107 18.1037 148.107 18.5196C148.107 18.9143 147.976 19.2401 147.714 19.4976C147.451 19.755 147.133 19.8834 146.76 19.8834ZM152.467 19.7687V8.27161H154.224L160.564 16.0556V8.27161H162.683V19.7694H160.926L154.585 11.984V19.7694L152.467 19.7687ZM183.425 19.7687V10.078H179.615V8.27093H189.371V10.0773H185.56V19.768H183.425V19.7687ZM10.6755 10.4351C8.98871 10.4351 9.22431 8.16917 10.556 8.16917C12.1923 8.16917 12.0045 10.4351 10.6755 10.4351ZM8.58851 9.30215C8.58851 9.84097 8.889 10.403 9.16763 10.6912C10.3327 11.9 12.5836 11.2922 12.5836 9.18332C12.5836 8.17941 11.6733 7.29844 10.5642 7.31415C9.47427 7.33054 8.58851 8.24156 8.58851 9.30215ZM7.81271 19.0243C8.07222 19.1984 8.41778 19.5993 8.66295 19.8438C9.33427 20.5158 9.25027 20.2877 9.2448 20.9918C9.23934 21.6133 9.13417 24.039 9.30353 24.3914H7.81271V19.0243ZM3.99583 14.0137C3.75544 14.0137 3.57856 13.8839 3.57856 13.6558C3.57856 13.3826 4.21778 12.7448 4.42812 12.5372C4.71085 12.2572 5.28519 11.5681 5.42724 11.5681H8.11114C8.32695 11.5681 9.52822 12.1247 9.82324 12.2415L10.6585 12.5993C10.8244 12.699 10.8429 12.7489 10.9228 12.9305C11.9553 15.2798 11.7109 14.9206 13.1218 14.9076C13.3594 14.9049 13.8955 14.8222 13.8955 15.3256C13.8955 15.5537 13.7193 15.6834 13.4783 15.6834C11.0081 15.6834 11.4145 15.9306 10.8538 14.6706C10.6455 14.2028 10.4631 13.6558 10.1388 13.6558C9.72627 13.6558 9.66412 13.9898 9.56714 14.3367C9.44627 14.7703 8.70666 17.1339 8.70666 17.3532C8.70666 17.6694 9.01875 17.8736 9.19905 18.0539L10.1531 18.9485C10.5396 19.2899 10.9139 19.6075 10.9139 20.0364V23.9134C10.9139 24.4256 10.0698 24.7882 10.0766 23.6771C10.08 23.0563 10.121 20.3471 10.0643 20.1108C10.0186 19.9223 8.55914 18.5469 8.3051 18.2922C8.04422 18.032 7.64949 17.459 7.23836 17.9712L5.67788 20.0487C5.56997 20.1819 5.47436 20.2754 5.24831 20.2754H1.31261C0.874169 20.2754 0.895339 19.9934 0.895339 19.798C0.895339 19.6546 0.991632 19.6225 1.07427 19.5003C2.22773 19.5003 3.38188 19.4976 4.53534 19.5023C5.22031 19.5044 5.16978 19.3862 5.5891 18.8269C6.88666 17.0991 6.78832 17.5102 7.49173 15.4813C7.64607 15.0353 8.4089 13.1149 8.4089 12.8213C8.4089 12.5133 8.161 12.3432 7.87212 12.3432C5.40334 12.3432 5.949 12.1076 4.93417 13.1627C4.73544 13.369 4.30724 14.0137 3.99583 14.0137ZM7.81339 3.21932H15.327V24.39H11.689C11.8242 24.1094 11.7791 20.4311 11.7505 19.796C11.7211 19.1349 11.1761 18.7778 10.8094 18.4117C10.5082 18.1099 9.9011 17.4344 9.60197 17.2337C9.69485 17.0404 10.1183 15.6267 10.1388 15.385H10.2576C10.6038 16.869 11.8829 16.578 13.4783 16.578C14.1509 16.578 14.7301 15.9593 14.7301 15.5045C14.7301 14.9916 14.698 14.4029 13.9638 14.1243C13.5445 13.9645 12.9326 14.0137 12.3453 14.0137L11.7894 12.7209C11.521 12.1834 11.4418 11.971 10.8627 11.7381C10.4495 11.5722 8.52432 10.6735 8.11046 10.6735H7.81271V3.22068L7.81339 3.21932Z" fill="#F7F8FA"/>
  </g>
  <defs>
    <clipPath id="clip0_23_184">
      <rect width="204.878" height="28" fill="white"/>
    </clipPath>
  </defs>
</svg>