<svg width="133" height="34" viewBox="0 0 133 34" fill="none" xmlns="http://www.w3.org/2000/svg">
<path d="M17.9483 0.818182V2.36435H13.2452V11H11.4007V0.818182H17.9483ZM25.6083 11L22.2575 6.55043H21.3526V11H19.5082V0.818182H21.3526V5.00426H21.815L25.4343 0.818182H27.7063L23.6843 5.46165L27.8803 11H25.6083ZM29.1332 11V0.818182H35.6808V2.36435H30.9776V4.75071H32.9414C33.7203 4.75071 34.3881 4.87831 34.945 5.13352C35.5051 5.38542 35.9343 5.74171 36.2326 6.20241C36.5309 6.66312 36.68 7.20502 36.68 7.82812C36.68 8.45455 36.5309 9.00639 36.2326 9.48366C35.9343 9.95762 35.5051 10.3288 34.945 10.5973C34.3881 10.8658 33.7203 11 32.9414 11H29.1332ZM30.9776 9.48864H32.9414C33.3524 9.48864 33.7004 9.41075 33.9854 9.25497C34.2705 9.09919 34.4859 8.8937 34.6317 8.63849C34.7809 8.38329 34.8555 8.10653 34.8555 7.80824C34.8555 7.37737 34.6897 7.01113 34.3583 6.70952C34.0302 6.40459 33.5579 6.25213 32.9414 6.25213H30.9776V9.48864ZM41.766 11V0.818182H43.332L47.5778 8.09162H47.6722V0.818182H49.2582V11H47.707L43.4563 3.76136H43.3619V11H41.766ZM50.5806 7.98722V6.88849H54.9556V7.98722H50.5806ZM52.7631 6.04332C52.2693 6.04332 51.8401 5.93892 51.4755 5.73011C51.1142 5.52131 50.8342 5.23461 50.6353 4.87003C50.4364 4.50544 50.337 4.08783 50.337 3.61719V3.10014C50.337 2.63281 50.4348 2.21686 50.6303 1.85227C50.8292 1.48769 51.1093 1.20099 51.4705 0.992188C51.8351 0.780066 52.2627 0.674005 52.7532 0.674005C53.2504 0.674005 53.6796 0.780066 54.0408 0.992188C54.4021 1.20099 54.6805 1.48769 54.8761 1.85227C55.0716 2.21686 55.1694 2.63281 55.1694 3.10014V3.61719C55.1694 4.08452 55.0716 4.50213 54.8761 4.87003C54.6838 5.23461 54.4071 5.52131 54.0458 5.73011C53.6879 5.93892 53.2603 6.04332 52.7631 6.04332ZM52.7631 4.88991C53.1045 4.88991 53.3647 4.77391 53.5437 4.5419C53.726 4.3099 53.8171 4.00166 53.8171 3.61719V3.10014C53.8171 2.71899 53.726 2.41572 53.5437 2.19034C53.3647 1.96165 53.1012 1.8473 52.7532 1.8473C52.4052 1.8473 52.1417 1.96165 51.9627 2.19034C51.7871 2.41572 51.6992 2.71899 51.6992 3.10014V3.61719C51.6992 4.00166 51.7887 4.3099 51.9677 4.5419C52.1467 4.77391 52.4118 4.88991 52.7631 4.88991ZM57.0337 11V9.66761L60.5685 6.20241C60.9066 5.86103 61.1883 5.55776 61.4137 5.29261C61.6391 5.02746 61.8081 4.7706 61.9208 4.52202C62.0335 4.27344 62.0898 4.00829 62.0898 3.72656C62.0898 3.40507 62.0169 3.12997 61.8711 2.90128C61.7253 2.66927 61.5247 2.49029 61.2695 2.36435C61.0143 2.2384 60.7243 2.17543 60.3995 2.17543C60.0647 2.17543 59.7714 2.24503 59.5195 2.38423C59.2676 2.52012 59.0721 2.71401 58.9329 2.96591C58.797 3.2178 58.729 3.51776 58.729 3.86577H56.9741C56.9741 3.21946 57.1216 2.65767 57.4165 2.1804C57.7115 1.70312 58.1175 1.33357 58.6346 1.07173C59.1549 0.809896 59.7515 0.678977 60.4244 0.678977C61.1071 0.678977 61.707 0.806581 62.2241 1.06179C62.7411 1.317 63.1422 1.66667 63.4272 2.1108C63.7156 2.55492 63.8597 3.06203 63.8597 3.6321C63.8597 4.01326 63.7868 4.38778 63.641 4.75568C63.4951 5.12358 63.2383 5.53125 62.8704 5.97869C62.5058 6.42614 61.9937 6.96804 61.3342 7.6044L59.5792 9.3892V9.45881H64.0138V11H57.0337ZM69.3832 11.1392C68.6673 11.1392 68.0309 11.0166 67.4741 10.7713C66.9206 10.526 66.4831 10.1847 66.1616 9.74716C65.8401 9.30966 65.6694 8.80421 65.6495 8.23082H67.5188C67.5354 8.50592 67.6265 8.74621 67.7923 8.9517C67.958 9.15388 68.1784 9.31132 68.4535 9.42401C68.7286 9.5367 69.0368 9.59304 69.3782 9.59304C69.7428 9.59304 70.0659 9.53007 70.3477 9.40412C70.6294 9.27486 70.8498 9.09588 71.0089 8.86719C71.168 8.63849 71.2459 8.375 71.2425 8.0767C71.2459 7.76847 71.1663 7.49669 71.0039 7.26136C70.8415 7.02604 70.6062 6.84209 70.2979 6.70952C69.993 6.57694 69.6251 6.51065 69.1942 6.51065H68.2944V5.08878H69.1942C69.5489 5.08878 69.8588 5.02746 70.1239 4.90483C70.3924 4.7822 70.6029 4.60985 70.7553 4.38778C70.9078 4.16241 70.9824 3.90223 70.979 3.60724C70.9824 3.31889 70.9177 3.06866 70.7852 2.85653C70.6559 2.6411 70.4719 2.47372 70.2333 2.3544C69.998 2.23508 69.7212 2.17543 69.4031 2.17543C69.0915 2.17543 68.8031 2.23177 68.538 2.34446C68.2728 2.45715 68.0591 2.6179 67.8967 2.8267C67.7343 3.0322 67.6481 3.27746 67.6381 3.5625H65.8633C65.8765 2.99242 66.0406 2.49195 66.3555 2.06108C66.6737 1.62689 67.0979 1.28883 67.6282 1.04688C68.1585 0.80161 68.7534 0.678977 69.413 0.678977C70.0924 0.678977 70.6824 0.806581 71.1829 1.06179C71.6867 1.31368 72.0761 1.65341 72.3512 2.08097C72.6263 2.50852 72.7638 2.98082 72.7638 3.49787C72.7672 4.07126 72.5981 4.55185 72.2567 4.93963C71.9187 5.32741 71.4746 5.58097 70.9244 5.70028V5.77983C71.6403 5.87926 72.1888 6.14441 72.57 6.57528C72.9544 7.00284 73.145 7.5348 73.1417 8.17116C73.1417 8.74124 72.9793 9.25166 72.6545 9.70241C72.333 10.1499 71.8888 10.5012 71.3221 10.7564C70.7586 11.0116 70.1123 11.1392 69.3832 11.1392ZM80.0758 8.56392L83.1333 3.36364H84.9828V11H83.2427V5.79474L80.1951 11H78.3407V3.36364H80.0758V8.56392ZM91.2259 8.90696L93.4929 3.36364H94.9446L91.8572 11H90.5994L87.5817 3.36364H89.0185L91.2259 8.90696ZM88.5661 3.36364V11H86.831V3.36364H88.5661ZM93.9602 11V3.36364H95.6804V11H93.9602ZM100.876 11.1491C100.11 11.1491 99.4489 10.9901 98.892 10.6719C98.3385 10.3504 97.9126 9.89631 97.6143 9.30966C97.3161 8.7197 97.1669 8.02533 97.1669 7.22656C97.1669 6.44105 97.3161 5.75166 97.6143 5.15838C97.916 4.56179 98.3369 4.09777 98.8771 3.76633C99.4174 3.43158 100.052 3.2642 100.781 3.2642C101.252 3.2642 101.696 3.34044 102.114 3.4929C102.535 3.64205 102.906 3.87405 103.227 4.18892C103.552 4.50379 103.807 4.90483 103.993 5.39205C104.179 5.87595 104.271 6.45265 104.271 7.12216V7.67401H98.0121V6.46094H102.546C102.543 6.11624 102.468 5.80966 102.322 5.54119C102.177 5.26941 101.973 5.05563 101.711 4.89986C101.452 4.74408 101.151 4.66619 100.806 4.66619C100.438 4.66619 100.115 4.75568 99.8366 4.93466C99.5582 5.11032 99.3411 5.34233 99.1854 5.63068C99.0329 5.91572 98.955 6.22893 98.9517 6.57031V7.62926C98.9517 8.07339 99.0329 8.45455 99.1953 8.77273C99.3577 9.08759 99.5848 9.32955 99.8764 9.49858C100.168 9.6643 100.509 9.74716 100.901 9.74716C101.162 9.74716 101.399 9.7107 101.612 9.63778C101.824 9.56155 102.008 9.45052 102.163 9.30469C102.319 9.15885 102.437 8.97822 102.516 8.76278L104.197 8.9517C104.091 9.39583 103.888 9.78362 103.59 10.1151C103.295 10.4432 102.917 10.6984 102.457 10.8807C101.996 11.0597 101.469 11.1491 100.876 11.1491ZM111.039 6.43608V7.91264H106.972V6.43608H111.039ZM107.529 3.36364V11H105.794V3.36364H107.529ZM112.217 3.36364V11H110.487V3.36364H112.217ZM115.773 8.56392L118.831 3.36364H120.68V11H118.94V5.79474L115.892 11H114.038V3.36364H115.773V8.56392ZM0.230824 20.8182H2.06037V27.7585H2.15483L6.94247 20.8182H8.59801V31H6.75355V24.0646H6.66903L1.86648 31H0.230824V20.8182ZM11.6369 31.1094C11.3353 31.1094 11.0768 31.0033 10.8613 30.7912C10.6459 30.5791 10.5398 30.3205 10.5431 30.0156C10.5398 29.7173 10.6459 29.4621 10.8613 29.25C11.0768 29.0379 11.3353 28.9318 11.6369 28.9318C11.9286 28.9318 12.1821 29.0379 12.3975 29.25C12.6163 29.4621 12.7273 29.7173 12.7306 30.0156C12.7273 30.2178 12.6743 30.4018 12.5716 30.5675C12.4721 30.7332 12.3395 30.8658 12.1738 30.9652C12.0114 31.0613 11.8324 31.1094 11.6369 31.1094ZM14.6683 31V20.8182H18.5661C19.3018 20.8182 19.9134 20.9342 20.4006 21.1662C20.8911 21.3949 21.2573 21.7081 21.4993 22.1058C21.7446 22.5036 21.8672 22.9543 21.8672 23.4581C21.8672 23.8724 21.7876 24.227 21.6286 24.522C21.4695 24.8137 21.2557 25.0507 20.9872 25.233C20.7188 25.4152 20.4188 25.5462 20.0874 25.6257V25.7251C20.4486 25.745 20.795 25.8561 21.1264 26.0582C21.4612 26.2571 21.7346 26.5388 21.9467 26.9034C22.1589 27.268 22.2649 27.7088 22.2649 28.2259C22.2649 28.7528 22.1373 29.2268 21.8821 29.6477C21.6269 30.0653 21.2424 30.3951 20.7287 30.6371C20.215 30.879 19.5687 31 18.7898 31H14.6683ZM16.5128 29.4588H18.4964C19.166 29.4588 19.6482 29.3312 19.9432 29.076C20.2415 28.8175 20.3906 28.486 20.3906 28.0817C20.3906 27.7801 20.3161 27.5083 20.1669 27.2663C20.0178 27.0211 19.8056 26.8288 19.5305 26.6896C19.2554 26.5471 18.9273 26.4759 18.5462 26.4759H16.5128V29.4588ZM16.5128 25.1484H18.3374C18.6555 25.1484 18.9422 25.0904 19.1974 24.9744C19.4527 24.8551 19.6532 24.6877 19.799 24.4723C19.9482 24.2536 20.0227 23.995 20.0227 23.6967C20.0227 23.3023 19.8835 22.9775 19.6051 22.7223C19.33 22.4671 18.9207 22.3395 18.3771 22.3395H16.5128V25.1484ZM24.8986 31.1094C24.597 31.1094 24.3385 31.0033 24.123 30.7912C23.9076 30.5791 23.8016 30.3205 23.8049 30.0156C23.8016 29.7173 23.9076 29.4621 24.123 29.25C24.3385 29.0379 24.597 28.9318 24.8986 28.9318C25.1903 28.9318 25.4438 29.0379 25.6593 29.25C25.878 29.4621 25.9891 29.7173 25.9924 30.0156C25.9891 30.2178 25.936 30.4018 25.8333 30.5675C25.7338 30.7332 25.6013 30.8658 25.4355 30.9652C25.2731 31.0613 25.0942 31.1094 24.8986 31.1094ZM30.427 33.456V29.4936H31.1081C31.3368 29.3113 31.5506 29.0545 31.7495 28.723C31.9483 28.3916 32.1174 27.9375 32.2566 27.3608C32.3958 26.7841 32.4919 26.0384 32.5449 25.1236L32.8134 20.8182H39.3212V29.4936H40.4547V33.446H38.6848V31H32.1969V33.456H30.427ZM33.2559 29.4936H37.5513V22.3643H34.4739L34.3148 25.1236C34.2717 25.8163 34.2021 26.4361 34.106 26.983C34.0099 27.5298 33.8889 28.0121 33.7431 28.4297C33.5972 28.844 33.4348 29.1986 33.2559 29.4936ZM44.0753 31.1541C43.5914 31.1541 43.1555 31.0679 42.7678 30.8956C42.3833 30.7199 42.0784 30.4614 41.853 30.12C41.6309 29.7786 41.5199 29.3577 41.5199 28.8572C41.5199 28.4264 41.5994 28.0701 41.7585 27.7884C41.9176 27.5066 42.1347 27.2812 42.4098 27.1122C42.6849 26.9432 42.9948 26.8156 43.3395 26.7294C43.6875 26.6399 44.0471 26.5753 44.4183 26.5355C44.8658 26.4891 45.2287 26.4477 45.5071 26.4112C45.7855 26.3714 45.9877 26.3118 46.1136 26.2322C46.2429 26.1494 46.3075 26.0218 46.3075 25.8494V25.8196C46.3075 25.4451 46.1965 25.1551 45.9744 24.9496C45.7524 24.7441 45.4325 24.6413 45.0149 24.6413C44.5741 24.6413 44.2244 24.7375 43.9659 24.9297C43.7107 25.1219 43.5384 25.349 43.4489 25.6108L41.7685 25.3722C41.901 24.9081 42.1198 24.5204 42.4247 24.2088C42.7296 23.8939 43.1025 23.6586 43.5433 23.5028C43.9841 23.3438 44.4714 23.2642 45.005 23.2642C45.3729 23.2642 45.7391 23.3073 46.1037 23.3935C46.4683 23.4796 46.8014 23.6222 47.103 23.821C47.4046 24.0166 47.6465 24.2834 47.8288 24.6214C48.0144 24.9595 48.1072 25.3821 48.1072 25.8892V31H46.3771V29.951H46.3175C46.2081 30.1631 46.054 30.362 45.8551 30.5476C45.6596 30.7299 45.4126 30.8774 45.1143 30.9901C44.8194 31.0994 44.473 31.1541 44.0753 31.1541ZM44.5426 29.8317C44.9039 29.8317 45.2171 29.7604 45.4822 29.6179C45.7474 29.4721 45.9512 29.2798 46.0938 29.0412C46.2396 28.8026 46.3125 28.5424 46.3125 28.2607V27.3608C46.2562 27.4072 46.16 27.4503 46.0241 27.4901C45.8916 27.5298 45.7424 27.5646 45.5767 27.5945C45.411 27.6243 45.2469 27.6508 45.0845 27.674C44.9221 27.6972 44.7813 27.7171 44.6619 27.7337C44.3935 27.7701 44.1532 27.8298 43.9411 27.9126C43.7289 27.9955 43.5616 28.1115 43.4389 28.2607C43.3163 28.4065 43.255 28.5954 43.255 28.8274C43.255 29.1589 43.3759 29.4091 43.6179 29.5781C43.8598 29.7472 44.1681 29.8317 44.5426 29.8317ZM49.9169 31V23.3636H53.1236C54.0284 23.3636 54.7427 23.5443 55.2663 23.9055C55.7933 24.2668 56.0568 24.7706 56.0568 25.4169C56.0568 25.8445 55.9077 26.1941 55.6094 26.4659C55.3144 26.7344 54.9117 26.915 54.4013 27.0078C54.8023 27.041 55.1536 27.142 55.4553 27.3111C55.7602 27.4801 55.9988 27.7022 56.1712 27.9773C56.3435 28.2524 56.4297 28.5689 56.4297 28.9268C56.4297 29.3478 56.3187 29.714 56.0966 30.0256C55.8778 30.3338 55.558 30.5741 55.1371 30.7464C54.7195 30.9155 54.2124 31 53.6158 31H49.9169ZM51.6023 29.5831H53.6158C53.9472 29.5831 54.2074 29.5052 54.3963 29.3494C54.5852 29.1903 54.6797 28.9749 54.6797 28.7031C54.6797 28.3883 54.5852 28.1413 54.3963 27.9624C54.2074 27.7801 53.9472 27.6889 53.6158 27.6889H51.6023V29.5831ZM51.6023 26.5256H53.1584C53.4036 26.5256 53.6141 26.4908 53.7898 26.4212C53.9654 26.3482 54.0997 26.2472 54.1925 26.1179C54.2853 25.9853 54.3317 25.8279 54.3317 25.6456C54.3317 25.3838 54.224 25.1783 54.0085 25.0291C53.7964 24.88 53.5014 24.8054 53.1236 24.8054H51.6023V26.5256ZM59.133 25.8494H61.3851C62.3596 25.8494 63.1136 26.0864 63.6472 26.5604C64.1808 27.0343 64.4493 27.6558 64.4526 28.4247C64.4493 28.9252 64.3266 29.3693 64.0847 29.7571C63.8461 30.1449 63.498 30.4498 63.0407 30.6719C62.5866 30.8906 62.0347 31 61.3851 31H57.915V23.3636H59.65V29.5234H61.3851C61.7762 29.5234 62.0977 29.424 62.3496 29.2251C62.6015 29.023 62.7275 28.7644 62.7275 28.4496C62.7275 28.1181 62.6015 27.848 62.3496 27.6392C62.0977 27.4304 61.7762 27.326 61.3851 27.326H59.133V25.8494ZM65.4022 31V23.3636H67.2019V31H65.4022ZM68.3814 33.2173V29.5185H68.9879C69.1503 29.3925 69.2862 29.2218 69.3956 29.0064C69.505 28.7876 69.5945 28.5308 69.6641 28.2358C69.737 27.9375 69.7966 27.6044 69.843 27.2365C69.8894 26.8653 69.9309 26.4659 69.9673 26.0384L70.1861 23.3636H75.7045V29.5185H76.8878V33.2173H75.1477V31H70.1513V33.2173H68.3814ZM70.8374 29.5185H73.9844V24.8153H71.7472L71.6278 26.0384C71.5616 26.8471 71.4737 27.5398 71.3643 28.1165C71.255 28.6932 71.0793 29.1605 70.8374 29.5185ZM81.5623 31.1491C80.8166 31.1491 80.1703 30.9851 79.6234 30.657C79.0765 30.3288 78.6523 29.8698 78.3507 29.2798C78.0524 28.6899 77.9032 28.0005 77.9032 27.2116C77.9032 26.4228 78.0524 25.7318 78.3507 25.1385C78.6523 24.5452 79.0765 24.0845 79.6234 23.7564C80.1703 23.4283 80.8166 23.2642 81.5623 23.2642C82.3081 23.2642 82.9544 23.4283 83.5012 23.7564C84.0481 24.0845 84.4707 24.5452 84.769 25.1385C85.0706 25.7318 85.2214 26.4228 85.2214 27.2116C85.2214 28.0005 85.0706 28.6899 84.769 29.2798C84.4707 29.8698 84.0481 30.3288 83.5012 30.657C82.9544 30.9851 82.3081 31.1491 81.5623 31.1491ZM81.5723 29.7074C81.9766 29.7074 82.3147 29.5964 82.5865 29.3743C82.8583 29.1489 83.0604 28.8473 83.193 28.4695C83.3289 28.0916 83.3968 27.6707 83.3968 27.2067C83.3968 26.7393 83.3289 26.3168 83.193 25.9389C83.0604 25.5578 82.8583 25.2545 82.5865 25.0291C82.3147 24.8037 81.9766 24.6911 81.5723 24.6911C81.158 24.6911 80.8133 24.8037 80.5382 25.0291C80.2664 25.2545 80.0626 25.5578 79.9267 25.9389C79.7941 26.3168 79.7278 26.7393 79.7278 27.2067C79.7278 27.6707 79.7941 28.0916 79.9267 28.4695C80.0626 28.8473 80.2664 29.1489 80.5382 29.3743C80.8133 29.5964 81.158 29.7074 81.5723 29.7074ZM86.7489 31V23.3636H89.9556C90.8604 23.3636 91.5747 23.5443 92.0984 23.9055C92.6254 24.2668 92.8888 24.7706 92.8888 25.4169C92.8888 25.8445 92.7397 26.1941 92.4414 26.4659C92.1464 26.7344 91.7437 26.915 91.2333 27.0078C91.6344 27.041 91.9857 27.142 92.2873 27.3111C92.5922 27.4801 92.8308 27.7022 93.0032 27.9773C93.1755 28.2524 93.2617 28.5689 93.2617 28.9268C93.2617 29.3478 93.1507 29.714 92.9286 30.0256C92.7099 30.3338 92.39 30.5741 91.9691 30.7464C91.5515 30.9155 91.0444 31 90.4478 31H86.7489ZM88.4343 29.5831H90.4478C90.7792 29.5831 91.0394 29.5052 91.2283 29.3494C91.4173 29.1903 91.5117 28.9749 91.5117 28.7031C91.5117 28.3883 91.4173 28.1413 91.2283 27.9624C91.0394 27.7801 90.7792 27.6889 90.4478 27.6889H88.4343V29.5831ZM88.4343 26.5256H89.9904C90.2357 26.5256 90.4461 26.4908 90.6218 26.4212C90.7975 26.3482 90.9317 26.2472 91.0245 26.1179C91.1173 25.9853 91.1637 25.8279 91.1637 25.6456C91.1637 25.3838 91.056 25.1783 90.8406 25.0291C90.6284 24.88 90.3335 24.8054 89.9556 24.8054H88.4343V26.5256ZM98.0779 31.1491C97.3156 31.1491 96.661 30.9818 96.1142 30.647C95.5706 30.3123 95.1513 29.8499 94.8564 29.2599C94.5647 28.6667 94.4189 27.9839 94.4189 27.2116C94.4189 26.4361 94.568 25.7517 94.8663 25.1584C95.1646 24.5618 95.5855 24.0978 96.1291 23.7663C96.676 23.4316 97.3223 23.2642 98.068 23.2642C98.6878 23.2642 99.2363 23.3786 99.7136 23.6072C100.194 23.8326 100.577 24.1525 100.862 24.5668C101.147 24.9777 101.309 25.4583 101.349 26.0085H99.6291C99.5595 25.6406 99.3938 25.334 99.1319 25.0888C98.8734 24.8402 98.527 24.7159 98.0929 24.7159C97.725 24.7159 97.4018 24.8153 97.1234 25.0142C96.845 25.2098 96.6279 25.4915 96.4721 25.8594C96.3197 26.2273 96.2434 26.6681 96.2434 27.1818C96.2434 27.7022 96.3197 28.1496 96.4721 28.5241C96.6246 28.8954 96.8384 29.1821 97.1135 29.3842C97.3919 29.5831 97.7183 29.6825 98.0929 29.6825C98.358 29.6825 98.595 29.6328 98.8038 29.5334C99.0159 29.4306 99.1932 29.2831 99.3358 29.0909C99.4783 28.8987 99.5761 28.665 99.6291 28.3899H101.349C101.306 28.9302 101.147 29.4091 100.872 29.8267C100.597 30.241 100.222 30.5658 99.7484 30.8011C99.2744 31.0331 98.7176 31.1491 98.0779 31.1491ZM102.827 31V23.3636H104.627V26.446H105.283L107.58 23.3636H109.748L106.919 27.1122L109.777 31H107.6L105.507 28.1214H104.627V31H102.827ZM113.814 31.1491C113.069 31.1491 112.422 30.9851 111.875 30.657C111.328 30.3288 110.904 29.8698 110.603 29.2798C110.304 28.6899 110.155 28.0005 110.155 27.2116C110.155 26.4228 110.304 25.7318 110.603 25.1385C110.904 24.5452 111.328 24.0845 111.875 23.7564C112.422 23.4283 113.069 23.2642 113.814 23.2642C114.56 23.2642 115.206 23.4283 115.753 23.7564C116.3 24.0845 116.723 24.5452 117.021 25.1385C117.323 25.7318 117.473 26.4228 117.473 27.2116C117.473 28.0005 117.323 28.6899 117.021 29.2798C116.723 29.8698 116.3 30.3288 115.753 30.657C115.206 30.9851 114.56 31.1491 113.814 31.1491ZM113.824 29.7074C114.229 29.7074 114.567 29.5964 114.838 29.3743C115.11 29.1489 115.312 28.8473 115.445 28.4695C115.581 28.0916 115.649 27.6707 115.649 27.2067C115.649 26.7393 115.581 26.3168 115.445 25.9389C115.312 25.5578 115.11 25.2545 114.838 25.0291C114.567 24.8037 114.229 24.6911 113.824 24.6911C113.41 24.6911 113.065 24.8037 112.79 25.0291C112.518 25.2545 112.315 25.5578 112.179 25.9389C112.046 26.3168 111.98 26.7393 111.98 27.2067C111.98 27.6707 112.046 28.0916 112.179 28.4695C112.315 28.8473 112.518 29.1489 112.79 29.3743C113.065 29.5964 113.41 29.7074 113.824 29.7074ZM124.052 23.3636V24.8402H120.761V31H119.001V23.3636H124.052ZM128.512 31.1491C127.766 31.1491 127.119 30.9851 126.573 30.657C126.026 30.3288 125.602 29.8698 125.3 29.2798C125.002 28.6899 124.852 28.0005 124.852 27.2116C124.852 26.4228 125.002 25.7318 125.3 25.1385C125.602 24.5452 126.026 24.0845 126.573 23.7564C127.119 23.4283 127.766 23.2642 128.512 23.2642C129.257 23.2642 129.904 23.4283 130.45 23.7564C130.997 24.0845 131.42 24.5452 131.718 25.1385C132.02 25.7318 132.171 26.4228 132.171 27.2116C132.171 28.0005 132.02 28.6899 131.718 29.2798C131.42 29.8698 130.997 30.3288 130.45 30.657C129.904 30.9851 129.257 31.1491 128.512 31.1491ZM128.521 29.7074C128.926 29.7074 129.264 29.5964 129.536 29.3743C129.807 29.1489 130.01 28.8473 130.142 28.4695C130.278 28.0916 130.346 27.6707 130.346 27.2067C130.346 26.7393 130.278 26.3168 130.142 25.9389C130.01 25.5578 129.807 25.2545 129.536 25.0291C129.264 24.8037 128.926 24.6911 128.521 24.6911C128.107 24.6911 127.762 24.8037 127.487 25.0291C127.216 25.2545 127.012 25.5578 126.876 25.9389C126.743 26.3168 126.677 26.7393 126.677 27.2067C126.677 27.6707 126.743 28.0916 126.876 28.4695C127.012 28.8473 127.216 29.1489 127.487 29.3743C127.762 29.5964 128.107 29.7074 128.521 29.7074Z" fill="#6C707C"/>
</svg>
