<svg xmlns="http://www.w3.org/2000/svg" width="136" height="40" viewBox="0 0 136 40" fill="none">
  <g clip-path="url(#clip0_15_245)">
    <path d="M123.432 10.7114H125.241L128.982 4.08447H135.164L129.937 12.7177L135.138 21.8583H128.456L125.089 15.4358H123.432V21.8583H117.503V4.08447H123.432V10.7114Z" fill="#6C707C"/>
    <path d="M131.872 27.0496H134.795V27.6925H133.716V30.4546H132.946V27.6925H131.872V27.0496Z" fill="#6C707C"/>
    <path d="M129.755 28.4218H131.32V29.0348H129.755V29.8222H131.588V30.4564H128.979V27.0496H131.527V27.6802H129.755V28.4218Z" fill="#6C707C"/>
    <path d="M125.565 27.0496H128.488V27.6925H127.409V30.4546H126.638V27.6925H125.565V27.0496Z" fill="#6C707C"/>
    <path d="M125.073 30.4546H124.305V28.2421L122.696 30.4546H121.959V27.0496H122.735V29.2691L124.341 27.0496H125.073V30.4546Z" fill="#6C707C"/>
    <path d="M121.45 27.5939L120.948 28.0607C120.845 27.9345 120.716 27.8333 120.569 27.7644C120.423 27.6955 120.263 27.6607 120.101 27.6626C119.906 27.6588 119.713 27.7068 119.542 27.8018C119.381 27.8917 119.249 28.0254 119.16 28.1875C119.07 28.3618 119.023 28.5555 119.023 28.7521C119.023 28.9487 119.07 29.1424 119.16 29.3167C119.249 29.4789 119.381 29.6125 119.542 29.7025C119.713 29.7979 119.906 29.8465 120.101 29.8434C120.263 29.8451 120.424 29.8095 120.571 29.7393C120.717 29.6691 120.846 29.5662 120.948 29.4382L121.45 29.905C121.29 30.1021 121.085 30.2574 120.852 30.3578C120.601 30.465 120.33 30.5184 120.058 30.5145C119.733 30.5191 119.412 30.4409 119.125 30.2873C118.854 30.1426 118.628 29.9249 118.472 29.6584C118.315 29.3823 118.232 29.0695 118.232 28.7512C118.232 28.4329 118.315 28.1202 118.472 27.844C118.628 27.5784 118.855 27.3615 119.125 27.2169C119.413 27.0614 119.735 26.9815 120.061 26.9844C120.334 26.9809 120.604 27.0337 120.856 27.1394C121.086 27.2396 121.289 27.3929 121.45 27.5869" fill="#6C707C"/>
    <path d="M117.722 27.6274C117.839 27.826 117.9 28.0527 117.9 28.2835C117.9 28.5144 117.839 28.7411 117.722 28.9397C117.599 29.1306 117.421 29.2797 117.213 29.3678C116.968 29.4712 116.704 29.5216 116.438 29.5157H115.758V30.4546H114.977V27.0496H116.438C116.704 27.0426 116.968 27.0937 117.213 27.1993C117.42 27.2896 117.597 27.4382 117.722 27.6274ZM117.11 28.2862C117.116 28.204 117.104 28.1214 117.074 28.0448C117.043 27.9682 116.996 27.8996 116.936 27.844C116.781 27.7317 116.592 27.678 116.401 27.6925H115.767V28.8745H116.401C116.592 28.8866 116.78 28.8325 116.936 28.7213C116.996 28.6672 117.044 28.5998 117.074 28.5244C117.104 28.4489 117.117 28.3674 117.11 28.2862Z" fill="#6C707C"/>
    <path d="M99.1387 7.96866H104.791V14.2415L109.54 7.96866H114.765V21.8584H109.111V15.5626L104.388 21.8584H99.1387V7.96866Z" fill="#6C707C"/>
    <path d="M112.513 28.4218H114.078V29.0348H112.513V29.8222H114.346V30.4564H111.737V27.0496H114.285V27.6802H112.513V28.4218Z" fill="#6C707C"/>
    <path d="M111.122 29.4981C111.128 29.6348 111.099 29.7707 111.04 29.8936C110.981 30.0166 110.892 30.1228 110.782 30.2027C110.494 30.3893 110.154 30.4775 109.812 30.4546H108.151V27.0496H109.719C110.041 27.0299 110.361 27.1098 110.636 27.2786C110.741 27.3494 110.827 27.4467 110.884 27.561C110.941 27.6752 110.968 27.8025 110.962 27.9303C110.965 28.0877 110.922 28.2425 110.836 28.3743C110.75 28.5064 110.63 28.6119 110.488 28.679C110.672 28.7285 110.837 28.8336 110.96 28.9802C111.072 29.1289 111.129 29.3116 111.124 29.4981M110.333 29.4329C110.333 29.1511 110.158 29.0102 109.784 29.0102H108.928V29.8716H109.784C110.151 29.8716 110.333 29.7253 110.333 29.4329ZM110.04 28.3566C110.08 28.3177 110.113 28.2711 110.135 28.2194C110.157 28.1678 110.169 28.1122 110.17 28.0559C110.171 27.9995 110.161 27.9435 110.141 27.8911C110.12 27.8387 110.089 27.791 110.05 27.7507L110.04 27.7401C109.928 27.6612 109.793 27.6233 109.657 27.6326H108.93V28.4606H109.657C109.793 28.4699 109.928 28.4334 110.042 28.3566" fill="#6C707C"/>
    <path d="M107.312 30.4546H106.544V28.2421L104.935 30.4546H104.198V27.0496H104.974V29.2691L106.582 27.0496H107.312V30.4546Z" fill="#6C707C"/>
    <path d="M104.167 35.9363V33.7221L102.558 35.9363H101.821V32.5313H102.596V34.7508L104.205 32.5313H104.939V35.9363H104.167Z" fill="#6C707C"/>
    <path d="M100.263 27.0496H101.044V28.3919H102.576V27.0496H103.356V30.4546H102.576V29.0577H101.044V30.4546H100.263V27.0496Z" fill="#6C707C"/>
    <path d="M100.214 35.9363V33.7221L98.6071 35.9363H97.8699V32.5313H98.6454V34.7508L100.254 32.5313H100.984V35.9363H100.214Z" fill="#6C707C"/>
    <path d="M99.8933 27.0496L98.459 29.7447C98.3423 29.9791 98.1713 30.1816 97.9606 30.3349C97.7747 30.4648 97.554 30.5343 97.3279 30.5339C97.1392 30.5315 96.9528 30.4921 96.779 30.4176L96.9672 29.8187C97.0758 29.8557 97.189 29.8771 97.3035 29.8821C97.3948 29.8828 97.4845 29.8584 97.5632 29.8117C97.6488 29.7537 97.7213 29.678 97.7758 29.5897L97.8037 29.551L96.4757 27.0496H97.3088L98.2046 28.8798L99.1283 27.0496H99.8933Z" fill="#6C707C"/>
    <path d="M90.043 4.08447L97.7358 21.8583H91.6011L90.416 18.7616H83.7376L82.5577 21.8583H76.5276L84.2151 4.08447H90.043ZM88.7882 14.444L87.0803 9.97504L85.3706 14.444H88.7882Z" fill="#6C707C"/>
    <path d="M96.8311 33.169C97.1084 33.4307 97.2714 33.7929 97.2845 34.1761C97.2976 34.5592 97.1596 34.932 96.9009 35.2123C96.8782 35.237 96.8555 35.2599 96.8311 35.2828C96.5279 35.54 96.0939 35.6844 95.5258 35.7144V36.0825H94.8078V35.7091C94.2361 35.6756 93.7987 35.5329 93.4954 35.2722C93.2185 35.0136 93.0544 34.6546 93.039 34.2738C93.0237 33.8931 93.1583 33.5217 93.4135 33.2412C93.4396 33.213 93.4675 33.1848 93.4954 33.1584C93.7987 32.9048 94.2361 32.7586 94.8078 32.7233V32.371H95.5258V32.7233C96.0939 32.755 96.5279 32.8995 96.8311 33.1619M96.2856 34.8283C96.3709 34.7515 96.4378 34.656 96.4813 34.5492C96.5248 34.4424 96.5437 34.3271 96.5366 34.2118C96.5366 33.6922 96.1985 33.405 95.5258 33.3469V35.0926C95.7998 35.0848 96.0649 34.9926 96.2856 34.8283ZM94.8078 35.0926V33.3469C94.5332 33.3543 94.2671 33.4451 94.0444 33.6076C93.9599 33.6834 93.8937 33.7777 93.8508 33.8834C93.8079 33.989 93.7894 34.1031 93.7969 34.2171C93.7969 34.7297 94.135 35.0221 94.8078 35.0978" fill="#6C707C"/>
    <path d="M94.6509 30.4546H93.8806V28.2421L92.272 30.4546H91.5348V27.0496H92.3103V29.2691L93.9189 27.0496H94.6509V30.4546Z" fill="#6C707C"/>
    <path d="M93.4849 26.086H94.0253C94.0305 26.1904 94.0117 26.2947 93.9702 26.3906C93.9287 26.4865 93.8656 26.5716 93.7859 26.6392C93.5966 26.7718 93.3691 26.8386 93.1382 26.8294V26.4401C93.2285 26.4382 93.3157 26.4066 93.3864 26.3503C93.4217 26.3161 93.4495 26.275 93.468 26.2295C93.4864 26.184 93.4952 26.1351 93.4937 26.086" fill="#6C707C"/>
    <path d="M93.1382 26.4401V26.8294H93.0825C92.4655 26.8294 92.1553 26.5793 92.1483 26.0843H92.6816C92.6816 26.3203 92.8228 26.4366 93.0825 26.4366H93.1295" fill="#6C707C"/>
    <path d="M91.3884 32.5313L92.8959 35.9363H92.0785L91.7788 35.2071H90.2102L89.9122 35.9363H89.114L90.6146 32.5313H91.3884ZM91.5348 34.6081L90.998 33.3046L90.4647 34.6081H91.5348Z" fill="#6C707C"/>
    <path d="M90.6983 27.0496H89.9227V30.4546H90.6983V27.0496Z" fill="#6C707C"/>
    <path d="M89.494 29.2744C89.5044 29.4395 89.4771 29.6047 89.4142 29.7574C89.3513 29.9102 89.2546 30.0462 89.1315 30.1552C88.836 30.3738 88.474 30.481 88.1085 30.4582H86.5818V27.0496H87.3573V28.1682H88.2148C88.5524 28.1465 88.887 28.2443 89.1611 28.4447C89.2748 28.5475 89.3635 28.6753 89.4207 28.8182C89.4778 28.9611 89.5017 29.1154 89.4905 29.2691M88.7045 29.2832C88.7045 28.9309 88.4919 28.7548 88.0614 28.7548H87.3643V29.8751H88.0614C88.2323 29.8857 88.401 29.8324 88.5355 29.7254C88.5946 29.6697 88.6408 29.6015 88.671 29.5257C88.7011 29.4499 88.7143 29.3683 88.7097 29.2867" fill="#6C707C"/>
    <path d="M88.9711 33.1109C89.0852 33.31 89.1454 33.536 89.1454 33.7661C89.1454 33.9963 89.0852 34.2223 88.9711 34.4214C88.8472 34.6119 88.6701 34.7609 88.4622 34.8495C88.217 34.9537 87.9526 35.0042 87.6867 34.9974H87.007V35.9363H86.2332V32.5313H87.6919C87.958 32.5243 88.2226 32.5754 88.4674 32.6811C88.675 32.7709 88.852 32.9203 88.9763 33.1109M88.3663 33.7661C88.3706 33.6834 88.3562 33.6007 88.3242 33.5244C88.2922 33.4481 88.2434 33.3802 88.1816 33.3258C88.0264 33.2145 87.8382 33.1604 87.6483 33.1725H87.0122V34.3562H87.6483C87.8385 34.3686 88.027 34.3138 88.1816 34.2012C88.2438 34.1482 88.2928 34.0813 88.3249 34.0058C88.357 33.9302 88.3711 33.8482 88.3663 33.7661Z" fill="#6C707C"/>
    <path d="M84.1436 33.1725L84.1471 35.9363H83.3716V32.5313H85.7505L85.7453 33.1725H84.1436Z" fill="#6C707C"/>
    <path d="M82.6517 27.0496H83.4325V28.3919H84.9627V27.0496H85.7435V30.4546H84.9627V29.0577H83.4325V30.4546H82.6517V27.0496Z" fill="#6C707C"/>
    <path d="M82.5298 33.3311C82.6475 33.5261 82.726 33.7426 82.7609 33.9683C82.7958 34.1939 82.7864 34.4244 82.7331 34.6463C82.6799 34.8683 82.5839 35.0775 82.4506 35.262C82.3173 35.4465 82.1494 35.6026 81.9564 35.7214C81.9302 35.7373 81.9041 35.7531 81.8762 35.7672C81.583 35.9167 81.2591 35.9945 80.9307 35.9945C80.6023 35.9945 80.2785 35.9167 79.9853 35.7672C79.7126 35.6221 79.4847 35.4039 79.3265 35.1366C79.1697 34.8621 79.0872 34.5508 79.0872 34.2338C79.0872 33.9169 79.1697 33.6056 79.3265 33.3311C79.4843 33.0639 79.7124 32.8462 79.9853 32.7022C80.2778 32.5503 80.6019 32.4711 80.9307 32.4711C81.2596 32.4711 81.5837 32.5503 81.8762 32.7022C82.1484 32.8472 82.3762 33.0647 82.535 33.3311M81.986 34.233C81.9898 34.0361 81.9423 33.8417 81.8483 33.6693C81.7612 33.5069 81.6299 33.3731 81.4701 33.2835C81.3055 33.1908 81.1201 33.1421 80.9316 33.1421C80.7431 33.1421 80.5578 33.1908 80.3931 33.2835C80.234 33.3741 80.1031 33.5077 80.0149 33.6693C79.9248 33.8435 79.8777 34.0372 79.8777 34.2338C79.8777 34.4305 79.9248 34.6242 80.0149 34.7984C80.1035 34.9602 80.2343 35.0942 80.3931 35.1859C80.5586 35.2761 80.7436 35.3234 80.9316 35.3234C81.1196 35.3234 81.3047 35.2761 81.4701 35.1859C81.6297 35.0952 81.7607 34.9609 81.8483 34.7984C81.9423 34.6253 81.9897 34.4304 81.986 34.233Z" fill="#6C707C"/>
    <path d="M78.7183 27.0496H79.499V28.3919H81.0292V27.0496H81.81V30.4546H81.0292V29.0577H79.499V30.4546H78.7183V27.0496Z" fill="#6C707C"/>
    <path d="M79.5669 4.08447V8.72964H72.0066V21.8583H66.1787V4.08447H79.5669Z" fill="#6C707C"/>
    <path d="M78.8751 32.5313V33.1725H77.798V35.9363H77.026V33.1725H75.9524V32.5313H78.8751Z" fill="#6C707C"/>
    <path d="M76.2539 28.4218H77.819V29.0348H76.2539V29.8222H78.0891V30.4564H75.4784V27.0496H78.0264V27.6802H76.2539V28.4218Z" fill="#6C707C"/>
    <path d="M75.6979 33.1109C75.8121 33.31 75.8722 33.536 75.8722 33.7661C75.8722 33.9963 75.8121 34.2223 75.6979 34.4214C75.574 34.6119 75.3969 34.7609 75.189 34.8495C74.9438 34.9537 74.6794 35.0042 74.4135 34.9974H73.732V35.9363H72.953V32.5313H74.4135C74.6796 32.5243 74.9442 32.5754 75.189 32.6811C75.3966 32.7709 75.5736 32.9203 75.6979 33.1109ZM75.0792 33.7661C75.086 33.6833 75.0738 33.6 75.0436 33.5227C75.0134 33.4454 74.9659 33.3762 74.9049 33.3205C74.7498 33.2092 74.5615 33.1551 74.3716 33.1672H73.7338V34.351H74.3716C74.5612 34.3651 74.7498 34.3122 74.9049 34.2012C74.9668 34.1481 75.0155 34.0811 75.0473 34.0055C75.079 33.93 75.093 33.8481 75.0879 33.7661" fill="#6C707C"/>
    <path d="M74.8615 29.4981C74.867 29.6346 74.839 29.7704 74.78 29.8934C74.7211 30.0163 74.6329 30.1226 74.5234 30.2027C74.2347 30.3893 73.8945 30.4775 73.5526 30.4546H71.8917V27.0496H73.4602C73.7817 27.0308 74.1012 27.1107 74.377 27.2786C74.4816 27.3503 74.5664 27.4478 74.6234 27.5618C74.6804 27.6758 74.7078 27.8027 74.7029 27.9304C74.7063 28.0877 74.6626 28.2425 74.5774 28.3743C74.4913 28.5065 74.3706 28.6119 74.2288 28.679C74.4124 28.7285 74.5766 28.8336 74.6994 28.9802C74.8109 29.1289 74.8687 29.3117 74.8632 29.4981M74.0737 29.4329C74.0737 29.1511 73.8994 29.0102 73.5247 29.0102H72.669V29.8716H73.5247C73.8925 29.8716 74.0737 29.7254 74.0737 29.4329ZM73.7809 28.3566C73.8212 28.3177 73.8535 28.2711 73.8759 28.2195C73.8983 28.1678 73.9103 28.1122 73.9113 28.0559C73.9122 27.9995 73.9021 27.9435 73.8816 27.8911C73.861 27.8388 73.8303 27.791 73.7914 27.7507L73.7809 27.7401C73.6689 27.6612 73.5337 27.6233 73.3975 27.6326H72.6708V28.4606H73.3975C73.5337 28.47 73.6692 28.4334 73.7827 28.3566" fill="#6C707C"/>
    <path d="M70.9976 32.5313L72.5051 35.9363H71.6877L71.3897 35.2071H69.8212L69.5214 35.9363H68.8051L68.7563 35.8606L70.2255 32.5313H70.9976ZM71.144 34.6081L70.609 33.3046L70.0739 34.6081H71.144Z" fill="#6C707C"/>
    <path d="M68.4792 27.0496H71.4019V27.6925H70.3231V30.4546H69.5511V27.6925H68.4792V27.0496Z" fill="#6C707C"/>
    <path d="M68.7267 35.9363L68.7598 35.8606L68.8086 35.9363H68.7267Z" fill="#6C707C"/>
    <path d="M67.9215 35.9363L67.0449 34.5641H66.5064V35.9363H65.7308V32.5313H66.5064V33.9088H67.0658L67.9512 32.5313H68.7755L67.6723 34.1748L68.7598 35.8606L68.7267 35.9363H67.9215Z" fill="#6C707C"/>
    <path d="M68.3485 27.5939L67.8483 28.0607C67.7456 27.9345 67.6162 27.8333 67.4696 27.7644C67.323 27.6955 67.163 27.6607 67.0013 27.6626C66.806 27.6588 66.6132 27.7068 66.4419 27.8017C66.281 27.8916 66.1481 28.0253 66.0585 28.1875C65.9695 28.3621 65.9231 28.5557 65.9231 28.7521C65.9231 28.9485 65.9695 29.1421 66.0585 29.3167C66.1481 29.4789 66.281 29.6126 66.4419 29.7024C66.613 29.7979 66.8059 29.8465 67.0013 29.8434C67.1636 29.8451 67.3242 29.8095 67.471 29.7393C67.6177 29.6691 67.7467 29.5662 67.8483 29.4382L68.3485 29.905C68.1888 30.103 67.9836 30.2584 67.7507 30.3577C67.4994 30.465 67.2288 30.5184 66.956 30.5145C66.6318 30.5195 66.3116 30.4414 66.0254 30.2873C65.7538 30.1427 65.527 29.925 65.3701 29.6584C65.215 29.3817 65.1335 29.0692 65.1335 28.7512C65.1335 28.4332 65.215 28.1207 65.3701 27.844C65.5271 27.5779 65.7539 27.3609 66.0254 27.2169C66.3137 27.0636 66.6355 26.986 66.9612 26.9914C67.2333 26.9879 67.5031 27.0407 67.7542 27.1465C67.9845 27.246 68.1882 27.3994 68.3485 27.5939Z" fill="#6C707C"/>
    <path d="M64.6225 27.6274C64.738 27.8263 64.7989 28.0529 64.7989 28.2835C64.7989 28.5142 64.738 28.7407 64.6225 28.9397C64.4986 29.1302 64.3214 29.2792 64.1136 29.3678C63.8677 29.472 63.6028 29.5225 63.3363 29.5157H62.6583V30.4546H61.8776V27.0496H63.3363C63.603 27.0426 63.8681 27.0936 64.1136 27.1993C64.3198 27.2906 64.4962 27.439 64.6225 27.6274ZM64.0108 28.2862C64.0158 28.2032 64.0019 28.1202 63.9702 28.0436C63.9384 27.9669 63.8897 27.8987 63.8278 27.844C63.6725 27.7317 63.4831 27.678 63.2927 27.6925H62.6583V28.8745H63.2927C63.4831 28.8866 63.6719 28.8325 63.8278 28.7213C63.8889 28.6675 63.9371 28.6004 63.9688 28.525C64.0005 28.4496 64.0148 28.368 64.0108 28.2862Z" fill="#6C707C"/>
    <path d="M62.7698 35.9363V33.7221L61.163 35.9363H60.4258V32.5313H61.2013V34.7508L62.8099 32.5313H63.5402V35.9363H62.7698Z" fill="#6C707C"/>
    <path d="M51.4312 13.3272L52.9649 10.9844L57.6373 4.08447H63.0627V21.8583H57.2347V12.642L51.2064 21.8583H45.6521H45.6033V4.08447H51.4312V13.2497V13.3272Z" fill="#6C707C"/>
    <path d="M59.9169 27.0496L61.4227 30.4546H60.614L60.3142 29.7254H58.7457L58.4477 30.4546H57.6512L59.1518 27.0496H59.9169ZM60.0615 29.1282L59.5248 27.8229L58.9915 29.1282H60.0615Z" fill="#6C707C"/>
    <path d="M57.456 35.9363V33.7221L55.8474 35.9363H55.1102V32.5313H55.8875V34.7508L57.4944 32.5313H58.2264V35.9363H57.456Z" fill="#6C707C"/>
    <path d="M57.4769 29.8135V31.161H56.7536V30.4564H54.3765V31.161H53.6532V29.8135H53.7891C53.9913 29.8135 54.1377 29.6567 54.2161 29.3643C54.3156 28.9554 54.3676 28.5363 54.3712 28.1153L54.4096 27.0584H56.9994V29.8223L57.4769 29.8135ZM56.2343 29.8135V27.689H55.0788L55.0649 28.184C55.0548 28.5254 55.021 28.8656 54.9638 29.2022C54.9347 29.4212 54.8534 29.6298 54.7268 29.8099L56.2343 29.8135Z" fill="#6C707C"/>
    <path d="M53.5034 35.9363V33.7221L51.8948 35.9363H51.1593V32.5313H51.9331V34.7508L53.5417 32.5313H54.2737V35.9363H53.5034Z" fill="#6C707C"/>
    <path d="M53.6829 27.0496L52.2486 29.7447C52.1319 29.9791 51.9609 30.1816 51.7501 30.3349C51.5643 30.4648 51.3435 30.5343 51.1175 30.5339C50.9288 30.5315 50.7423 30.4921 50.5685 30.4176L50.755 29.8187C50.8642 29.8556 50.978 29.8769 51.0931 29.8821C51.1844 29.8828 51.2741 29.8584 51.3528 29.8117C51.4383 29.7537 51.5108 29.678 51.5654 29.5897L51.5933 29.551L50.2653 27.0496H51.0983L51.9924 28.8798L52.9178 27.0496H53.6829Z" fill="#6C707C"/>
    <path d="M50.375 34.4796C50.4892 34.631 50.5481 34.8178 50.5417 35.0081C50.5354 35.1985 50.4642 35.3808 50.3401 35.5241C50.1906 35.687 50.0021 35.8083 49.7929 35.8764C49.5509 35.9613 49.2961 36.003 49.04 35.9997C48.8049 35.9995 48.5707 35.97 48.3429 35.9117C48.1143 35.8536 47.8949 35.7635 47.691 35.6439L47.9316 35.0785C48.083 35.1721 48.2475 35.2422 48.4195 35.2863C48.5901 35.3326 48.7658 35.3562 48.9424 35.3568C49.1421 35.3636 49.3404 35.32 49.5192 35.23C49.5866 35.1994 49.6439 35.15 49.6843 35.0875C49.7248 35.0251 49.7467 34.9523 49.7476 34.8777C49.7491 34.8203 49.7353 34.7635 49.7078 34.7133C49.6802 34.6631 49.6397 34.6213 49.5907 34.5923C49.4606 34.5205 49.3135 34.4863 49.1655 34.4937H48.3411V33.9H49.1114C49.2416 33.9074 49.3707 33.8735 49.4809 33.8031C49.5229 33.7729 49.5568 33.7326 49.5796 33.6859C49.6024 33.6392 49.6134 33.5875 49.6116 33.5354C49.6113 33.4708 49.5934 33.4076 49.5599 33.3526C49.5264 33.2976 49.4785 33.253 49.4216 33.2236C49.2718 33.1428 49.1034 33.1038 48.9337 33.1109C48.779 33.1128 48.6251 33.1335 48.4753 33.1725C48.3191 33.2115 48.1686 33.2707 48.0274 33.3487L47.7904 32.7357C48.148 32.5491 48.5452 32.4536 48.9476 32.4574C49.1952 32.456 49.4413 32.4959 49.6761 32.5754C49.8765 32.6412 50.0566 32.7583 50.1989 32.9153C50.3292 33.0594 50.3997 33.2486 50.3959 33.4438C50.3995 33.5992 50.3537 33.7518 50.2652 33.8789C50.1785 34.0071 50.0577 34.1079 49.9166 34.1695C50.0973 34.2276 50.2568 34.3385 50.375 34.4884" fill="#6C707C"/>
    <path d="M50.1973 27.5939L49.6971 28.0607C49.5944 27.9345 49.465 27.8332 49.3184 27.7643C49.1718 27.6954 49.0118 27.6607 48.8501 27.6626C48.6548 27.6588 48.4619 27.7068 48.2907 27.8017C48.1293 27.8911 47.9964 28.0249 47.9073 28.1875C47.8172 28.3618 47.7701 28.5555 47.7701 28.7521C47.7701 28.9487 47.8172 29.1424 47.9073 29.3167C47.9964 29.4793 48.1293 29.6131 48.2907 29.7024C48.4618 29.7979 48.6547 29.8465 48.8501 29.8434C49.0124 29.8451 49.173 29.8095 49.3197 29.7393C49.4665 29.6691 49.5955 29.5662 49.6971 29.4382L50.1973 29.905C50.0375 30.1022 49.8331 30.2574 49.6013 30.3577C49.3499 30.4649 49.0793 30.5183 48.8066 30.5145C48.4818 30.5191 48.1612 30.4409 47.8742 30.2873C47.6024 30.1436 47.3759 29.9257 47.2206 29.6584C47.063 29.3826 46.9801 29.0697 46.9801 28.7512C46.9801 28.4327 47.063 28.1198 47.2206 27.844C47.376 27.5772 47.6025 27.3599 47.8742 27.2169C48.1625 27.0636 48.4843 26.986 48.81 26.9914C49.0821 26.9879 49.3519 27.0407 49.603 27.1465C49.833 27.2466 50.0365 27.3999 50.1973 27.5939Z" fill="#6C707C"/>
    <path d="M47.0985 33.9036V34.5166H45.5352V35.3039H47.3686V35.9363H44.7596V32.5313H47.3076V33.1637H45.5352V33.9036H47.0985Z" fill="#6C707C"/>
    <path d="M46.3684 27.8493C46.5258 28.1236 46.6088 28.435 46.6088 28.7521C46.6088 29.0692 46.5258 29.3807 46.3684 29.6549C46.2099 29.9214 45.9828 30.1393 45.7113 30.2855C45.4183 30.4357 45.0944 30.5139 44.7659 30.5139C44.4373 30.5139 44.1134 30.4357 43.8204 30.2855C43.5469 30.1409 43.3183 29.9227 43.1599 29.6549C43.0031 29.3804 42.9205 29.0691 42.9205 28.7521C42.9205 28.4352 43.0031 28.1238 43.1599 27.8493C43.3183 27.5816 43.5469 27.3633 43.8204 27.2187C44.1136 27.0693 44.4374 26.9914 44.7659 26.9914C45.0943 26.9914 45.4181 27.0693 45.7113 27.2187C45.9828 27.3649 46.2099 27.5829 46.3684 27.8493ZM45.8194 28.746C45.8229 28.5494 45.776 28.3552 45.6834 28.1823C45.5949 28.0205 45.464 27.8865 45.3052 27.7947C45.1395 27.7045 44.9541 27.6573 44.7659 27.6573C44.5776 27.6573 44.3922 27.7045 44.2265 27.7947C44.0677 27.8865 43.9368 28.0205 43.8483 28.1823C43.7582 28.3565 43.7111 28.5502 43.7111 28.7468C43.7111 28.9435 43.7582 29.1372 43.8483 29.3114C43.9379 29.4737 44.0707 29.6074 44.2317 29.6972C44.3967 29.7899 44.5823 29.8385 44.7711 29.8385C44.9598 29.8385 45.1455 29.7899 45.3105 29.6972C45.4695 29.6066 45.6005 29.473 45.6887 29.3114C45.7821 29.1382 45.8289 28.9432 45.8246 28.746" fill="#6C707C"/>
    <path d="M44.2316 35.2951V36.6427H43.5101V35.9381H41.1329V36.6427H40.4114V35.2951H40.5456C40.7477 35.2951 40.8941 35.1401 40.9743 34.8477C41.0732 34.4383 41.1247 34.0185 41.1277 33.5971L41.1678 32.5402H43.7576V35.304L44.2316 35.2951ZM42.9907 35.2951V33.1725H41.8352L41.8196 33.6693C41.8103 34.0113 41.7766 34.3521 41.7185 34.6892C41.6908 34.9077 41.61 35.1159 41.4832 35.2951H42.9907Z" fill="#6C707C"/>
    <path d="M43.0186 27.6925H41.4152L41.4204 30.4546H40.6449V27.0496H43.0238L43.0186 27.6925Z" fill="#6C707C"/>
    <path d="M25.0277 4.08447H30.8556V13.3272L36.9119 4.08447H42.4871V21.8583H36.6592V12.642L30.6308 21.8583H25.0277V4.08447Z" fill="#6C707C"/>
    <path d="M40.0123 33.3311C40.2492 33.7251 40.3215 34.1982 40.2133 34.6461C40.1051 35.0941 39.8253 35.4802 39.4355 35.7197L39.3518 35.7672C39.0586 35.9167 38.7347 35.9945 38.4063 35.9945C38.0779 35.9945 37.7541 35.9167 37.4609 35.7672C37.1882 35.6221 36.9603 35.4039 36.8021 35.1366C36.6453 34.8621 36.5627 34.5508 36.5627 34.2338C36.5627 33.9169 36.6453 33.6055 36.8021 33.3311C36.9599 33.0639 37.1879 32.8462 37.4609 32.7022C37.7534 32.5503 38.0775 32.4711 38.4063 32.4711C38.7352 32.4711 39.0593 32.5503 39.3518 32.7022C39.624 32.8472 39.8518 33.0647 40.0106 33.3311M39.4616 34.233C39.4651 34.0364 39.4182 33.8422 39.3257 33.6693C39.2365 33.5085 39.1058 33.3751 38.9475 33.2835C38.7824 33.1911 38.5968 33.1427 38.4081 33.1427C38.2194 33.1427 38.0338 33.1911 37.8687 33.2835C37.7087 33.3735 37.5771 33.5072 37.4887 33.6693C37.3998 33.8439 37.3534 34.0374 37.3534 34.2338C37.3534 34.4302 37.3998 34.6238 37.4887 34.7984C37.578 34.9602 37.7094 35.0942 37.8687 35.1859C38.0329 35.2794 38.2188 35.3268 38.4072 35.3233C38.596 35.3257 38.7822 35.2784 38.9475 35.1859C39.1055 35.0932 39.2361 34.9594 39.3257 34.7984C39.4181 34.6248 39.4649 34.4301 39.4616 34.233Z" fill="#6C707C"/>
    <path d="M38.4437 30.4546H37.6752V28.2421L36.0666 30.4546H35.3293V27.0496H36.1049V29.2691L37.7135 27.0496H38.4437V30.4546Z" fill="#6C707C"/>
    <path d="M37.2778 26.086H37.8181C37.8237 26.1903 37.8052 26.2945 37.764 26.3904C37.7228 26.4864 37.66 26.5715 37.5805 26.6392C37.3907 26.7721 37.1625 26.839 36.931 26.8294V26.4401C37.0219 26.4385 37.1098 26.4069 37.181 26.3503C37.2166 26.3165 37.2445 26.2753 37.2627 26.2297C37.2809 26.1841 37.2891 26.1351 37.2866 26.086" fill="#6C707C"/>
    <path d="M36.931 26.4401V26.8294H36.877C36.2601 26.8294 35.9481 26.5793 35.9429 26.0843H36.4762C36.4762 26.3203 36.6156 26.4366 36.877 26.4366H36.9223" fill="#6C707C"/>
    <path d="M35.9098 33.9036V34.5166H34.3448V35.3039H36.1799V35.9363H33.5692V32.5313H36.1172V33.1637H34.3448V33.9036H35.9098Z" fill="#6C707C"/>
    <path d="M34.4911 30.4546H33.7208V28.2421L32.1139 30.4546H31.3767V27.0496H32.1505V29.2691L33.7591 27.0496H34.4911V30.4546Z" fill="#6C707C"/>
    <path d="M31.4865 33.1725L31.49 35.9363H30.7145V32.5313H33.0934L33.0882 33.1725H31.4865Z" fill="#6C707C"/>
    <path d="M28.7085 30.4546H27.9347V27.0496H28.7085V28.4253H29.2679L30.1533 27.0496H30.9776L29.8744 28.6949L31.0125 30.4546H30.1254L29.2488 29.0842H28.7085V30.4546Z" fill="#6C707C"/>
    <path d="M27.4345 27.5939L26.9326 28.0607C26.8299 27.9345 26.7004 27.8333 26.5539 27.7644C26.4073 27.6955 26.2473 27.6607 26.0856 27.6626C25.8908 27.6588 25.6985 27.7068 25.5279 27.8018C25.3659 27.8902 25.2327 28.0242 25.1445 28.1875C25.0555 28.3621 25.0091 28.5557 25.0091 28.7521C25.0091 28.9485 25.0555 29.1421 25.1445 29.3167C25.2327 29.4801 25.3659 29.6141 25.5279 29.7025C25.6984 29.798 25.8907 29.8465 26.0856 29.8434C26.2479 29.8451 26.4085 29.8095 26.5552 29.7393C26.702 29.6691 26.831 29.5662 26.9326 29.4382L27.4345 29.905C27.2742 30.1024 27.0692 30.2577 26.8367 30.3578C26.5854 30.465 26.3148 30.5184 26.042 30.5145C25.7173 30.5191 25.3966 30.4409 25.1096 30.2873C24.8386 30.1426 24.6124 29.9249 24.4561 29.6584C24.2994 29.3823 24.2169 29.0695 24.2169 28.7512C24.2169 28.4329 24.2994 28.1202 24.4561 27.844C24.6129 27.5784 24.839 27.3615 25.1096 27.2169C25.3986 27.0637 25.721 26.9862 26.0473 26.9915C26.3193 26.988 26.5891 27.0407 26.8402 27.1465C27.0702 27.2467 27.2737 27.3999 27.4345 27.5939Z" fill="#6C707C"/>
    <path d="M23.8408 29.4981C23.8461 29.6348 23.8179 29.7707 23.7586 29.8936C23.6993 30.0166 23.6108 30.1228 23.5009 30.2027C23.2123 30.3893 22.8721 30.4775 22.5302 30.4546H20.8606V27.0496H22.4291C22.75 27.0309 23.0689 27.1107 23.3441 27.2786C23.4495 27.3496 23.535 27.4469 23.5924 27.5611C23.6498 27.6752 23.6771 27.8024 23.6717 27.9303C23.6752 28.0877 23.6314 28.2425 23.5463 28.3743C23.4598 28.5061 23.3392 28.6115 23.1977 28.679C23.3826 28.7267 23.5479 28.8321 23.67 28.9802C23.7815 29.1289 23.8393 29.3116 23.8338 29.4981M23.0443 29.4329C23.0443 29.1511 22.87 29.0102 22.4936 29.0102H21.6396V29.8716H22.4936C22.8613 29.8716 23.0443 29.7253 23.0443 29.4329ZM22.7515 28.3566C22.7952 28.3185 22.8296 28.2707 22.8519 28.2169C22.8743 28.1631 22.8841 28.1048 22.8805 28.0466C22.8842 27.9885 22.8741 27.9304 22.8511 27.8771C22.8281 27.8238 22.7927 27.7768 22.7481 27.7401C22.6361 27.6612 22.5008 27.6233 22.3646 27.6326H21.6396V28.4606H22.3646C22.5014 28.4698 22.6374 28.4333 22.7515 28.3566Z" fill="#6C707C"/>
    <path d="M5.7087 4.08447L11.4373 13.5562L17.0143 4.08447H21.8889L21.9377 21.8583H16.5367L16.4862 13.7588L12.6677 20.2589H10.0552L6.23676 14.0371V21.8583H0.835815V4.08447H5.7087Z" fill="#6C707C"/>
    <path d="M20.0189 27.8493C20.1763 28.1236 20.2593 28.435 20.2593 28.7521C20.2593 29.0692 20.1763 29.3807 20.0189 29.6549C19.8592 29.921 19.6317 30.1389 19.3601 30.2855C19.0671 30.4357 18.7432 30.5139 18.4146 30.5139C18.0861 30.5139 17.7622 30.4357 17.4692 30.2855C17.1965 30.1404 16.9686 29.9222 16.8104 29.6549C16.6536 29.3804 16.571 29.0691 16.571 28.7521C16.571 28.4352 16.6536 28.1238 16.8104 27.8493C16.9681 27.5816 17.1961 27.3633 17.4692 27.2187C17.7624 27.0693 18.0862 26.9914 18.4146 26.9914C18.743 26.9914 19.0669 27.0693 19.3601 27.2187C19.632 27.3649 19.8597 27.5828 20.0189 27.8493ZM19.4699 28.746C19.4736 28.5491 19.4262 28.3547 19.3322 28.1823C19.2436 28.0205 19.1128 27.8865 18.954 27.7947C18.7885 27.7045 18.6035 27.6573 18.4155 27.6573C18.2275 27.6573 18.0424 27.7045 17.877 27.7947C17.7173 27.8859 17.5858 28.0201 17.497 28.1823C17.4081 28.3569 17.3617 28.5504 17.3617 28.7468C17.3617 28.9432 17.4081 29.1368 17.497 29.3114C17.5854 29.4735 17.717 29.6072 17.877 29.6972C18.0416 29.7899 18.227 29.8386 18.4155 29.8386C18.604 29.8386 18.7894 29.7899 18.954 29.6972C19.1135 29.6071 19.2446 29.4734 19.3322 29.3114C19.4262 29.1383 19.4736 28.9434 19.4699 28.746Z" fill="#6C707C"/>
    <path d="M14.1543 30.4546H13.3788V27.0496H14.1543V28.4253H14.7138L15.5991 27.0496H16.4235L15.3203 28.6949L16.4566 30.4546H15.5695L14.6929 29.0842H14.1543V30.4546Z" fill="#6C707C"/>
    <path d="M12.8785 27.5939L12.3783 28.0607C12.2756 27.9345 12.1462 27.8333 11.9996 27.7644C11.853 27.6955 11.693 27.6607 11.5313 27.6626C11.336 27.6588 11.1432 27.7068 10.9719 27.8018C10.811 27.8916 10.6782 28.0253 10.5885 28.1875C10.4995 28.3621 10.4531 28.5557 10.4531 28.7521C10.4531 28.9485 10.4995 29.1421 10.5885 29.3167C10.6782 29.4789 10.811 29.6126 10.9719 29.7025C11.143 29.7979 11.3359 29.8465 11.5313 29.8434C11.6937 29.8451 11.8542 29.8095 12.001 29.7393C12.1477 29.6691 12.2767 29.5662 12.3783 29.4382L12.8785 29.905C12.7195 30.1029 12.5148 30.2584 12.2825 30.3578C12.0311 30.4649 11.7605 30.5183 11.4878 30.5145C11.1635 30.5196 10.8433 30.4414 10.5571 30.2873C10.2838 30.1438 10.0557 29.926 9.89834 29.6584C9.74163 29.3823 9.65918 29.0695 9.65918 28.7512C9.65918 28.4329 9.74163 28.1202 9.89834 27.844C10.0549 27.5775 10.2818 27.3604 10.5536 27.2169C10.8423 27.0606 11.1655 26.9806 11.493 26.9844C11.7644 26.981 12.0337 27.0337 12.2842 27.1394C12.5148 27.2385 12.7186 27.3919 12.8785 27.5869" fill="#6C707C"/>
    <path d="M9.05135 27.8493C9.28823 28.2434 9.36053 28.7165 9.25235 29.1644C9.14416 29.6124 8.86436 29.9985 8.47448 30.238L8.39256 30.2855C8.09953 30.4357 7.77562 30.5139 7.44709 30.5139C7.11857 30.5139 6.79466 30.4357 6.50162 30.2855C6.22896 30.1404 6.00106 29.9222 5.84284 29.6549C5.68606 29.3804 5.60352 29.0691 5.60352 28.7521C5.60352 28.4352 5.68606 28.1238 5.84284 27.8493C6.00056 27.5816 6.22859 27.3633 6.50162 27.2187C6.79486 27.0693 7.11869 26.9914 7.44709 26.9914C7.7755 26.9914 8.09932 27.0693 8.39256 27.2187C8.6645 27.3649 8.89216 27.5828 9.05135 27.8493ZM8.50411 28.746C8.50785 28.5491 8.46037 28.3547 8.36642 28.1823C8.27693 28.0188 8.14336 27.8844 7.98126 27.7947C7.81579 27.7045 7.63074 27.6573 7.44274 27.6573C7.25474 27.6573 7.06968 27.7045 6.90421 27.7947C6.74541 27.8865 6.61459 28.0205 6.52602 28.1823C6.43705 28.3569 6.39064 28.5504 6.39064 28.7468C6.39064 28.9432 6.43705 29.1368 6.52602 29.3114C6.61419 29.473 6.74515 29.6066 6.90421 29.6972C7.06888 29.7899 7.25425 29.8386 7.44274 29.8386C7.63123 29.8386 7.81659 29.7899 7.98126 29.6972C8.14108 29.6076 8.27228 29.4738 8.35945 29.3114C8.45582 29.139 8.5057 28.944 8.50411 28.746Z" fill="#6C707C"/>
    <path d="M2.92712 30.0953L1.93547 28.4553V30.4546H1.20349V27.0496H1.84833L3.11012 29.167L4.35274 27.0496H4.99758L5.0028 30.4546H4.26908L4.2656 28.4165L3.27394 30.0953H2.92712Z" fill="#6C707C"/>
    <path d="M0.835819 23.9348H45.6119V24.973H0.835819V23.9348Z" fill="#6C707C"/>
    <path d="M135.164 23.9349H90.3881V24.9731H135.164V23.9349Z" fill="#6C707C"/>
    <path d="M90.454 23.9348H45.5311V24.9731H90.454V23.9348Z" fill="#6C707C"/>
  </g>
  <defs>
    <clipPath id="clip0_15_245">
      <rect width="134.328" height="40" fill="white" transform="translate(0.835815)"/>
    </clipPath>
  </defs>
</svg>