<svg width="184" height="54" viewBox="0 0 184 54" fill="none" xmlns="http://www.w3.org/2000/svg">
<path d="M51.2093 11V0.818182H55.0275C55.8097 0.818182 56.466 0.964015 56.9963 1.25568C57.5299 1.54735 57.9326 1.94839 58.2044 2.45881C58.4795 2.96591 58.617 3.54261 58.617 4.18892C58.617 4.84186 58.4795 5.42187 58.2044 5.92898C57.9293 6.43608 57.5233 6.83546 56.9863 7.12713C56.4494 7.41548 55.7882 7.55966 55.0027 7.55966H52.4721V6.04332H54.7541C55.2115 6.04332 55.586 5.96378 55.8777 5.80469C56.1693 5.6456 56.3848 5.42685 56.524 5.14844C56.6665 4.87003 56.7377 4.55019 56.7377 4.18892C56.7377 3.82765 56.6665 3.50947 56.524 3.23438C56.3848 2.95928 56.1677 2.7455 55.8727 2.59304C55.581 2.43726 55.2048 2.35938 54.7441 2.35938H53.0538V11H51.2093ZM63.3612 11.1491C62.6154 11.1491 61.9691 10.9851 61.4222 10.657C60.8754 10.3288 60.4511 9.86979 60.1495 9.27983C59.8512 8.68987 59.7021 8.00047 59.7021 7.21165C59.7021 6.42282 59.8512 5.73177 60.1495 5.13849C60.4511 4.54522 60.8754 4.08452 61.4222 3.75639C61.9691 3.42827 62.6154 3.2642 63.3612 3.2642C64.1069 3.2642 64.7532 3.42827 65.3001 3.75639C65.8469 4.08452 66.2695 4.54522 66.5678 5.13849C66.8694 5.73177 67.0202 6.42282 67.0202 7.21165C67.0202 8.00047 66.8694 8.68987 66.5678 9.27983C66.2695 9.86979 65.8469 10.3288 65.3001 10.657C64.7532 10.9851 64.1069 11.1491 63.3612 11.1491ZM63.3711 9.70739C63.7754 9.70739 64.1135 9.59635 64.3853 9.37429C64.6571 9.14891 64.8593 8.8473 64.9918 8.46946C65.1277 8.09162 65.1957 7.67069 65.1957 7.20668C65.1957 6.73935 65.1277 6.31676 64.9918 5.93892C64.8593 5.55777 64.6571 5.2545 64.3853 5.02912C64.1135 4.80374 63.7754 4.69105 63.3711 4.69105C62.9568 4.69105 62.6121 4.80374 62.337 5.02912C62.0652 5.2545 61.8614 5.55777 61.7255 5.93892C61.5929 6.31676 61.5266 6.73935 61.5266 7.20668C61.5266 7.67069 61.5929 8.09162 61.7255 8.46946C61.8614 8.8473 62.0652 9.14891 62.337 9.37429C62.6121 9.59635 62.9568 9.70739 63.3711 9.70739ZM71.8787 11.1491C71.1164 11.1491 70.4618 10.9818 69.915 10.647C69.3714 10.3123 68.9521 9.84991 68.6571 9.25994C68.3655 8.66667 68.2196 7.9839 68.2196 7.21165C68.2196 6.43608 68.3688 5.75166 68.6671 5.15838C68.9654 4.56179 69.3863 4.09777 69.9299 3.76633C70.4767 3.43158 71.123 3.2642 71.8688 3.2642C72.4886 3.2642 73.0371 3.37855 73.5144 3.60724C73.995 3.83262 74.3778 4.15246 74.6628 4.56676C74.9479 4.97775 75.1103 5.45833 75.15 6.00852H73.4299C73.3603 5.64062 73.1945 5.33404 72.9327 5.08878C72.6742 4.8402 72.3278 4.71591 71.8936 4.71591C71.5257 4.71591 71.2026 4.81534 70.9242 5.0142C70.6458 5.20975 70.4287 5.49148 70.2729 5.85938C70.1204 6.22727 70.0442 6.66809 70.0442 7.18182C70.0442 7.70218 70.1204 8.14962 70.2729 8.52415C70.4254 8.89536 70.6391 9.18205 70.9142 9.38423C71.1926 9.5831 71.5191 9.68253 71.8936 9.68253C72.1588 9.68253 72.3958 9.63281 72.6046 9.53338C72.8167 9.43063 72.994 9.28314 73.1365 9.09091C73.2791 8.89867 73.3768 8.66501 73.4299 8.38991H75.15C75.1069 8.93016 74.9479 9.40909 74.6728 9.8267C74.3977 10.241 74.0231 10.5658 73.5492 10.8011C73.0752 11.0331 72.5184 11.1491 71.8787 11.1491ZM79.9588 11.1491C79.1965 11.1491 78.5419 10.9818 77.995 10.647C77.4515 10.3123 77.0322 9.84991 76.7372 9.25994C76.4455 8.66667 76.2997 7.9839 76.2997 7.21165C76.2997 6.43608 76.4489 5.75166 76.7472 5.15838C77.0455 4.56179 77.4664 4.09777 78.0099 3.76633C78.5568 3.43158 79.2031 3.2642 79.9489 3.2642C80.5687 3.2642 81.1172 3.37855 81.5945 3.60724C82.075 3.83262 82.4579 4.15246 82.7429 4.56676C83.0279 4.97775 83.1903 5.45833 83.2301 6.00852H81.5099C81.4403 5.64062 81.2746 5.33404 81.0128 5.08878C80.7543 4.8402 80.4079 4.71591 79.9737 4.71591C79.6058 4.71591 79.2827 4.81534 79.0043 5.0142C78.7259 5.20975 78.5088 5.49148 78.353 5.85938C78.2005 6.22727 78.1243 6.66809 78.1243 7.18182C78.1243 7.70218 78.2005 8.14962 78.353 8.52415C78.5054 8.89536 78.7192 9.18205 78.9943 9.38423C79.2727 9.5831 79.5992 9.68253 79.9737 9.68253C80.2389 9.68253 80.4759 9.63281 80.6847 9.53338C80.8968 9.43063 81.0741 9.28314 81.2166 9.09091C81.3591 8.89867 81.4569 8.66501 81.5099 8.38991H83.2301C83.187 8.93016 83.0279 9.40909 82.7528 9.8267C82.4777 10.241 82.1032 10.5658 81.6293 10.8011C81.1553 11.0331 80.5985 11.1491 79.9588 11.1491ZM86.443 8.56392L89.5005 3.36364H91.35V11H89.6099V5.79474L86.5623 11H84.7079V3.36364H86.443V8.56392ZM94.9332 8.56392L97.9908 3.36364H99.8402V11H98.1001V5.79474L95.0526 11H93.1982V3.36364H94.9332V8.56392ZM97.4986 0.738636H98.8459C98.8459 1.31865 98.6354 1.7893 98.2145 2.15057C97.7969 2.50852 97.2301 2.6875 96.5142 2.6875C95.8049 2.6875 95.2398 2.50852 94.8189 2.15057C94.4013 1.7893 94.1941 1.31865 94.1974 0.738636H95.5348C95.5348 0.977273 95.6077 1.19105 95.7536 1.37997C95.9027 1.56558 96.1562 1.65838 96.5142 1.65838C96.8655 1.65838 97.1158 1.56558 97.2649 1.37997C97.4174 1.19437 97.4953 0.980587 97.4986 0.738636ZM105.019 11.1491C104.257 11.1491 103.602 10.9818 103.056 10.647C102.512 10.3123 102.093 9.84991 101.798 9.25994C101.506 8.66667 101.36 7.9839 101.36 7.21165C101.36 6.43608 101.509 5.75166 101.808 5.15838C102.106 4.56179 102.527 4.09777 103.07 3.76633C103.617 3.43158 104.264 3.2642 105.009 3.2642C105.629 3.2642 106.178 3.37855 106.655 3.60724C107.136 3.83262 107.518 4.15246 107.803 4.56676C108.088 4.97775 108.251 5.45833 108.291 6.00852H106.57C106.501 5.64062 106.335 5.33404 106.073 5.08878C105.815 4.8402 105.468 4.71591 105.034 4.71591C104.666 4.71591 104.343 4.81534 104.065 5.0142C103.786 5.20975 103.569 5.49148 103.414 5.85938C103.261 6.22727 103.185 6.66809 103.185 7.18182C103.185 7.70218 103.261 8.14962 103.414 8.52415C103.566 8.89536 103.78 9.18205 104.055 9.38423C104.333 9.5831 104.66 9.68253 105.034 9.68253C105.299 9.68253 105.536 9.63281 105.745 9.53338C105.957 9.43063 106.135 9.28314 106.277 9.09091C106.42 8.89867 106.517 8.66501 106.57 8.38991H108.291C108.248 8.93016 108.088 9.40909 107.813 9.8267C107.538 10.241 107.164 10.5658 106.69 10.8011C106.216 11.0331 105.659 11.1491 105.019 11.1491ZM109.768 11V3.36364H111.568V6.44602H112.224L114.521 3.36364H116.689L113.86 7.11222L116.719 11H114.541L112.448 8.12145H111.568V11H109.768ZM119.474 8.56392L122.532 3.36364H124.381V11H122.641V5.79474L119.594 11H117.739V3.36364H119.474V8.56392ZM127.964 8.56392L131.022 3.36364H132.871V11H131.131V5.79474L128.084 11H126.229V3.36364H127.964V8.56392ZM130.53 0.738636H131.877C131.877 1.31865 131.667 1.7893 131.246 2.15057C130.828 2.50852 130.261 2.6875 129.545 2.6875C128.836 2.6875 128.271 2.50852 127.85 2.15057C127.433 1.7893 127.225 1.31865 127.229 0.738636H128.566C128.566 0.977273 128.639 1.19105 128.785 1.37997C128.934 1.56558 129.188 1.65838 129.545 1.65838C129.897 1.65838 130.147 1.56558 130.296 1.37997C130.449 1.19437 130.527 0.980587 130.53 0.738636ZM5.95046 23.3636V24.8402H2.65927V31H0.899325V23.3636H5.95046ZM10.41 31.1491C9.66424 31.1491 9.01793 30.9851 8.47106 30.657C7.92418 30.3288 7.49994 29.8698 7.19833 29.2798C6.90004 28.6899 6.75089 28.0005 6.75089 27.2116C6.75089 26.4228 6.90004 25.7318 7.19833 25.1385C7.49994 24.5452 7.92418 24.0845 8.47106 23.7564C9.01793 23.4283 9.66424 23.2642 10.41 23.2642C11.1557 23.2642 11.802 23.4283 12.3489 23.7564C12.8958 24.0845 13.3184 24.5452 13.6167 25.1385C13.9183 25.7318 14.0691 26.4228 14.0691 27.2116C14.0691 28.0005 13.9183 28.6899 13.6167 29.2798C13.3184 29.8698 12.8958 30.3288 12.3489 30.657C11.802 30.9851 11.1557 31.1491 10.41 31.1491ZM10.4199 29.7074C10.8243 29.7074 11.1623 29.5964 11.4341 29.3743C11.7059 29.1489 11.9081 28.8473 12.0407 28.4695C12.1766 28.0916 12.2445 27.6707 12.2445 27.2067C12.2445 26.7393 12.1766 26.3168 12.0407 25.9389C11.9081 25.5578 11.7059 25.2545 11.4341 25.0291C11.1623 24.8037 10.8243 24.6911 10.4199 24.6911C10.0056 24.6911 9.66093 24.8037 9.38583 25.0291C9.11405 25.2545 8.91022 25.5578 8.77433 25.9389C8.64175 26.3168 8.57546 26.7393 8.57546 27.2067C8.57546 27.6707 8.64175 28.0916 8.77433 28.4695C8.91022 28.8473 9.11405 29.1489 9.38583 29.3743C9.66093 29.5964 10.0056 29.7074 10.4199 29.7074ZM18.9276 31.1491C18.1652 31.1491 17.5107 30.9818 16.9638 30.647C16.4202 30.3123 16.0009 29.8499 15.706 29.2599C15.4143 28.6667 15.2685 27.9839 15.2685 27.2116C15.2685 26.4361 15.4176 25.7517 15.7159 25.1584C16.0142 24.5618 16.4351 24.0978 16.9787 23.7663C17.5256 23.4316 18.1719 23.2642 18.9176 23.2642C19.5374 23.2642 20.0859 23.3786 20.5632 23.6072C21.0438 23.8326 21.4266 24.1525 21.7116 24.5668C21.9967 24.9777 22.1591 25.4583 22.1989 26.0085H20.4787C20.4091 25.6406 20.2434 25.334 19.9815 25.0888C19.723 24.8402 19.3767 24.7159 18.9425 24.7159C18.5746 24.7159 18.2514 24.8153 17.973 25.0142C17.6946 25.2098 17.4775 25.4915 17.3217 25.8594C17.1693 26.2273 17.093 26.6681 17.093 27.1818C17.093 27.7022 17.1693 28.1496 17.3217 28.5241C17.4742 28.8954 17.688 29.1821 17.9631 29.3842C18.2415 29.5831 18.5679 29.6825 18.9425 29.6825C19.2076 29.6825 19.4446 29.6328 19.6534 29.5334C19.8655 29.4306 20.0429 29.2831 20.1854 29.0909C20.3279 28.8987 20.4257 28.665 20.4787 28.3899H22.1989C22.1558 28.9302 21.9967 29.4091 21.7216 29.8267C21.4465 30.241 21.072 30.5658 20.598 30.8011C20.1241 31.0331 19.5672 31.1491 18.9276 31.1491ZM24.7953 33.8636C24.55 33.8636 24.323 33.8438 24.1142 33.804C23.9087 33.7675 23.7446 33.7244 23.622 33.6747L24.0396 32.2727C24.3014 32.349 24.5351 32.3854 24.7406 32.3821C24.9461 32.3788 25.1267 32.3142 25.2825 32.1882C25.4416 32.0656 25.5758 31.8601 25.6852 31.5717L25.8393 31.1591L23.0701 23.3636H24.9792L26.7392 29.1307H26.8187L28.5836 23.3636H30.4977L27.4402 31.9247C27.2976 32.3291 27.1087 32.6754 26.8734 32.9638C26.6381 33.2554 26.3497 33.4775 26.0083 33.63C25.6703 33.7857 25.2659 33.8636 24.7953 33.8636ZM30.438 33.2173V29.5185H31.0446C31.207 29.3925 31.3429 29.2218 31.4522 29.0064C31.5616 28.7876 31.6511 28.5308 31.7207 28.2358C31.7936 27.9375 31.8533 27.6044 31.8997 27.2365C31.9461 26.8653 31.9875 26.4659 32.024 26.0384L32.2427 23.3636H37.7612V29.5185H38.9444V33.2173H37.2044V31H32.2079V33.2173H30.438ZM32.894 29.5185H36.041V24.8153H33.8038L33.6845 26.0384C33.6182 26.8471 33.5304 27.5398 33.421 28.1165C33.3116 28.6932 33.1359 29.1605 32.894 29.5185ZM42.4854 31.1541C42.0015 31.1541 41.5657 31.0679 41.1779 30.8956C40.7934 30.7199 40.4885 30.4614 40.2631 30.12C40.0411 29.7786 39.93 29.3577 39.93 28.8572C39.93 28.4264 40.0096 28.0701 40.1687 27.7884C40.3278 27.5066 40.5449 27.2812 40.82 27.1122C41.0951 26.9432 41.4049 26.8156 41.7496 26.7294C42.0977 26.6399 42.4573 26.5753 42.8285 26.5355C43.2759 26.4891 43.6388 26.4477 43.9173 26.4112C44.1957 26.3714 44.3978 26.3118 44.5238 26.2322C44.6531 26.1494 44.7177 26.0218 44.7177 25.8494V25.8196C44.7177 25.4451 44.6067 25.1551 44.3846 24.9496C44.1625 24.7441 43.8427 24.6413 43.4251 24.6413C42.9843 24.6413 42.6346 24.7375 42.3761 24.9297C42.1209 25.1219 41.9485 25.349 41.859 25.6108L40.1786 25.3722C40.3112 24.9081 40.5299 24.5204 40.8349 24.2088C41.1398 23.8939 41.5127 23.6586 41.9535 23.5028C42.3943 23.3438 42.8815 23.2642 43.4151 23.2642C43.783 23.2642 44.1493 23.3073 44.5138 23.3935C44.8784 23.4796 45.2115 23.6222 45.5131 23.821C45.8147 24.0166 46.0567 24.2834 46.239 24.6214C46.4246 24.9595 46.5174 25.3821 46.5174 25.8892V31H44.7873V29.951H44.7276C44.6183 30.1631 44.4641 30.362 44.2653 30.5476C44.0697 30.7299 43.8228 30.8774 43.5245 30.9901C43.2295 31.0994 42.8832 31.1541 42.4854 31.1541ZM42.9528 29.8317C43.314 29.8317 43.6272 29.7604 43.8924 29.6179C44.1576 29.4721 44.3614 29.2798 44.5039 29.0412C44.6497 28.8026 44.7227 28.5424 44.7227 28.2607V27.3608C44.6663 27.4072 44.5702 27.4503 44.4343 27.4901C44.3017 27.5298 44.1526 27.5646 43.9869 27.5945C43.8211 27.6243 43.6571 27.6508 43.4947 27.674C43.3323 27.6972 43.1914 27.7171 43.0721 27.7337C42.8036 27.7701 42.5633 27.8298 42.3512 27.9126C42.1391 27.9955 41.9717 28.1115 41.8491 28.2607C41.7264 28.4065 41.6651 28.5954 41.6651 28.8274C41.6651 29.1589 41.7861 29.4091 42.0281 29.5781C42.27 29.7472 42.5782 29.8317 42.9528 29.8317ZM48.3271 33.8636V23.3636H50.0969V24.6264H50.2013C50.2942 24.4408 50.4251 24.2436 50.5941 24.0348C50.7631 23.8227 50.9918 23.642 51.2802 23.4929C51.5685 23.3404 51.9364 23.2642 52.3839 23.2642C52.9738 23.2642 53.5058 23.415 53.9798 23.7166C54.457 24.0149 54.8349 24.4574 55.1133 25.044C55.395 25.6274 55.5359 26.3433 55.5359 27.1918C55.5359 28.0303 55.3983 28.7429 55.1232 29.3295C54.8481 29.9162 54.4736 30.3636 53.9996 30.6719C53.5257 30.9801 52.9888 31.1342 52.3888 31.1342C51.9513 31.1342 51.5884 31.0613 51.3001 30.9155C51.0117 30.7696 50.7797 30.594 50.604 30.3885C50.4317 30.1797 50.2975 29.9825 50.2013 29.7969H50.1268V33.8636H48.3271ZM50.092 27.1818C50.092 27.6757 50.1616 28.1082 50.3008 28.4794C50.4433 28.8506 50.6471 29.1406 50.9123 29.3494C51.1808 29.5549 51.5056 29.6577 51.8867 29.6577C52.2844 29.6577 52.6175 29.5516 52.886 29.3395C53.1545 29.1241 53.3567 28.8307 53.4925 28.4595C53.6317 28.085 53.7013 27.6591 53.7013 27.1818C53.7013 26.7079 53.6334 26.2869 53.4975 25.919C53.3616 25.5511 53.1594 25.2628 52.891 25.054C52.6225 24.8452 52.2878 24.7408 51.8867 24.7408C51.5022 24.7408 51.1758 24.8419 50.9073 25.044C50.6388 25.2462 50.435 25.5296 50.2958 25.8942C50.1599 26.2588 50.092 26.688 50.092 27.1818ZM60.408 31.1491C59.6457 31.1491 58.9911 30.9818 58.4442 30.647C57.9007 30.3123 57.4814 29.8499 57.1864 29.2599C56.8948 28.6667 56.7489 27.9839 56.7489 27.2116C56.7489 26.4361 56.8981 25.7517 57.1964 25.1584C57.4947 24.5618 57.9156 24.0978 58.4592 23.7663C59.006 23.4316 59.6523 23.2642 60.3981 23.2642C61.0179 23.2642 61.5664 23.3786 62.0437 23.6072C62.5243 23.8326 62.9071 24.1525 63.1921 24.5668C63.4772 24.9777 63.6396 25.4583 63.6793 26.0085H61.9592C61.8896 25.6406 61.7238 25.334 61.462 25.0888C61.2035 24.8402 60.8571 24.7159 60.4229 24.7159C60.055 24.7159 59.7319 24.8153 59.4535 25.0142C59.1751 25.2098 58.958 25.4915 58.8022 25.8594C58.6497 26.2273 58.5735 26.6681 58.5735 27.1818C58.5735 27.7022 58.6497 28.1496 58.8022 28.5241C58.9547 28.8954 59.1684 29.1821 59.4435 29.3842C59.7219 29.5831 60.0484 29.6825 60.4229 29.6825C60.6881 29.6825 60.9251 29.6328 61.1339 29.5334C61.346 29.4306 61.5233 29.2831 61.6658 29.0909C61.8084 28.8987 61.9061 28.665 61.9592 28.3899H63.6793C63.6362 28.9302 63.4772 29.4091 63.2021 29.8267C62.927 30.241 62.5524 30.5658 62.0785 30.8011C61.6045 31.0331 61.0477 31.1491 60.408 31.1491ZM64.6028 24.8402V23.3636H71.2846V24.8402H68.8137V31H67.0737V24.8402H64.6028ZM72.7177 31V23.3636H75.9244C76.8292 23.3636 77.5434 23.5443 78.0671 23.9055C78.5941 24.2668 78.8576 24.7706 78.8576 25.4169C78.8576 25.8445 78.7085 26.1941 78.4102 26.4659C78.1152 26.7344 77.7125 26.915 77.2021 27.0078C77.6031 27.041 77.9544 27.142 78.256 27.3111C78.561 27.4801 78.7996 27.7022 78.9719 27.9773C79.1443 28.2524 79.2305 28.5689 79.2305 28.9268C79.2305 29.3478 79.1194 29.714 78.8974 30.0256C78.6786 30.3338 78.3588 30.5741 77.9379 30.7464C77.5202 30.9155 77.0131 31 76.4165 31H72.7177ZM74.4031 29.5831H76.4165C76.748 29.5831 77.0082 29.5052 77.1971 29.3494C77.386 29.1903 77.4805 28.9749 77.4805 28.7031C77.4805 28.3883 77.386 28.1413 77.1971 27.9624C77.0082 27.7801 76.748 27.6889 76.4165 27.6889H74.4031V29.5831ZM74.4031 26.5256H75.9592C76.2044 26.5256 76.4149 26.4908 76.5906 26.4212C76.7662 26.3482 76.9004 26.2472 76.9933 26.1179C77.0861 25.9853 77.1325 25.8279 77.1325 25.6456C77.1325 25.3838 77.0247 25.1783 76.8093 25.0291C76.5972 24.88 76.3022 24.8054 75.9244 24.8054H74.4031V26.5256ZM84.0964 31.1491C83.3308 31.1491 82.6696 30.9901 82.1127 30.6719C81.5592 30.3504 81.1333 29.8963 80.835 29.3097C80.5368 28.7197 80.3876 28.0253 80.3876 27.2266C80.3876 26.4411 80.5368 25.7517 80.835 25.1584C81.1367 24.5618 81.5576 24.0978 82.0978 23.7663C82.6381 23.4316 83.2728 23.2642 84.002 23.2642C84.4726 23.2642 84.9167 23.3404 85.3343 23.4929C85.7553 23.642 86.1265 23.8741 86.448 24.1889C86.7728 24.5038 87.028 24.9048 87.2136 25.392C87.3992 25.8759 87.492 26.4527 87.492 27.1222V27.674H81.2328V26.4609H85.7669C85.7636 26.1162 85.689 25.8097 85.5431 25.5412C85.3973 25.2694 85.1935 25.0556 84.9316 24.8999C84.6731 24.7441 84.3715 24.6662 84.0268 24.6662C83.6589 24.6662 83.3358 24.7557 83.0574 24.9347C82.7789 25.1103 82.5618 25.3423 82.4061 25.6307C82.2536 25.9157 82.1757 26.2289 82.1724 26.5703V27.6293C82.1724 28.0734 82.2536 28.4545 82.416 28.7727C82.5784 29.0876 82.8055 29.3295 83.0971 29.4986C83.3888 29.6643 83.7302 29.7472 84.1213 29.7472C84.3831 29.7472 84.6201 29.7107 84.8322 29.6378C85.0443 29.5616 85.2283 29.4505 85.3841 29.3047C85.5398 29.1589 85.6575 28.9782 85.737 28.7628L87.4174 28.9517C87.3114 29.3958 87.1092 29.7836 86.8109 30.1151C86.5159 30.4432 86.1381 30.6984 85.6774 30.8807C85.2167 31.0597 84.6897 31.1491 84.0964 31.1491ZM94.2596 26.4361V27.9126H90.1928V26.4361H94.2596ZM90.7496 23.3636V31H89.0146V23.3636H90.7496ZM95.4379 23.3636V31H93.7077V23.3636H95.4379ZM102.504 26.4361V27.9126H98.437V26.4361H102.504ZM98.9938 23.3636V31H97.2587V23.3636H98.9938ZM103.682 23.3636V31H101.952V23.3636H103.682ZM106.721 25.8494H108.973C109.947 25.8494 110.701 26.0864 111.235 26.5604C111.769 27.0343 112.037 27.6558 112.04 28.4247C112.037 28.9252 111.915 29.3693 111.673 29.7571C111.434 30.1449 111.086 30.4498 110.629 30.6719C110.174 30.8906 109.623 31 108.973 31H105.503V23.3636H107.238V29.5234H108.973C109.364 29.5234 109.686 29.424 109.938 29.2251C110.189 29.023 110.315 28.7644 110.315 28.4496C110.315 28.1181 110.189 27.848 109.938 27.6392C109.686 27.4304 109.364 27.326 108.973 27.326H106.721V25.8494ZM112.99 31V23.3636H114.79V31H112.99ZM118.381 28.5639L121.438 23.3636H123.287V31H121.547V25.7947L118.5 31H116.645V23.3636H118.381V28.5639ZM120.946 20.7386H122.293C122.293 21.3187 122.083 21.7893 121.662 22.1506C121.244 22.5085 120.677 22.6875 119.961 22.6875C119.252 22.6875 118.687 22.5085 118.266 22.1506C117.849 21.7893 117.641 21.3187 117.645 20.7386H118.982C118.982 20.9773 119.055 21.1911 119.201 21.38C119.35 21.5656 119.604 21.6584 119.961 21.6584C120.313 21.6584 120.563 21.5656 120.712 21.38C120.865 21.1944 120.943 20.9806 120.946 20.7386ZM128.608 31V23.3636H131.815C132.72 23.3636 133.434 23.5443 133.958 23.9055C134.485 24.2668 134.748 24.7706 134.748 25.4169C134.748 25.8445 134.599 26.1941 134.301 26.4659C134.006 26.7344 133.603 26.915 133.093 27.0078C133.494 27.041 133.845 27.142 134.147 27.3111C134.452 27.4801 134.69 27.7022 134.863 27.9773C135.035 28.2524 135.121 28.5689 135.121 28.9268C135.121 29.3478 135.01 29.714 134.788 30.0256C134.569 30.3338 134.249 30.5741 133.828 30.7464C133.411 30.9155 132.904 31 132.307 31H128.608ZM130.294 29.5831H132.307C132.639 29.5831 132.899 29.5052 133.088 29.3494C133.277 29.1903 133.371 28.9749 133.371 28.7031C133.371 28.3883 133.277 28.1413 133.088 27.9624C132.899 27.7801 132.639 27.6889 132.307 27.6889H130.294V29.5831ZM130.294 26.5256H131.85C132.095 26.5256 132.306 26.4908 132.481 26.4212C132.657 26.3482 132.791 26.2472 132.884 26.1179C132.977 25.9853 133.023 25.8279 133.023 25.6456C133.023 25.3838 132.915 25.1783 132.7 25.0291C132.488 24.88 132.193 24.8054 131.815 24.8054H130.294V26.5256ZM139.937 31.1491C139.192 31.1491 138.545 30.9851 137.998 30.657C137.452 30.3288 137.027 29.8698 136.726 29.2798C136.427 28.6899 136.278 28.0005 136.278 27.2116C136.278 26.4228 136.427 25.7318 136.726 25.1385C137.027 24.5452 137.452 24.0845 137.998 23.7564C138.545 23.4283 139.192 23.2642 139.937 23.2642C140.683 23.2642 141.329 23.4283 141.876 23.7564C142.423 24.0845 142.846 24.5452 143.144 25.1385C143.446 25.7318 143.596 26.4228 143.596 27.2116C143.596 28.0005 143.446 28.6899 143.144 29.2798C142.846 29.8698 142.423 30.3288 141.876 30.657C141.329 30.9851 140.683 31.1491 139.937 31.1491ZM139.947 29.7074C140.352 29.7074 140.69 29.5964 140.961 29.3743C141.233 29.1489 141.435 28.8473 141.568 28.4695C141.704 28.0916 141.772 27.6707 141.772 27.2067C141.772 26.7393 141.704 26.3168 141.568 25.9389C141.435 25.5578 141.233 25.2545 140.961 25.0291C140.69 24.8037 140.352 24.6911 139.947 24.6911C139.533 24.6911 139.188 24.8037 138.913 25.0291C138.641 25.2545 138.438 25.5578 138.302 25.9389C138.169 26.3168 138.103 26.7393 138.103 27.2067C138.103 27.6707 138.169 28.0916 138.302 28.4695C138.438 28.8473 138.641 29.1489 138.913 29.3743C139.188 29.5964 139.533 29.7074 139.947 29.7074ZM148.505 31.1491C147.739 31.1491 147.078 30.9901 146.521 30.6719C145.967 30.3504 145.542 29.8963 145.243 29.3097C144.945 28.7197 144.796 28.0253 144.796 27.2266C144.796 26.4411 144.945 25.7517 145.243 25.1584C145.545 24.5618 145.966 24.0978 146.506 23.7663C147.046 23.4316 147.681 23.2642 148.41 23.2642C148.881 23.2642 149.325 23.3404 149.743 23.4929C150.163 23.642 150.535 23.8741 150.856 24.1889C151.181 24.5038 151.436 24.9048 151.622 25.392C151.807 25.8759 151.9 26.4527 151.9 27.1222V27.674H145.641V26.4609H150.175C150.172 26.1162 150.097 25.8097 149.951 25.5412C149.806 25.2694 149.602 25.0556 149.34 24.8999C149.081 24.7441 148.78 24.6662 148.435 24.6662C148.067 24.6662 147.744 24.7557 147.466 24.9347C147.187 25.1103 146.97 25.3423 146.814 25.6307C146.662 25.9157 146.584 26.2289 146.581 26.5703V27.6293C146.581 28.0734 146.662 28.4545 146.824 28.7727C146.987 29.0876 147.214 29.3295 147.505 29.4986C147.797 29.6643 148.138 29.7472 148.529 29.7472C148.791 29.7472 149.028 29.7107 149.24 29.6378C149.453 29.5616 149.636 29.4505 149.792 29.3047C149.948 29.1589 150.066 28.9782 150.145 28.7628L151.826 28.9517C151.72 29.3958 151.517 29.7836 151.219 30.1151C150.924 30.4432 150.546 30.6984 150.086 30.8807C149.625 31.0597 149.098 31.1491 148.505 31.1491ZM158.668 26.4361V27.9126H154.601V26.4361H158.668ZM155.158 23.3636V31H153.423V23.3636H155.158ZM159.846 23.3636V31H158.116V23.3636H159.846ZM166.912 26.4361V27.9126H162.845V26.4361H166.912ZM163.402 23.3636V31H161.667V23.3636H163.402ZM168.09 23.3636V31H166.36V23.3636H168.09ZM173.242 31.1491C172.496 31.1491 171.85 30.9851 171.303 30.657C170.756 30.3288 170.332 29.8698 170.03 29.2798C169.732 28.6899 169.583 28.0005 169.583 27.2116C169.583 26.4228 169.732 25.7318 170.03 25.1385C170.332 24.5452 170.756 24.0845 171.303 23.7564C171.85 23.4283 172.496 23.2642 173.242 23.2642C173.988 23.2642 174.634 23.4283 175.181 23.7564C175.728 24.0845 176.15 24.5452 176.449 25.1385C176.75 25.7318 176.901 26.4228 176.901 27.2116C176.901 28.0005 176.75 28.6899 176.449 29.2798C176.15 29.8698 175.728 30.3288 175.181 30.657C174.634 30.9851 173.988 31.1491 173.242 31.1491ZM173.252 29.7074C173.656 29.7074 173.994 29.5964 174.266 29.3743C174.538 29.1489 174.74 28.8473 174.873 28.4695C175.009 28.0916 175.077 27.6707 175.077 27.2067C175.077 26.7393 175.009 26.3168 174.873 25.9389C174.74 25.5578 174.538 25.2545 174.266 25.0291C173.994 24.8037 173.656 24.6911 173.252 24.6911C172.838 24.6911 172.493 24.8037 172.218 25.0291C171.946 25.2545 171.742 25.5578 171.606 25.9389C171.474 26.3168 171.407 26.7393 171.407 27.2067C171.407 27.6707 171.474 28.0916 171.606 28.4695C171.742 28.8473 171.946 29.1489 172.218 29.3743C172.493 29.5964 172.838 29.7074 173.252 29.7074ZM183.057 26.0185V27.5H178.473V26.0185H183.057ZM22.944 48.5639L26.0015 43.3636H27.8509V51H26.1109V45.7947L23.0633 51H21.2089V43.3636H22.944V48.5639ZM33.0301 51.1491C32.2678 51.1491 31.6132 50.9818 31.0663 50.647C30.5228 50.3123 30.1035 49.8499 29.8085 49.2599C29.5168 48.6667 29.371 47.9839 29.371 47.2116C29.371 46.4361 29.5202 45.7517 29.8184 45.1584C30.1167 44.5618 30.5377 44.0978 31.0812 43.7663C31.6281 43.4316 32.2744 43.2642 33.0202 43.2642C33.6399 43.2642 34.1885 43.3786 34.6657 43.6072C35.1463 43.8326 35.5291 44.1525 35.8142 44.5668C36.0992 44.9777 36.2616 45.4583 36.3014 46.0085H34.5812C34.5116 45.6406 34.3459 45.334 34.0841 45.0888C33.8256 44.8402 33.4792 44.7159 33.045 44.7159C32.6771 44.7159 32.354 44.8153 32.0756 45.0142C31.7971 45.2098 31.58 45.4915 31.4243 45.8594C31.2718 46.2273 31.1956 46.6681 31.1956 47.1818C31.1956 47.7022 31.2718 48.1496 31.4243 48.5241C31.5767 48.8954 31.7905 49.1821 32.0656 49.3842C32.344 49.5831 32.6705 49.6825 33.045 49.6825C33.3102 49.6825 33.5471 49.6328 33.7559 49.5334C33.9681 49.4306 34.1454 49.2831 34.2879 49.0909C34.4304 48.8987 34.5282 48.665 34.5812 48.3899H36.3014C36.2583 48.9302 36.0992 49.4091 35.8241 49.8267C35.549 50.241 35.1745 50.5658 34.7006 50.8011C34.2266 51.0331 33.6698 51.1491 33.0301 51.1491ZM37.2249 44.8402V43.3636H43.9067V44.8402H41.4358V51H39.6958V44.8402H37.2249ZM48.3563 51.1491C47.6105 51.1491 46.9642 50.9851 46.4173 50.657C45.8705 50.3288 45.4462 49.8698 45.1446 49.2798C44.8463 48.6899 44.6972 48.0005 44.6972 47.2116C44.6972 46.4228 44.8463 45.7318 45.1446 45.1385C45.4462 44.5452 45.8705 44.0845 46.4173 43.7564C46.9642 43.4283 47.6105 43.2642 48.3563 43.2642C49.102 43.2642 49.7483 43.4283 50.2952 43.7564C50.8421 44.0845 51.2646 44.5452 51.5629 45.1385C51.8646 45.7318 52.0154 46.4228 52.0154 47.2116C52.0154 48.0005 51.8646 48.6899 51.5629 49.2798C51.2646 49.8698 50.8421 50.3288 50.2952 50.657C49.7483 50.9851 49.102 51.1491 48.3563 51.1491ZM48.3662 49.7074C48.7706 49.7074 49.1086 49.5964 49.3804 49.3743C49.6522 49.1489 49.8544 48.8473 49.9869 48.4695C50.1228 48.0916 50.1908 47.6707 50.1908 47.2067C50.1908 46.7393 50.1228 46.3168 49.9869 45.9389C49.8544 45.5578 49.6522 45.2545 49.3804 45.0291C49.1086 44.8037 48.7706 44.6911 48.3662 44.6911C47.9519 44.6911 47.6072 44.8037 47.3321 45.0291C47.0603 45.2545 46.8565 45.5578 46.7206 45.9389C46.588 46.3168 46.5218 46.7393 46.5218 47.2067C46.5218 47.6707 46.588 48.0916 46.7206 48.4695C46.8565 48.8473 47.0603 49.1489 47.3321 49.3743C47.6072 49.5964 47.9519 49.7074 48.3662 49.7074ZM53.5429 53.8636V43.3636H55.3128V44.6264H55.4172C55.51 44.4408 55.6409 44.2436 55.8099 44.0348C55.979 43.8227 56.2077 43.642 56.496 43.4929C56.7844 43.3404 57.1523 43.2642 57.5997 43.2642C58.1897 43.2642 58.7216 43.415 59.1956 43.7166C59.6729 44.0149 60.0507 44.4574 60.3291 45.044C60.6108 45.6274 60.7517 46.3433 60.7517 47.1918C60.7517 48.0303 60.6141 48.7429 60.339 49.3295C60.064 49.9162 59.6894 50.3636 59.2155 50.6719C58.7415 50.9801 58.2046 51.1342 57.6047 51.1342C57.1672 51.1342 56.8042 51.0613 56.5159 50.9155C56.2275 50.7696 55.9955 50.594 55.8199 50.3885C55.6475 50.1797 55.5133 49.9825 55.4172 49.7969H55.3426V53.8636H53.5429ZM55.3078 47.1818C55.3078 47.6757 55.3774 48.1082 55.5166 48.4794C55.6591 48.8506 55.863 49.1406 56.1281 49.3494C56.3966 49.5549 56.7214 49.6577 57.1025 49.6577C57.5003 49.6577 57.8334 49.5516 58.1018 49.3395C58.3703 49.1241 58.5725 48.8307 58.7084 48.4595C58.8476 48.085 58.9172 47.6591 58.9172 47.1818C58.9172 46.7079 58.8492 46.2869 58.7133 45.919C58.5774 45.5511 58.3753 45.2628 58.1068 45.054C57.8383 44.8452 57.5036 44.7408 57.1025 44.7408C56.7181 44.7408 56.3916 44.8419 56.1231 45.044C55.8547 45.2462 55.6508 45.5296 55.5116 45.8942C55.3757 46.2588 55.3078 46.688 55.3078 47.1818ZM64.028 48.5639L67.0855 43.3636H68.9349V51H67.1949V45.7947L64.1473 51H62.2929V43.3636H64.028V48.5639ZM77.1617 43.3636V51H75.4316V43.3636H77.1617ZM76.3513 46.8139V48.2855C76.1557 48.3717 75.9337 48.4496 75.6851 48.5192C75.4398 48.5855 75.1797 48.6385 74.9046 48.6783C74.6328 48.718 74.361 48.7379 74.0892 48.7379C73.0684 48.7379 72.2613 48.5092 71.6681 48.0518C71.0781 47.5911 70.7831 46.8736 70.7831 45.8991V43.3537H72.5033V45.8991C72.5033 46.2273 72.5613 46.4908 72.6773 46.6896C72.7933 46.8885 72.969 47.0343 73.2043 47.1271C73.4396 47.2166 73.7346 47.2614 74.0892 47.2614C74.4869 47.2614 74.8648 47.2216 75.2227 47.142C75.5807 47.0625 75.9569 46.9531 76.3513 46.8139ZM82.3532 51.1491C81.5876 51.1491 80.9264 50.9901 80.3696 50.6719C79.8161 50.3504 79.3902 49.8963 79.0919 49.3097C78.7936 48.7197 78.6444 48.0253 78.6444 47.2266C78.6444 46.4411 78.7936 45.7517 79.0919 45.1584C79.3935 44.5618 79.8144 44.0978 80.3547 43.7663C80.8949 43.4316 81.5296 43.2642 82.2588 43.2642C82.7294 43.2642 83.1736 43.3404 83.5912 43.4929C84.0121 43.642 84.3833 43.8741 84.7048 44.1889C85.0296 44.5038 85.2848 44.9048 85.4704 45.392C85.656 45.8759 85.7488 46.4527 85.7488 47.1222V47.674H79.4896V46.4609H84.0237C84.0204 46.1162 83.9458 45.8097 83.8 45.5412C83.6541 45.2694 83.4503 45.0556 83.1885 44.8999C82.93 44.7441 82.6283 44.6662 82.2836 44.6662C81.9157 44.6662 81.5926 44.7557 81.3142 44.9347C81.0358 45.1103 80.8187 45.3423 80.6629 45.6307C80.5104 45.9157 80.4326 46.2289 80.4292 46.5703V47.6293C80.4292 48.0734 80.5104 48.4545 80.6729 48.7727C80.8353 49.0876 81.0623 49.3295 81.354 49.4986C81.6456 49.6643 81.987 49.7472 82.3781 49.7472C82.6399 49.7472 82.8769 49.7107 83.089 49.6378C83.3012 49.5616 83.4851 49.4505 83.6409 49.3047C83.7967 49.1589 83.9143 48.9782 83.9939 48.7628L85.6743 48.9517C85.5682 49.3958 85.366 49.7836 85.0677 50.1151C84.7728 50.4432 84.3949 50.6984 83.9342 50.8807C83.4735 51.0597 82.9465 51.1491 82.3532 51.1491ZM90.6024 51.1491C89.8401 51.1491 89.1855 50.9818 88.6386 50.647C88.095 50.3123 87.6758 49.8499 87.3808 49.2599C87.0891 48.6667 86.9433 47.9839 86.9433 47.2116C86.9433 46.4361 87.0924 45.7517 87.3907 45.1584C87.689 44.5618 88.1099 44.0978 88.6535 43.7663C89.2004 43.4316 89.8467 43.2642 90.5924 43.2642C91.2122 43.2642 91.7607 43.3786 92.238 43.6072C92.7186 43.8326 93.1014 44.1525 93.3865 44.5668C93.6715 44.9777 93.8339 45.4583 93.8737 46.0085H92.1535C92.0839 45.6406 91.9182 45.334 91.6563 45.0888C91.3978 44.8402 91.0515 44.7159 90.6173 44.7159C90.2494 44.7159 89.9262 44.8153 89.6478 45.0142C89.3694 45.2098 89.1523 45.4915 88.9965 45.8594C88.8441 46.2273 88.7678 46.6681 88.7678 47.1818C88.7678 47.7022 88.8441 48.1496 88.9965 48.5241C89.149 48.8954 89.3628 49.1821 89.6379 49.3842C89.9163 49.5831 90.2427 49.6825 90.6173 49.6825C90.8824 49.6825 91.1194 49.6328 91.3282 49.5334C91.5403 49.4306 91.7177 49.2831 91.8602 49.0909C92.0027 48.8987 92.1005 48.665 92.1535 48.3899H93.8737C93.8306 48.9302 93.6715 49.4091 93.3964 49.8267C93.1213 50.241 92.7468 50.5658 92.2728 50.8011C91.7989 51.0331 91.242 51.1491 90.6024 51.1491ZM95.3515 51V43.3636H97.1512V46.446H97.8074L100.104 43.3636H102.272L99.4431 47.1122L102.302 51H100.124L98.0312 48.1214H97.1512V51H95.3515ZM105.057 48.5639L108.115 43.3636H109.964V51H108.224V45.7947L105.177 51H103.322V43.3636H105.057V48.5639ZM113.547 48.5639L116.605 43.3636H118.454V51H116.714V45.7947L113.667 51H111.812V43.3636H113.547V48.5639ZM116.113 40.7386H117.46C117.46 41.3187 117.25 41.7893 116.829 42.1506C116.411 42.5085 115.844 42.6875 115.128 42.6875C114.419 42.6875 113.854 42.5085 113.433 42.1506C113.016 41.7893 112.808 41.3187 112.812 40.7386H114.149C114.149 40.9773 114.222 41.1911 114.368 41.38C114.517 41.5656 114.771 41.6584 115.128 41.6584C115.48 41.6584 115.73 41.5656 115.879 41.38C116.032 41.1944 116.11 40.9806 116.113 40.7386ZM125.973 51.1541C125.489 51.1541 125.053 51.0679 124.665 50.8956C124.281 50.7199 123.976 50.4614 123.75 50.12C123.528 49.7786 123.417 49.3577 123.417 48.8572C123.417 48.4264 123.497 48.0701 123.656 47.7884C123.815 47.5066 124.032 47.2812 124.307 47.1122C124.582 46.9432 124.892 46.8156 125.237 46.7294C125.585 46.6399 125.945 46.5753 126.316 46.5355C126.763 46.4891 127.126 46.4477 127.405 46.4112C127.683 46.3714 127.885 46.3118 128.011 46.2322C128.14 46.1494 128.205 46.0218 128.205 45.8494V45.8196C128.205 45.4451 128.094 45.1551 127.872 44.9496C127.65 44.7441 127.33 44.6413 126.912 44.6413C126.472 44.6413 126.122 44.7375 125.863 44.9297C125.608 45.1219 125.436 45.349 125.346 45.6108L123.666 45.3722C123.799 44.9081 124.017 44.5204 124.322 44.2088C124.627 43.8939 125 43.6586 125.441 43.5028C125.882 43.3438 126.369 43.2642 126.902 43.2642C127.27 43.2642 127.637 43.3073 128.001 43.3935C128.366 43.4796 128.699 43.6222 129 43.821C129.302 44.0166 129.544 44.2834 129.726 44.6214C129.912 44.9595 130.005 45.3821 130.005 45.8892V51H128.275V49.951H128.215C128.106 50.1631 127.951 50.362 127.753 50.5476C127.557 50.7299 127.31 50.8774 127.012 50.9901C126.717 51.0994 126.37 51.1541 125.973 51.1541ZM126.44 49.8317C126.801 49.8317 127.115 49.7604 127.38 49.6179C127.645 49.4721 127.849 49.2798 127.991 49.0412C128.137 48.8026 128.21 48.5424 128.21 48.2607V47.3608C128.154 47.4072 128.057 47.4503 127.922 47.4901C127.789 47.5298 127.64 47.5646 127.474 47.5945C127.308 47.6243 127.144 47.6508 126.982 47.674C126.82 47.6972 126.679 47.7171 126.559 47.7337C126.291 47.7701 126.051 47.8298 125.839 47.9126C125.626 47.9955 125.459 48.1115 125.336 48.2607C125.214 48.4065 125.152 48.5954 125.152 48.8274C125.152 49.1589 125.273 49.4091 125.515 49.5781C125.757 49.7472 126.066 49.8317 126.44 49.8317ZM131.814 53.8636V43.3636H133.584V44.6264H133.689C133.781 44.4408 133.912 44.2436 134.081 44.0348C134.25 43.8227 134.479 43.642 134.767 43.4929C135.056 43.3404 135.424 43.2642 135.871 43.2642C136.461 43.2642 136.993 43.415 137.467 43.7166C137.944 44.0149 138.322 44.4574 138.601 45.044C138.882 45.6274 139.023 46.3433 139.023 47.1918C139.023 48.0303 138.886 48.7429 138.611 49.3295C138.335 49.9162 137.961 50.3636 137.487 50.6719C137.013 50.9801 136.476 51.1342 135.876 51.1342C135.439 51.1342 135.076 51.0613 134.787 50.9155C134.499 50.7696 134.267 50.594 134.091 50.3885C133.919 50.1797 133.785 49.9825 133.689 49.7969H133.614V53.8636H131.814ZM133.579 47.1818C133.579 47.6757 133.649 48.1082 133.788 48.4794C133.931 48.8506 134.134 49.1406 134.4 49.3494C134.668 49.5549 134.993 49.6577 135.374 49.6577C135.772 49.6577 136.105 49.5516 136.373 49.3395C136.642 49.1241 136.844 48.8307 136.98 48.4595C137.119 48.085 137.189 47.6591 137.189 47.1818C137.189 46.7079 137.121 46.2869 136.985 45.919C136.849 45.5511 136.647 45.2628 136.378 45.054C136.11 44.8452 135.775 44.7408 135.374 44.7408C134.99 44.7408 134.663 44.8419 134.395 45.044C134.126 45.2462 133.922 45.5296 133.783 45.8942C133.647 46.2588 133.579 46.688 133.579 47.1818ZM141.749 43.3636L143.29 46.1825L144.856 43.3636H146.76L144.458 47.1818L146.8 51H144.906L143.29 48.2507L141.689 51H139.78L142.107 47.1818L139.84 43.3636H141.749ZM149.887 48.5639L152.945 43.3636H154.794V51H153.054V45.7947L150.007 51H148.152V43.3636H149.887V48.5639ZM156.642 51V43.3636H159.849C160.754 43.3636 161.468 43.5443 161.992 43.9055C162.519 44.2668 162.782 44.7706 162.782 45.4169C162.782 45.8445 162.633 46.1941 162.335 46.4659C162.04 46.7344 161.637 46.915 161.127 47.0078C161.528 47.041 161.879 47.142 162.181 47.3111C162.486 47.4801 162.724 47.7022 162.897 47.9773C163.069 48.2524 163.155 48.5689 163.155 48.9268C163.155 49.3478 163.044 49.714 162.822 50.0256C162.603 50.3338 162.284 50.5741 161.863 50.7464C161.445 50.9155 160.938 51 160.341 51H156.642ZM158.328 49.5831H160.341C160.673 49.5831 160.933 49.5052 161.122 49.3494C161.311 49.1903 161.405 48.9749 161.405 48.7031C161.405 48.3883 161.311 48.1413 161.122 47.9624C160.933 47.7801 160.673 47.6889 160.341 47.6889H158.328V49.5831ZM158.328 46.5256H159.884C160.129 46.5256 160.34 46.4908 160.515 46.4212C160.691 46.3482 160.825 46.2472 160.918 46.1179C161.011 45.9853 161.057 45.8279 161.057 45.6456C161.057 45.3838 160.95 45.1783 160.734 45.0291C160.522 44.88 160.227 44.8054 159.849 44.8054H158.328V46.5256Z" fill="#6C707C"/>
</svg>
