<svg xmlns="http://www.w3.org/2000/svg" width="144" height="44" viewBox="0 0 144 44" fill="none">
  <path d="M68.3974 18.6981L68.8352 15.4875C68.89 15.4875 68.9812 15.5058 69.0724 15.5058C69.1819 15.524 69.2366 15.524 69.2548 15.524C69.346 15.524 69.4372 15.524 69.5102 15.5058C69.5832 15.4875 69.6379 15.4875 69.6926 15.4693C70.0392 16.2172 70.2946 16.7827 70.477 17.1658C70.55 17.3117 70.8236 17.8773 71.3162 18.8441C71.5898 19.4096 71.8817 19.9751 72.1553 20.5224L72.7938 19.2819C73.4505 17.9867 74.0707 16.7098 74.6545 15.451H74.7639C74.8369 15.4875 74.8916 15.4875 74.9464 15.4875C75.0011 15.4875 75.0558 15.4875 75.1288 15.4875C75.293 15.4875 75.4389 15.4693 75.5666 15.451C75.7125 16.7462 75.822 17.8043 75.9314 18.6252C76.0226 19.4461 76.1139 20.0481 76.1503 20.4676L76.4057 22.3283C76.4057 22.3648 76.424 22.4195 76.4422 22.529C76.4605 22.6384 76.4787 22.7114 76.4787 22.7844C76.351 22.7844 76.1868 22.7661 75.9862 22.7479C75.7673 22.7297 75.6396 22.7114 75.6031 22.7114C75.4754 22.7114 75.3112 22.7297 75.1105 22.7479C74.9099 22.7661 74.7822 22.7844 74.7275 22.7844C74.7275 22.0912 74.6727 21.3068 74.5633 20.4129C74.4538 19.519 74.3626 18.6617 74.2714 17.8408C73.9978 18.388 73.7241 18.9353 73.4688 19.4826C73.1951 20.0298 72.9397 20.5771 72.6661 21.1243C72.4837 21.4892 72.2283 22.0547 71.8999 22.7844C71.7905 22.7844 71.6993 22.7844 71.6445 22.7844C71.6081 22.7844 71.5716 22.7844 71.4986 22.7844L70.6777 21.0696C70.4041 20.5041 70.1487 19.9933 69.9298 19.519C69.6744 19.0083 69.419 18.4792 69.1636 17.9685L68.9447 19.8656L68.8352 21.0696L68.7623 22.1277L68.7258 22.7844C68.5616 22.7479 68.4522 22.7297 68.3974 22.7297C68.3245 22.7297 68.2697 22.7297 68.2333 22.7297C68.0873 22.7297 67.9231 22.7479 67.7407 22.7844C67.7407 22.7114 67.7407 22.6749 67.759 22.6202C67.759 22.5837 67.7954 22.4925 67.8319 22.3831C67.8684 22.2189 67.9231 21.9452 67.9779 21.5804C68.0144 21.3068 68.0691 21.0149 68.1238 20.6865C68.1785 20.3582 68.2333 20.0116 68.288 19.6103C68.3245 19.2454 68.361 18.9353 68.3974 18.6981Z" fill="#6C707C"/>
  <path d="M85.4719 19.136C85.4719 19.6833 85.3624 20.2123 85.1435 20.7048C84.9246 21.1974 84.6145 21.6352 84.1949 21.9818C83.7936 22.3466 83.3376 22.602 82.845 22.748C82.3525 22.9121 81.8235 22.9851 81.2397 22.9851C80.6742 22.9851 80.1452 22.8939 79.6344 22.7297C79.1236 22.5655 78.6858 22.2919 78.321 21.9271C77.9561 21.5622 77.6825 21.1609 77.5183 20.6866C77.3541 20.2305 77.2629 19.7198 77.2629 19.1543C77.2629 18.5888 77.3724 18.078 77.5913 17.5854C77.8102 17.0929 78.1203 16.6733 78.5399 16.3085C78.9595 15.9619 79.4155 15.7065 79.908 15.5423C80.4006 15.3781 80.9296 15.3052 81.4951 15.3052C81.9694 15.3052 82.4072 15.3599 82.8268 15.4694C83.2464 15.5788 83.6294 15.7612 83.976 16.0166C84.2679 16.2173 84.5051 16.4179 84.6692 16.6186C84.8699 16.8558 85.0158 17.1111 85.1435 17.3848C85.253 17.6767 85.3442 17.9503 85.3989 18.2239C85.4354 18.5523 85.4719 18.8441 85.4719 19.136ZM81.2944 22.3831C81.714 22.3831 82.0971 22.2737 82.4072 22.0548C82.7173 21.8359 82.991 21.544 83.2099 21.1427C83.3741 20.8325 83.4835 20.4859 83.5565 20.1211C83.6294 19.738 83.6659 19.3549 83.6659 18.9354C83.6659 18.1509 83.5017 17.476 83.1551 16.9287C82.7538 16.272 82.1701 15.9619 81.4221 15.9619C81.1485 15.9619 80.9296 15.9801 80.7654 16.0349C80.6012 16.0896 80.4188 16.1808 80.2182 16.3267C79.8898 16.5639 79.6527 16.8558 79.4885 17.1841C79.3243 17.5125 79.2148 17.8773 79.1601 18.2786C79.1054 18.68 79.0689 19.0813 79.0689 19.5009C79.0689 20.2853 79.2331 20.942 79.5797 21.4528C79.981 22.073 80.5465 22.3831 81.2944 22.3831Z" fill="#6C707C"/>
  <path d="M92.422 21.5257L92.5679 21.5804L92.3308 22.4925C92.0207 22.6567 91.6923 22.7662 91.3275 22.8391C90.9626 22.9121 90.5978 22.9486 90.2147 22.9486C89.8863 22.9486 89.5945 22.9303 89.3391 22.8939C89.3208 22.8939 89.1384 22.8574 88.81 22.7844C88.6459 22.7479 88.4452 22.675 88.2263 22.5837C88.0074 22.4743 87.8067 22.3831 87.6608 22.2736C87.5148 22.1824 87.3507 22.0547 87.223 21.9088C87.1135 21.7993 86.9858 21.6534 86.8764 21.5075C86.6392 21.1973 86.475 20.869 86.3656 20.5224C86.2561 20.1758 86.2014 19.7927 86.2014 19.3914C86.2014 18.7347 86.2926 18.1509 86.475 17.6766C86.6575 17.2023 86.9676 16.7645 87.4419 16.3449C87.825 16.0166 88.281 15.7612 88.81 15.597C89.3391 15.4328 89.8863 15.3599 90.4701 15.3599C90.8532 15.3599 91.2362 15.3963 91.6193 15.4876C92.0024 15.5788 92.349 15.7065 92.6591 15.8706C92.6226 16.0166 92.5862 16.1808 92.5314 16.3814C92.4767 16.5821 92.4402 16.7827 92.4037 16.9469H92.2578C92.0571 16.6551 91.8017 16.4361 91.4916 16.2537C91.1815 16.0895 90.8349 15.9983 90.4883 15.9983C89.6674 15.9983 89.0289 16.3449 88.5729 17.0199C88.1716 17.6036 87.9891 18.3516 87.9891 19.209C87.9891 19.6103 88.0439 20.0116 88.1351 20.3764C88.2263 20.7595 88.3905 21.0879 88.6094 21.3798C88.8283 21.6716 89.1202 21.8905 89.4485 22.0547C89.7951 22.2189 90.16 22.2919 90.5248 22.2919C90.8532 22.2919 91.1998 22.2189 91.5464 22.073C91.8565 21.9635 92.1666 21.7628 92.422 21.5257Z" fill="#6C707C"/>
  <path d="M93.7175 22.8209L93.7905 20.8872V17.6584L93.7175 15.4875C93.8452 15.4875 94.0094 15.5058 94.2101 15.524C94.429 15.5423 94.5567 15.5605 94.5931 15.5605C94.8668 15.5605 95.1404 15.5423 95.414 15.4875L95.3228 17.8955V18.8988C95.8883 18.2604 96.3444 17.6948 96.7275 17.2388C97.2018 16.6733 97.6396 16.0895 98.0592 15.5058C98.2963 15.5423 98.4787 15.5788 98.6429 15.5788C98.8253 15.5788 99.026 15.5605 99.2449 15.5058L99.2267 15.597L97.4754 17.4759C97.3112 17.6401 97.2018 17.7861 97.1106 17.8773C97.0741 17.9138 96.8734 18.1509 96.5268 18.5887L99.3361 22.7297V22.8574C99.2084 22.8574 99.026 22.8391 98.7888 22.8391C98.5699 22.8209 98.424 22.8209 98.3875 22.8209C98.1139 22.8209 97.8038 22.8391 97.4754 22.8756L96.4356 21.2521L95.3046 19.5191L95.3776 22.8756C95.2499 22.8756 95.0857 22.8574 94.885 22.8574C94.6844 22.8391 94.5567 22.8391 94.5019 22.8391C94.3742 22.8391 94.2283 22.8391 94.0276 22.8574C93.8635 22.8026 93.754 22.8209 93.7175 22.8209Z" fill="#6C707C"/>
  <path d="M107.673 19.136C107.673 19.6833 107.563 20.2123 107.344 20.7048C107.125 21.1974 106.815 21.6352 106.396 21.9818C105.976 22.3466 105.538 22.602 105.046 22.748C104.553 22.9121 104.024 22.9851 103.44 22.9851C102.875 22.9851 102.346 22.8939 101.835 22.7297C101.324 22.5655 100.887 22.2919 100.522 21.9271C100.157 21.5622 99.8833 21.1609 99.7191 20.6866C99.5549 20.2305 99.4819 19.7198 99.4819 19.1543C99.4819 18.5888 99.5914 18.078 99.8103 17.5854C100.029 17.0929 100.339 16.6733 100.759 16.3085C101.178 15.9619 101.635 15.7065 102.127 15.5423C102.62 15.3781 103.149 15.3052 103.714 15.3052C104.188 15.3052 104.626 15.3599 105.046 15.4694C105.465 15.5788 105.848 15.7612 106.195 16.0166C106.487 16.2173 106.724 16.4179 106.888 16.6186C107.089 16.8558 107.235 17.1111 107.363 17.3848C107.472 17.6767 107.563 17.9503 107.618 18.2239C107.654 18.5523 107.673 18.8441 107.673 19.136ZM103.513 22.3831C103.933 22.3831 104.316 22.2737 104.626 22.0548C104.936 21.8359 105.21 21.544 105.429 21.1427C105.593 20.8325 105.702 20.4859 105.775 20.1211C105.848 19.738 105.885 19.3549 105.885 18.9354C105.885 18.1509 105.721 17.476 105.374 16.9287C104.973 16.272 104.389 15.9619 103.641 15.9619C103.368 15.9619 103.149 15.9801 102.984 16.0349C102.82 16.0896 102.638 16.1808 102.437 16.3267C102.109 16.5639 101.872 16.8558 101.707 17.1841C101.543 17.5125 101.434 17.8773 101.379 18.2786C101.306 18.68 101.288 19.0813 101.288 19.5009C101.288 20.2853 101.452 20.942 101.799 21.4528C102.182 22.073 102.766 22.3831 103.513 22.3831Z" fill="#6C707C"/>
  <path d="M111.996 18.8624V18.9536C112.233 18.9536 112.452 18.9901 112.689 19.0813C112.926 19.1725 113.145 19.2819 113.327 19.4279C113.729 19.7745 113.911 20.194 113.911 20.7048C113.911 21.2521 113.729 21.7264 113.346 22.1459C113.181 22.3101 112.981 22.4561 112.744 22.5473C112.561 22.6202 112.324 22.6932 112.032 22.7479C111.959 22.7662 111.85 22.7662 111.722 22.7844C111.594 22.8027 111.448 22.8027 111.321 22.8027L109.752 22.7662L108.822 22.8027C108.858 22.602 108.876 22.3649 108.895 22.0912C108.913 21.8176 108.913 21.5622 108.913 21.3251C108.913 20.9785 108.913 20.4129 108.931 19.6285C108.949 18.8441 108.949 18.4246 108.949 18.3698C108.949 18.0597 108.931 17.5672 108.913 16.9287C108.876 16.272 108.876 15.7977 108.876 15.4693L110.08 15.5058H111.631C112.251 15.5058 112.725 15.6153 113.09 15.8524C113.528 16.1443 113.747 16.5639 113.747 17.1476C113.747 17.6219 113.564 18.0232 113.218 18.3333C112.908 18.607 112.506 18.7894 111.996 18.8624ZM110.463 18.6799H110.628C110.865 18.6799 111.065 18.6617 111.229 18.6435C111.394 18.607 111.54 18.534 111.704 18.4063C111.868 18.2786 111.977 18.1144 112.05 17.932C112.123 17.7314 112.16 17.5307 112.16 17.3118C112.16 17.1658 112.123 16.9834 112.069 16.801C112.014 16.6003 111.923 16.4726 111.831 16.3814C111.594 16.1808 111.321 16.0896 111.011 16.0896C110.919 16.0896 110.846 16.0896 110.792 16.0896C110.737 16.0896 110.646 16.1078 110.5 16.126C110.5 16.2902 110.5 16.5639 110.482 16.9469C110.463 17.33 110.463 17.5307 110.463 17.5672V18.6799ZM110.463 22.2007H110.992C111.193 22.2007 111.375 22.1642 111.54 22.0912C111.704 22.0183 111.85 21.8906 111.959 21.7264C112.16 21.4345 112.251 21.1244 112.251 20.7778C112.251 20.2488 112.123 19.8657 111.886 19.6285C111.649 19.3731 111.284 19.2637 110.828 19.2637C110.773 19.2637 110.719 19.2637 110.664 19.2637C110.573 19.2637 110.518 19.2637 110.463 19.2637L110.445 20.8325L110.463 22.2007Z" fill="#6C707C"/>
  <path d="M120.971 21.5257L121.117 21.5804L120.88 22.4925C120.57 22.6567 120.242 22.7662 119.877 22.8391C119.512 22.9121 119.147 22.9486 118.764 22.9486C118.436 22.9486 118.144 22.9303 117.888 22.8939C117.87 22.8939 117.688 22.8574 117.359 22.7844C117.195 22.7479 116.995 22.675 116.776 22.5837C116.557 22.4743 116.356 22.3831 116.21 22.2736C116.064 22.1824 115.9 22.0547 115.772 21.9088C115.663 21.7993 115.535 21.6534 115.426 21.5075C115.189 21.1973 115.024 20.869 114.915 20.5224C114.805 20.1758 114.751 19.7927 114.751 19.3914C114.751 18.7347 114.842 18.1509 115.024 17.6766C115.207 17.2023 115.535 16.7645 115.991 16.3449C116.374 16.0166 116.83 15.7612 117.359 15.597C117.888 15.4328 118.436 15.3599 119.019 15.3599C119.402 15.3599 119.786 15.3963 120.169 15.4876C120.552 15.5788 120.898 15.7065 121.208 15.8706C121.172 16.0166 121.135 16.1808 121.081 16.3814C121.026 16.5821 120.99 16.7827 120.953 16.9469H120.771C120.57 16.6551 120.315 16.4361 120.004 16.2537C119.694 16.0895 119.348 15.9983 119.001 15.9983C118.18 15.9983 117.542 16.3449 117.086 17.0199C116.684 17.6036 116.502 18.3516 116.502 19.209C116.502 19.6103 116.557 20.0116 116.648 20.3764C116.739 20.7595 116.903 21.0879 117.122 21.3798C117.341 21.6716 117.633 21.8905 117.961 22.0547C118.308 22.2189 118.673 22.2919 119.038 22.2919C119.366 22.2919 119.713 22.2189 120.059 22.073C120.424 21.9635 120.716 21.7628 120.971 21.5257Z" fill="#6C707C"/>
  <path d="M122.266 22.8209L122.339 20.8872V17.6584L122.266 15.4875C122.394 15.4875 122.558 15.5058 122.759 15.524C122.978 15.5423 123.087 15.5605 123.142 15.5605C123.415 15.5605 123.689 15.5423 123.963 15.4875L123.871 17.8955V18.8988C124.437 18.2604 124.893 17.6948 125.276 17.2388C125.75 16.6733 126.188 16.0895 126.608 15.5058C126.845 15.5423 127.027 15.5788 127.191 15.5788C127.374 15.5788 127.575 15.5605 127.793 15.5058L127.775 15.597L126.06 17.4395C125.896 17.6036 125.787 17.7496 125.696 17.8408C125.659 17.8773 125.458 18.1144 125.112 18.5522L127.921 22.6932V22.8209C127.793 22.8209 127.611 22.8026 127.374 22.8026C127.155 22.7844 127.009 22.7844 126.973 22.7844C126.699 22.7844 126.389 22.8026 126.06 22.8391L125.021 21.2156L123.89 19.4826L123.963 22.8391C123.835 22.8391 123.671 22.8209 123.47 22.8209C123.269 22.8026 123.142 22.8026 123.087 22.8026C122.959 22.8026 122.813 22.8026 122.613 22.8209C122.412 22.8026 122.303 22.8209 122.266 22.8209Z" fill="#6C707C"/>
  <path d="M135.419 22.8209C135.346 22.8026 135.218 22.7844 135.036 22.7844C134.853 22.7662 134.689 22.7662 134.507 22.7662L133.722 22.8026L133.649 22.8209C133.649 22.5837 133.668 22.0182 133.704 21.1061C133.722 20.7413 133.722 20.3947 133.722 20.0846V19.1177L133.686 17.6766C133.467 17.932 133.266 18.1691 133.084 18.4063C132.847 18.6982 132.61 18.99 132.391 19.3002C132.081 19.7197 131.661 20.2852 131.132 21.0149C130.366 22.073 129.928 22.6749 129.819 22.8209C129.636 22.7844 129.49 22.7662 129.344 22.7662C129.253 22.7662 129.162 22.7844 129.052 22.8026L128.943 22.8209V20.5589V19.4643C128.943 19.136 128.943 18.7894 128.925 18.4063C128.907 18.0232 128.888 17.7131 128.888 17.4577C128.888 17.2935 128.888 17.1293 128.87 16.9469C128.834 16.4909 128.815 16.199 128.815 16.0895L128.779 15.5058L129.654 15.5423L130.53 15.4875L130.512 15.6882C130.512 15.8341 130.494 16.0531 130.475 16.3267C130.457 16.6186 130.439 16.8375 130.439 16.9834V18.1691V20.5224C130.694 20.2123 131.004 19.8292 131.369 19.3731C131.533 19.1542 131.716 18.9353 131.898 18.7164C132.3 18.2056 132.701 17.6766 133.084 17.1658C133.485 16.6368 133.887 16.0895 134.288 15.4875C134.47 15.524 134.635 15.5423 134.762 15.5423C134.908 15.5423 135.072 15.524 135.237 15.4875L135.2 15.9983V17.7131C135.2 18.7346 135.218 19.6285 135.237 20.3947C135.291 21.1791 135.346 21.9817 135.419 22.8209Z" fill="#6C707C"/>
  <path d="M143.536 22.8209C143.463 22.8026 143.336 22.7844 143.153 22.7844C142.971 22.7661 142.807 22.7661 142.624 22.7661L141.84 22.8026L141.767 22.8209C141.767 22.5837 141.785 22.0182 141.822 21.1061C141.84 20.7413 141.84 20.3947 141.84 20.0846V19.1177L141.803 17.6766C141.584 17.932 141.384 18.1691 141.201 18.4063C140.964 18.6982 140.727 18.99 140.508 19.3001C140.198 19.7197 139.778 20.2852 139.249 21.0149C138.483 22.0729 138.045 22.6749 137.936 22.8209C137.754 22.7844 137.608 22.7661 137.462 22.7661C137.371 22.7661 137.279 22.7844 137.17 22.8026L137.06 22.8209V20.5589V19.4643C137.06 19.136 137.06 18.7894 137.042 18.4063C137.024 18.0232 137.006 17.7131 137.006 17.4577C137.006 17.2935 137.006 17.1293 136.987 16.9469C136.951 16.4909 136.933 16.199 136.933 16.0895L136.896 15.5058L137.772 15.5423L138.647 15.4875L138.629 15.6882C138.629 15.8341 138.611 16.053 138.593 16.3267C138.575 16.6186 138.556 16.8375 138.556 16.9834V18.1691V20.5224C138.812 20.2123 139.122 19.8292 139.487 19.3731C139.651 19.1542 139.833 18.9353 140.016 18.7164C140.417 18.2056 140.818 17.6766 141.201 17.1658C141.603 16.6368 142.004 16.0895 142.424 15.4875C142.606 15.524 142.77 15.5423 142.898 15.5423C143.044 15.5423 143.208 15.524 143.372 15.4875L143.336 15.9983V17.7131C143.336 18.7346 143.354 19.6285 143.372 20.3947C143.409 21.1791 143.463 21.9817 143.536 22.8209ZM141.931 13.9187C141.785 14.2471 141.566 14.5207 141.274 14.7396C140.982 14.9403 140.636 15.0497 140.216 15.0497C139.815 15.0497 139.468 14.9403 139.158 14.7396C138.866 14.539 138.647 14.2653 138.502 13.9187L138.848 13.7363C139.14 14.1924 139.614 14.4113 140.235 14.4113C140.526 14.4113 140.8 14.3565 141.037 14.2471C141.274 14.1376 141.457 13.9734 141.603 13.7363L141.931 13.9187Z" fill="#6C707C"/>
  <path d="M67.4124 25.995C67.5583 25.995 67.7407 26.0133 67.9961 26.0315C68.2333 26.0498 68.3792 26.068 68.4157 26.068C68.744 26.068 69.0541 26.0498 69.3643 25.995L69.8568 26.9254L70.3858 27.9287C70.4405 28.0199 70.4953 28.1476 70.5865 28.2753C70.7689 28.5854 70.8784 28.7861 70.9331 28.8773C70.9696 28.9503 71.0608 29.1145 71.1885 29.3334C71.3162 29.5523 71.4074 29.6982 71.4439 29.7347L71.608 29.5158L71.7905 29.1874C71.8452 29.0962 71.9729 28.7861 72.1918 28.2936C72.356 27.9105 72.5019 27.6186 72.5931 27.3997L72.9944 26.5241L73.2316 25.995L73.3593 26.0133C73.487 26.0315 73.5964 26.0498 73.7059 26.0498C73.8701 26.0498 74.0342 26.0315 74.2349 25.9768C74.1072 26.2322 73.8518 26.67 73.5235 27.2902C73.3046 27.6916 73.0674 28.1294 72.8303 28.5854C72.5384 29.1509 72.283 29.6435 72.1006 30.0448C72.0276 30.1907 71.9182 30.4096 71.7905 30.7015C71.6263 31.0299 71.5351 31.2305 71.5168 31.2853C71.3891 31.5589 71.2614 31.9055 71.1155 32.2886C70.9696 32.6717 70.8419 33.0183 70.7689 33.3101C70.5865 33.3101 70.4588 33.3101 70.3493 33.2919C70.2581 33.2919 70.1669 33.2737 70.0575 33.2737C69.9845 33.2737 69.8386 33.2919 69.6379 33.3101C69.8203 33 70.0027 32.6899 70.1669 32.3798C70.3311 32.0697 70.4953 31.7596 70.623 31.4494C70.5865 31.3582 70.5135 31.1941 70.3858 30.9751C70.2581 30.738 70.1304 30.5191 70.0027 30.2819C69.7291 29.7894 69.419 29.2604 69.1089 28.7131C68.7805 28.1659 68.5251 27.728 68.288 27.3632C67.9779 26.9254 67.686 26.4511 67.4124 25.995Z" fill="#6C707C"/>
  <path d="M75.3658 25.995C75.4935 25.995 75.6576 25.995 75.8583 26.0315C76.059 26.0498 76.1867 26.0498 76.2414 26.0498C76.3691 26.0498 76.5333 26.0498 76.7522 26.0315C76.9528 26.0133 77.0805 25.995 77.1352 25.995C77.1352 26.1957 77.117 26.4511 77.0988 26.8159C77.0805 27.1625 77.0623 27.3997 77.0623 27.4909V27.9469V28.932C77.2447 28.932 77.5548 28.932 77.9926 28.9503C78.4304 28.9685 78.6676 28.9685 78.7041 28.9685C78.9047 28.9685 79.2149 28.9685 79.6344 28.9503C80.0722 28.932 80.2911 28.932 80.3276 28.932L80.3094 27.4179C80.3094 27.199 80.3094 27.0348 80.2911 26.8889C80.2547 26.3416 80.2364 26.0498 80.2364 25.995C80.3641 25.995 80.5283 25.995 80.7289 26.0315C80.9479 26.0498 81.0755 26.0498 81.112 26.0498C81.2215 26.0498 81.3857 26.0498 81.6046 26.0315C81.8235 26.0133 81.9512 25.995 82.0059 25.995C82.0059 26.1957 82.0059 26.3781 81.9877 26.5423C81.9329 27.1078 81.9147 27.4179 81.9147 27.4544L81.8782 29.9536C81.8782 30.4096 81.8782 30.8474 81.8964 31.2123C81.9512 32.5257 81.9694 33.2371 81.9694 33.3284C81.8417 33.3284 81.6775 33.3101 81.4769 33.2919C81.2762 33.2736 81.1485 33.2554 81.112 33.2554C80.9843 33.2554 80.7837 33.2736 80.5648 33.2919C80.3276 33.3101 80.1999 33.3284 80.1634 33.3284L80.2364 31.8507L80.3094 30.3002V29.7894L78.6676 29.7529L77.0258 29.7894V31.0846C77.0258 31.3765 77.044 31.796 77.0623 32.3068C77.0805 32.8358 77.0988 33.1642 77.0988 33.3101C76.9893 33.3101 76.8251 33.2919 76.6245 33.2736C76.4238 33.2554 76.2961 33.2371 76.2596 33.2371C76.1319 33.2371 75.9495 33.2554 75.7124 33.2736C75.4935 33.2919 75.3475 33.3101 75.311 33.3101C75.311 32.9088 75.3293 32.4163 75.3475 31.8507C75.4205 30.5373 75.4387 29.7164 75.4387 29.3881C75.4387 28.9138 75.4387 28.4942 75.4205 28.1111C75.384 26.7977 75.3658 26.0862 75.3658 25.995Z" fill="#6C707C"/>
  <path d="M90.4158 33.3284C90.3428 33.3101 90.2151 33.3101 90.0327 33.2919C89.8503 33.2736 89.6861 33.2736 89.5037 33.2736L88.7192 33.3101L88.6463 33.3284C88.6463 33.0912 88.6645 32.5257 88.701 31.6136C88.7192 31.2488 88.7192 30.9022 88.7192 30.592V29.6252L88.6828 28.1841C88.4639 28.4395 88.2632 28.6766 88.0808 28.9138C87.8436 29.2056 87.6065 29.4975 87.3876 29.8076C87.0775 30.2272 86.6579 30.7927 86.1289 31.5224C85.3627 32.5804 84.9249 33.1824 84.8154 33.3284C84.633 33.2919 84.4871 33.2736 84.3411 33.2736C84.2499 33.2736 84.1587 33.2919 84.0493 33.3101L83.9398 33.3284V31.0663V29.9718C83.9398 29.6435 83.9398 29.2968 83.9216 28.9138C83.9033 28.5307 83.8851 28.2206 83.8851 27.9652C83.8851 27.801 83.8851 27.6368 83.8668 27.4544C83.8304 26.9983 83.8121 26.7065 83.8121 26.597L83.7756 26.0133L84.6513 26.0498L85.5269 25.995L85.5086 26.1957C85.5086 26.3416 85.4904 26.5605 85.4721 26.8342C85.4539 27.126 85.4357 27.3449 85.4357 27.4909V28.6766V31.0299C85.6911 30.7197 86.0012 30.3367 86.366 29.8806C86.5302 29.6617 86.7126 29.4428 86.895 29.2239C87.2964 28.7131 87.6977 28.1841 88.0808 27.6733C88.4821 27.1443 88.8834 26.597 89.303 25.995C89.4854 26.0315 89.6496 26.0498 89.7773 26.0498C89.9232 26.0498 90.0874 26.0315 90.2516 25.995L90.2151 26.5058V28.2388C90.2151 29.2604 90.2333 30.1542 90.2516 30.9204C90.3063 31.6866 90.3428 32.4892 90.4158 33.3284Z" fill="#6C707C"/>
  <path d="M95.4503 29.3698V29.4611C95.6874 29.4611 95.9063 29.4975 96.1435 29.5887C96.3806 29.68 96.5995 29.7894 96.7819 29.9353C97.1833 30.2819 97.3657 30.7015 97.3657 31.2123C97.3657 31.7596 97.1833 32.2339 96.8002 32.6534C96.636 32.8176 96.4353 32.9635 96.1982 33.0547C96.0158 33.1277 95.7786 33.2007 95.4867 33.2554C95.4138 33.2737 95.3043 33.2737 95.1766 33.2919C95.0489 33.3101 94.903 33.3101 94.7753 33.3101L93.2065 33.2737L92.2761 33.3101C92.3126 33.1095 92.3309 32.8723 92.3491 32.5987C92.3673 32.3251 92.3673 32.0697 92.3673 31.8325C92.3673 31.4859 92.3673 30.9204 92.3856 30.136C92.4038 29.3516 92.4038 28.932 92.4038 28.8773C92.4038 28.5672 92.3856 28.0747 92.3673 27.4362C92.3308 26.7795 92.3309 26.3052 92.3309 25.9768L93.5348 26.0133H95.0854C95.7056 26.0133 96.1799 26.1227 96.5448 26.3599C96.9826 26.6518 97.2015 27.0713 97.2015 27.6551C97.2015 28.1294 97.0191 28.5307 96.6725 28.8408C96.3624 29.1145 95.961 29.2969 95.4503 29.3698ZM93.9179 29.1874H94.1003C94.3375 29.1874 94.5381 29.1692 94.7023 29.1509C94.8665 29.1145 95.0124 29.0415 95.1766 28.9138C95.3408 28.7861 95.4502 28.6219 95.5232 28.4395C95.5962 28.2388 95.6327 28.0382 95.6327 27.8193C95.6327 27.6733 95.5962 27.4909 95.5415 27.3085C95.4867 27.1078 95.3955 26.9801 95.3043 26.8889C95.0672 26.6882 94.7935 26.597 94.4834 26.597C94.3922 26.597 94.3192 26.597 94.2828 26.597C94.228 26.597 94.1368 26.6153 93.9909 26.6335C93.9909 26.7977 93.9909 27.0713 93.9726 27.4544C93.9544 27.8375 93.9544 28.0382 93.9544 28.0747L93.9179 29.1874ZM93.9179 32.7081H94.4469C94.6476 32.7081 94.83 32.6717 94.9942 32.5987C95.1584 32.5257 95.3043 32.398 95.4138 32.2339C95.6144 31.942 95.7056 31.6319 95.7056 31.2853C95.7056 30.7562 95.5779 30.3732 95.3408 30.136C95.1036 29.8806 94.7388 29.7712 94.2828 29.7712C94.228 29.7712 94.1733 29.7712 94.1186 29.7712C94.0274 29.7712 93.9726 29.7712 93.9179 29.7712L93.8997 31.34L93.9179 32.7081Z" fill="#6C707C"/>
  <path d="M98.9344 26.141V25.995C99.1169 25.995 99.4087 26.0133 99.7736 26.0315C100.157 26.0498 100.43 26.068 100.631 26.068C100.978 26.068 101.434 26.0498 102.017 26.0315C102.601 26.0133 102.948 25.995 103.057 25.995C103.021 26.1227 103.021 26.2869 103.021 26.4511C103.021 26.4876 103.021 26.5423 103.021 26.597C103.021 26.6517 103.021 26.7065 103.039 26.7794L103.057 26.9071C102.784 26.9071 102.382 26.8889 101.835 26.8524C101.288 26.8159 100.886 26.7977 100.613 26.7977L100.576 27.9104V29.0962L103.021 29.005C103.002 29.1144 103.002 29.2239 102.984 29.2969C102.966 29.3698 102.966 29.4428 102.966 29.4975C102.966 29.5887 102.966 29.6617 102.984 29.7164C103.002 29.7711 103.002 29.8259 103.021 29.8988C102.82 29.8988 102.492 29.8806 102.072 29.8441C101.653 29.8076 101.324 29.7894 101.105 29.7894H100.576L100.558 31.1575V32.5075C101.324 32.5075 102.145 32.4527 103.039 32.3615C103.002 32.4892 103.002 32.6534 103.002 32.8176C103.002 32.8541 103.002 32.9088 103.002 32.9635C103.002 33.0182 103.002 33.073 103.021 33.1459L103.039 33.2736C102.82 33.2736 102.51 33.2554 102.072 33.2371C101.634 33.2189 101.324 33.2007 101.105 33.2007L99.8465 33.2371L98.8979 33.2736L98.9344 32.6716L98.9892 30.665V29.0415V27.7828C98.9892 27.5091 98.9892 27.3085 98.9892 27.1625C98.9344 26.5058 98.9344 26.141 98.9344 26.141Z" fill="#6C707C"/>
  <path d="M104.535 25.995L105.538 26.0315C105.702 26.0315 105.958 26.0315 106.323 26.0133C106.687 25.995 106.87 25.995 106.888 25.995C107.089 25.995 107.271 25.995 107.472 25.995C107.672 25.995 107.855 26.0133 108.056 26.068C108.493 26.1774 108.858 26.3781 109.114 26.6882C109.369 26.9983 109.515 27.3814 109.515 27.8375C109.515 28.1658 109.478 28.4577 109.387 28.7131C109.314 28.9685 109.15 29.2056 108.949 29.4245C108.731 29.6435 108.512 29.8076 108.256 29.8988C108.092 29.9718 107.818 30.0448 107.435 30.0995C107.308 30.1177 107.162 30.136 106.961 30.136C106.779 30.136 106.669 30.1542 106.651 30.1542H106.177C106.177 30.4096 106.177 30.6468 106.195 30.9022C106.195 31.1575 106.213 31.3947 106.213 31.6501C106.213 31.8507 106.231 32.1244 106.25 32.4892C106.268 32.8541 106.286 33.1459 106.286 33.3284C106.177 33.3284 106.012 33.3284 105.812 33.2919C105.593 33.2736 105.465 33.2554 105.41 33.2554C105.283 33.2554 105.119 33.2554 104.9 33.2919C104.699 33.3101 104.571 33.3284 104.517 33.3284L104.59 32.7629C104.59 32.5987 104.59 32.3615 104.608 32.0879C104.626 31.8143 104.626 31.6501 104.626 31.5954V29.9718C104.626 29.6435 104.626 29.0962 104.608 28.33C104.59 27.5638 104.59 27.1625 104.59 27.0896V26.8342C104.571 26.5605 104.553 26.2869 104.535 25.995ZM106.213 26.597L106.195 27.8922V28.7861L106.158 29.5522C106.323 29.5522 106.432 29.5522 106.523 29.534C106.614 29.534 106.724 29.4975 106.87 29.461C107.198 29.3698 107.435 29.1874 107.581 28.8955C107.709 28.6584 107.782 28.3665 107.782 28.0017C107.782 27.7463 107.745 27.4909 107.672 27.2902C107.6 27.0713 107.472 26.8889 107.289 26.7612C107.198 26.6882 107.089 26.6335 106.998 26.6153C106.888 26.597 106.76 26.5788 106.596 26.5788C106.523 26.5788 106.45 26.5788 106.396 26.5788C106.323 26.597 106.268 26.597 106.213 26.597Z" fill="#6C707C"/>
  <path d="M116.666 32.0514L116.812 32.1062L116.575 33.0183C116.265 33.1824 115.936 33.2919 115.572 33.3649C115.207 33.4378 114.842 33.4743 114.459 33.4743C114.13 33.4743 113.839 33.4561 113.583 33.4196C113.565 33.4196 113.383 33.3831 113.054 33.3101C112.89 33.2736 112.689 33.2007 112.47 33.1095C112.252 33 112.051 32.9088 111.905 32.7994C111.759 32.7081 111.595 32.5804 111.467 32.4345C111.358 32.3251 111.23 32.1791 111.121 32.0332C110.883 31.7231 110.719 31.3947 110.61 31.0481C110.5 30.7015 110.446 30.3184 110.446 29.9171C110.446 29.2604 110.537 28.6766 110.719 28.2023C110.902 27.728 111.212 27.2902 111.686 26.8707C112.069 26.5423 112.525 26.2869 113.054 26.1227C113.583 25.9586 114.13 25.8856 114.714 25.8856C115.097 25.8856 115.48 25.9221 115.863 26.0133C116.247 26.1045 116.593 26.2322 116.903 26.3964C116.867 26.5423 116.83 26.7065 116.776 26.9254C116.721 27.1261 116.684 27.3267 116.648 27.4909H116.502C116.301 27.199 116.046 26.9801 115.736 26.7977C115.426 26.6335 115.079 26.5423 114.732 26.5423C113.912 26.5423 113.273 26.8889 112.817 27.5639C112.416 28.1659 112.233 28.8955 112.233 29.7529C112.233 30.1542 112.288 30.5556 112.379 30.9204C112.47 31.3035 112.635 31.6319 112.854 31.9237C113.072 32.2156 113.364 32.4345 113.693 32.5987C114.039 32.7629 114.404 32.8358 114.769 32.8358C115.097 32.8358 115.444 32.7629 115.79 32.6169C116.119 32.471 116.411 32.2703 116.666 32.0514Z" fill="#6C707C"/>
  <path d="M124.893 33.3284C124.82 33.3101 124.692 33.3101 124.51 33.2919C124.328 33.2736 124.163 33.2736 123.981 33.2736L123.197 33.3101L123.124 33.3284C123.124 33.0912 123.142 32.5257 123.178 31.6136C123.197 31.2488 123.197 30.9022 123.197 30.592V29.6252L123.16 28.1841C122.941 28.4395 122.74 28.6766 122.558 28.9138C122.321 29.2056 122.084 29.4975 121.865 29.8076C121.555 30.2272 121.135 30.7927 120.606 31.5224C119.84 32.5804 119.402 33.1824 119.293 33.3284C119.11 33.2919 118.964 33.2736 118.818 33.2736C118.727 33.2736 118.636 33.2919 118.527 33.3101L118.417 33.3284V31.0663V29.9718C118.417 29.6435 118.417 29.2968 118.399 28.9138C118.381 28.5307 118.362 28.2206 118.362 27.9652C118.362 27.801 118.362 27.6368 118.344 27.4544C118.308 26.9983 118.289 26.7065 118.289 26.597L118.253 26.0133L119.129 26.0498L120.004 25.995L119.986 26.1957C119.986 26.3416 119.968 26.5605 119.949 26.8342C119.931 27.126 119.913 27.3449 119.913 27.4909V28.6766V31.0299C120.168 30.7197 120.478 30.3367 120.843 29.8806C121.007 29.6617 121.19 29.4428 121.372 29.2239C121.774 28.7131 122.175 28.1841 122.558 27.6733C122.959 27.1443 123.361 26.597 123.78 25.995C123.963 26.0315 124.127 26.0498 124.255 26.0498C124.401 26.0498 124.565 26.0315 124.729 25.995L124.692 26.5058V28.2388C124.692 29.2604 124.711 30.1542 124.729 30.9204C124.765 31.6866 124.82 32.4892 124.893 33.3284Z" fill="#6C707C"/>
  <path d="M129.745 26.7977L129.727 27.5821L129.691 30.2455L129.727 31.6136C129.727 31.869 129.727 32.2156 129.745 32.6169C129.763 33.0183 129.763 33.2554 129.763 33.3284C129.636 33.3284 129.472 33.3284 129.271 33.2919C129.052 33.2737 128.924 33.2554 128.888 33.2554C128.76 33.2554 128.596 33.2554 128.377 33.2919C128.176 33.3101 128.049 33.3284 127.994 33.3284C127.994 33.1277 128.012 32.8541 128.049 32.4892C128.085 32.1244 128.103 31.9055 128.103 31.796C128.103 31.2305 128.103 30.5191 128.122 29.6617C128.14 28.8043 128.14 28.2936 128.14 28.1659L128.103 26.7795C127.994 26.7795 127.812 26.7795 127.574 26.7977C127.337 26.8159 127.191 26.8159 127.173 26.8159L126.133 26.9254C126.17 26.7977 126.188 26.6518 126.188 26.4693C126.188 26.4146 126.188 26.3599 126.188 26.3052C126.17 26.214 126.17 26.1592 126.17 26.1227L126.133 25.995L126.936 26.0133C127.155 26.0133 127.52 26.0133 128.049 26.0315C128.578 26.0498 128.851 26.0498 128.888 26.0498H129.982C130.238 26.0498 130.438 26.0498 130.603 26.0315C131.241 25.995 131.588 25.9768 131.642 25.9768C131.624 26.1045 131.606 26.1775 131.606 26.214C131.606 26.2504 131.606 26.3234 131.606 26.3964C131.606 26.597 131.624 26.7612 131.642 26.9072C130.967 26.8524 130.347 26.7977 129.745 26.7977Z" fill="#6C707C"/>
  <path d="M133.011 26.141V25.995C133.193 25.995 133.485 26.0133 133.85 26.0315C134.233 26.0498 134.507 26.068 134.707 26.068C135.054 26.068 135.51 26.0498 136.094 26.0315C136.677 26.0133 137.024 25.995 137.134 25.995C137.097 26.1227 137.097 26.2869 137.097 26.4511C137.097 26.4876 137.097 26.5423 137.097 26.597C137.097 26.6517 137.097 26.7065 137.115 26.7794L137.134 26.9071C136.86 26.9071 136.459 26.8889 135.911 26.8524C135.364 26.8159 134.963 26.7977 134.689 26.7977L134.653 27.9104V29.0962L137.097 29.005C137.079 29.1144 137.079 29.2239 137.061 29.2969C137.042 29.3698 137.042 29.4428 137.042 29.4975C137.042 29.5887 137.042 29.6617 137.061 29.7164C137.079 29.7711 137.079 29.8259 137.097 29.8988C136.896 29.8988 136.568 29.8806 136.148 29.8441C135.729 29.8076 135.401 29.7894 135.182 29.7894H134.634L134.616 31.1575V32.5075C135.382 32.5075 136.203 32.4527 137.097 32.3615C137.061 32.4892 137.061 32.6534 137.061 32.8176C137.061 32.8541 137.061 32.9088 137.061 32.9635C137.061 33.0182 137.061 33.073 137.079 33.1459L137.097 33.2736C136.878 33.2736 136.568 33.2554 136.13 33.2371C135.711 33.2189 135.382 33.2007 135.163 33.2007L133.905 33.2371L132.956 33.2736L132.993 32.6716L133.047 30.665V29.0415V27.7828C133.047 27.5091 133.047 27.3085 133.047 27.1625C133.011 26.5058 133.011 26.141 133.011 26.141Z" fill="#6C707C"/>
  <path d="M141.658 26.7977L141.639 27.5821L141.603 30.2455L141.639 31.6136C141.639 31.869 141.639 32.2156 141.658 32.6169C141.676 33.0183 141.676 33.2554 141.676 33.3284C141.548 33.3284 141.384 33.3284 141.183 33.2919C140.964 33.2737 140.855 33.2554 140.8 33.2554C140.673 33.2554 140.508 33.2554 140.289 33.2919C140.089 33.3101 139.961 33.3284 139.906 33.3284C139.906 33.1277 139.925 32.8541 139.961 32.4892C139.998 32.1244 140.016 31.9055 140.016 31.796C140.016 31.2305 140.016 30.5191 140.034 29.6617C140.052 28.8043 140.052 28.2936 140.052 28.1659L140.016 26.7795C139.906 26.7795 139.724 26.7795 139.487 26.7977C139.231 26.8159 139.104 26.8159 139.085 26.8159L138.046 26.9254C138.082 26.7977 138.1 26.6518 138.1 26.4693C138.1 26.4146 138.1 26.3599 138.1 26.3052C138.082 26.214 138.082 26.1592 138.082 26.1227L138.046 25.995L138.848 26.0133C139.067 26.0133 139.432 26.0133 139.961 26.0315C140.49 26.0498 140.764 26.0498 140.8 26.0498H141.895C142.15 26.0498 142.351 26.0498 142.515 26.0315C143.153 25.995 143.5 25.9768 143.555 25.9768C143.537 26.1045 143.518 26.1775 143.518 26.214C143.518 26.2504 143.518 26.3234 143.518 26.3964C143.518 26.597 143.537 26.7612 143.555 26.9072C142.898 26.8524 142.278 26.7977 141.658 26.7977Z" fill="#6C707C"/>
  <path d="M74.7456 43.8358C74.6726 43.8176 74.5449 43.7994 74.3625 43.7994C74.1801 43.7811 74.0159 43.7811 73.8335 43.7811L73.0491 43.8176L72.9761 43.8358C72.9761 43.5987 72.9944 43.0332 73.0308 42.1211C73.0491 41.7562 73.0491 41.4096 73.0491 41.0995V40.1327L73.0126 38.6916C72.7937 38.9469 72.593 39.1841 72.4106 39.4212C72.1735 39.7131 71.9363 40.005 71.7174 40.3151C71.4073 40.7347 70.9877 41.3002 70.4587 42.0299C69.6925 43.0879 69.2547 43.6899 69.1453 43.8358C68.9629 43.7994 68.8169 43.7811 68.671 43.7811C68.5798 43.7811 68.4886 43.7994 68.3791 43.8176L68.2697 43.8358V41.5738V40.4793C68.2697 40.1509 68.2697 39.8043 68.2514 39.4212C68.2332 39.0382 68.2149 38.728 68.2149 38.4727C68.2149 38.3085 68.2149 38.1443 68.1967 37.9619C68.1602 37.5058 68.142 37.2139 68.142 37.1045L68.1055 36.5207L68.9811 36.5572L69.8567 36.5025L69.8385 36.7032C69.8385 36.8491 69.8202 37.068 69.802 37.3416C69.7837 37.6335 69.7655 37.8524 69.7655 37.9984V39.1841V41.5373C70.0209 41.2272 70.331 40.8441 70.6959 40.3881C70.86 40.1692 71.0425 39.9503 71.2249 39.7314C71.6262 39.2206 72.0275 38.6916 72.4106 38.1808C72.8119 37.6518 73.2133 37.1045 73.6328 36.5025C73.8153 36.539 73.9794 36.5572 74.1071 36.5572C74.2531 36.5572 74.4172 36.539 74.5814 36.5025L74.5449 37.0133V38.7463C74.5449 39.7678 74.5632 40.6617 74.5814 41.4279C74.6179 42.194 74.6726 42.9967 74.7456 43.8358Z" fill="#6C707C"/>
  <path d="M76.5149 39.7313L76.9527 36.5207C77.0074 36.5207 77.0986 36.5389 77.1898 36.5389C77.2993 36.5572 77.354 36.5572 77.3723 36.5572C77.4635 36.5572 77.5547 36.5572 77.6276 36.5389C77.7006 36.5207 77.7553 36.5207 77.8101 36.5025C78.1567 37.2504 78.4121 37.8159 78.5945 38.199C78.6674 38.3449 78.9411 38.9104 79.4336 39.8773C79.7072 40.4428 79.9991 41.0083 80.2727 41.5555L80.9112 40.3151C81.5679 39.0199 82.1882 37.7429 82.7719 36.4842H82.8814C82.9543 36.5207 83.0091 36.5207 83.0638 36.5207C83.1185 36.5207 83.1732 36.5207 83.2462 36.5207C83.4104 36.5207 83.5563 36.5025 83.684 36.4842C83.83 37.7794 83.9394 38.8375 84.0489 39.6584C84.1401 40.4792 84.2313 41.0812 84.2678 41.5008L84.5232 43.3615C84.5232 43.398 84.5414 43.4527 84.5596 43.5622C84.5779 43.6716 84.5961 43.7446 84.5961 43.8176C84.4684 43.8176 84.3043 43.7993 84.1036 43.7811C83.8847 43.7628 83.757 43.7446 83.7205 43.7446C83.5928 43.7446 83.4286 43.7446 83.228 43.7811C83.0273 43.7993 82.8996 43.8176 82.8449 43.8176C82.8449 43.1244 82.7902 42.3399 82.6807 41.4461C82.5713 40.5522 82.48 39.6948 82.3888 38.8739C82.1152 39.4212 81.8416 39.9685 81.5862 40.5157C81.3126 41.063 81.0572 41.6103 80.7835 42.1575C80.6011 42.5224 80.3457 43.0879 80.0174 43.8176C79.9079 43.8176 79.8167 43.8176 79.762 43.8176C79.7255 43.8176 79.689 43.8176 79.616 43.8176L78.7951 42.1028C78.5215 41.5373 78.2661 41.0265 78.0472 40.5522C77.7918 40.0414 77.5364 39.5124 77.281 39.0016L77.0621 40.8988L76.9527 42.1028L76.8797 43.1608L76.8432 43.8176C76.6791 43.7811 76.5696 43.7628 76.5149 43.7628C76.4419 43.7628 76.3872 43.7628 76.3507 43.7628C76.2048 43.7628 76.0406 43.7811 75.8582 43.8176C75.8582 43.7446 75.8582 43.7081 75.8764 43.6534C75.8764 43.6169 75.9129 43.5257 75.9494 43.4162C75.9858 43.252 76.0406 42.9784 76.0953 42.6136C76.1318 42.3399 76.1865 42.0481 76.2412 41.7197C76.296 41.3914 76.3507 41.0448 76.4054 40.6434C76.4419 40.2603 76.4784 39.9502 76.5149 39.7313Z" fill="#6C707C"/>
  <path d="M95.7604 42.5589L95.9063 42.6136L95.6692 43.5257C95.359 43.6899 95.0307 43.7994 94.6658 43.8723C94.301 43.9453 93.9361 43.9818 93.5531 43.9818C93.2247 43.9818 92.9328 43.9635 92.6774 43.9271C92.6592 43.9271 92.4768 43.8906 92.1484 43.8176C91.9842 43.7811 91.7836 43.7082 91.5647 43.6169C91.3458 43.5075 91.1451 43.4163 90.9992 43.3068C90.8532 43.2156 90.689 43.0879 90.5614 42.942C90.4519 42.8325 90.3242 42.6866 90.2148 42.5407C89.9776 42.2305 89.8134 41.9022 89.704 41.5556C89.5945 41.209 89.5398 40.8259 89.5398 40.4246C89.5398 39.7679 89.631 39.1841 89.8134 38.7098C89.9958 38.2355 90.3242 37.7977 90.7803 37.3781C91.1633 37.0498 91.6194 36.7944 92.1484 36.6302C92.6774 36.466 93.2247 36.3931 93.8085 36.3931C94.1915 36.3931 94.5746 36.4296 94.9577 36.5208C95.3408 36.612 95.6874 36.7397 95.9975 36.9038C95.961 37.0498 95.9245 37.214 95.8698 37.4146C95.8151 37.6153 95.7786 37.816 95.7421 37.9801H95.5962C95.3955 37.6883 95.1401 37.4694 94.83 37.2869C94.5199 37.1228 94.1733 37.0315 93.8267 37.0315C93.0058 37.0315 92.3673 37.3781 91.9113 38.0531C91.5099 38.6368 91.3275 39.3848 91.3275 40.2422C91.3275 40.6435 91.3823 41.0448 91.4735 41.4096C91.5647 41.7927 91.7289 42.1211 91.9478 42.413C92.1667 42.7048 92.4585 42.9237 92.7869 43.0879C93.1335 43.2521 93.4983 43.3251 93.8632 43.3251C94.1915 43.3251 94.5381 43.2521 94.8847 43.1062C95.2131 42.9785 95.505 42.7961 95.7604 42.5589Z" fill="#6C707C"/>
  <path d="M97.8217 43.9635C97.5845 43.9635 97.3656 43.8723 97.2014 43.7081C97.0372 43.544 96.946 43.3251 96.946 43.0879C96.946 42.8508 97.0372 42.6501 97.2014 42.4677C97.3838 42.2852 97.5845 42.2123 97.8217 42.2123C98.0588 42.2123 98.2595 42.3035 98.4419 42.4677C98.6243 42.6318 98.7155 42.8508 98.7155 43.0879C98.7155 43.3251 98.6243 43.544 98.4601 43.7081C98.2777 43.8723 98.0588 43.9635 97.8217 43.9635Z" fill="#6C707C"/>
  <path d="M85.9098 43.9635C85.6727 43.9635 85.4537 43.8723 85.2896 43.7081C85.1254 43.544 85.0342 43.3251 85.0342 43.0879C85.0342 42.8508 85.1254 42.6501 85.2896 42.4677C85.472 42.2852 85.6727 42.2123 85.9098 42.2123C86.1469 42.2123 86.3476 42.3035 86.53 42.4677C86.7125 42.6318 86.8037 42.8508 86.8037 43.0879C86.8037 43.3251 86.7125 43.544 86.5483 43.7081C86.3841 43.8723 86.1652 43.9635 85.9098 43.9635Z" fill="#6C707C"/>
  <path d="M102.054 40.2968C101.945 40.2968 101.853 40.2968 101.744 40.2968C101.634 40.2968 101.525 40.2968 101.416 40.2968H101.306V41.592C101.306 41.8839 101.324 42.2852 101.343 42.8142C101.361 43.3433 101.379 43.6716 101.379 43.8176C101.27 43.8176 101.105 43.8176 100.905 43.7993C100.704 43.7811 100.576 43.7811 100.54 43.7811C100.412 43.7811 100.23 43.7811 100.011 43.7993C99.792 43.8176 99.6461 43.8176 99.6096 43.8176C99.6096 43.4162 99.6279 42.9237 99.6461 42.3582C99.7191 41.0448 99.7373 40.2239 99.7373 39.8955C99.7373 39.4212 99.7373 39.0016 99.7191 38.6186C99.6643 37.2869 99.6461 36.5754 99.6461 36.5025C99.7738 36.5025 99.938 36.5207 100.139 36.5207C100.339 36.539 100.467 36.539 100.503 36.539C100.631 36.539 100.795 36.5207 100.996 36.5207C101.197 36.5025 101.324 36.5025 101.361 36.5025C101.361 36.7031 101.343 36.9585 101.324 37.3234C101.306 37.67 101.288 37.9071 101.288 37.9983V38.4544V39.4395C101.416 39.4395 101.543 39.4395 101.689 39.4395C101.817 39.4395 101.963 39.4395 102.091 39.4395C102.164 39.0381 102.309 38.655 102.492 38.2902C102.693 37.9254 102.93 37.6152 103.24 37.3416C103.623 36.995 104.061 36.7579 104.517 36.5937C104.991 36.4295 105.484 36.3565 106.031 36.3565C106.487 36.3565 106.906 36.4113 107.308 36.5207C107.709 36.6302 108.074 36.8126 108.402 37.068C108.676 37.2686 108.895 37.4693 109.077 37.6882C109.26 37.9071 109.387 38.1443 109.497 38.4179C109.606 38.6915 109.679 38.9834 109.734 39.2753C109.789 39.5672 109.807 39.859 109.807 40.1509C109.807 40.6982 109.698 41.2272 109.497 41.7197C109.296 42.2123 108.986 42.6501 108.603 42.9967C108.202 43.3615 107.782 43.6169 107.326 43.7628C106.87 43.927 106.359 44 105.794 44C105.283 44 104.79 43.9088 104.28 43.7264C103.787 43.5439 103.367 43.2885 103.021 42.9237C102.674 42.5771 102.437 42.1758 102.273 41.738C102.127 41.3549 102.054 40.8623 102.054 40.2968ZM105.848 43.398C106.232 43.398 106.578 43.2885 106.87 43.0696C107.162 42.8507 107.417 42.5589 107.618 42.1575C107.764 41.8474 107.873 41.5008 107.946 41.136C108.019 40.7711 108.037 40.3698 108.037 39.9502C108.037 39.1658 107.873 38.4909 107.563 37.9436C107.198 37.2869 106.669 36.9768 105.994 36.9768C105.757 36.9768 105.557 36.995 105.392 37.0497C105.246 37.1045 105.064 37.1957 104.9 37.3416C104.772 37.4511 104.644 37.5788 104.517 37.7429C104.389 37.9071 104.298 38.0713 104.207 38.2355C104.079 38.5273 103.969 38.8922 103.915 39.2935C103.86 39.7131 103.824 40.1144 103.824 40.5157C103.824 41.3002 103.988 41.9386 104.298 42.4676C104.644 43.0879 105.173 43.398 105.848 43.398Z" fill="#6C707C"/>
  <path d="M110.902 43.9635C110.664 43.9635 110.445 43.8723 110.281 43.7081C110.117 43.544 110.026 43.3251 110.026 43.0879C110.026 42.8508 110.117 42.6501 110.281 42.4677C110.464 42.2852 110.664 42.2123 110.902 42.2123C111.139 42.2123 111.339 42.3035 111.522 42.4677C111.704 42.6318 111.795 42.8508 111.795 43.0879C111.795 43.3251 111.704 43.544 111.54 43.7081C111.376 43.8723 111.157 43.9635 110.902 43.9635Z" fill="#6C707C"/>
  <path d="M116.356 39.8773V39.9685C116.593 39.9685 116.812 40.005 117.049 40.0962C117.286 40.1874 117.505 40.2968 117.687 40.4428C118.089 40.7894 118.271 41.2089 118.271 41.7197C118.271 42.267 118.089 42.7413 117.706 43.1608C117.542 43.325 117.341 43.471 117.104 43.5622C116.921 43.6351 116.684 43.7081 116.392 43.7628C116.319 43.7811 116.21 43.7811 116.082 43.7993C115.954 43.8176 115.808 43.8176 115.681 43.8176L114.112 43.7811L113.182 43.8176C113.218 43.6169 113.236 43.3797 113.255 43.1061C113.273 42.8325 113.273 42.5771 113.273 42.3399C113.273 41.9933 113.273 41.4278 113.291 40.6434C113.309 39.859 113.309 39.4394 113.309 39.3847C113.309 39.0746 113.291 38.5821 113.273 37.9436C113.236 37.2869 113.236 36.8126 113.236 36.4842L114.44 36.5207H115.991C116.611 36.5207 117.085 36.6302 117.45 36.8673C117.888 37.1592 118.107 37.5788 118.107 38.1625C118.107 38.6368 117.925 39.0381 117.578 39.3482C117.25 39.6401 116.848 39.8043 116.356 39.8773ZM114.805 39.6948H114.988C115.225 39.6948 115.425 39.6766 115.59 39.6584C115.754 39.6219 115.9 39.5489 116.064 39.4212C116.228 39.2935 116.338 39.1293 116.41 38.9469C116.483 38.7462 116.52 38.5456 116.52 38.3267C116.52 38.1807 116.483 37.9983 116.429 37.8159C116.374 37.6152 116.283 37.4875 116.192 37.3963C115.954 37.1957 115.681 37.1045 115.371 37.1045C115.279 37.1045 115.207 37.1045 115.152 37.1045C115.097 37.1045 115.006 37.1227 114.86 37.1409C114.86 37.3051 114.86 37.5788 114.842 37.9618C114.823 38.3449 114.823 38.5638 114.823 38.5821L114.805 39.6948ZM114.805 43.2338H115.334C115.535 43.2338 115.717 43.1973 115.881 43.1244C116.046 43.0514 116.192 42.9237 116.301 42.7595C116.502 42.4676 116.593 42.1575 116.593 41.8109C116.593 41.2819 116.465 40.8988 116.228 40.6617C115.991 40.4245 115.626 40.2968 115.17 40.2968C115.115 40.2968 115.061 40.2968 115.006 40.2968C114.915 40.2968 114.86 40.2968 114.805 40.2968L114.787 41.8656L114.805 43.2338Z" fill="#6C707C"/>
  <path d="M126.079 43.8358C126.006 43.8176 125.878 43.7994 125.696 43.7994C125.514 43.7811 125.349 43.7811 125.167 43.7811L124.383 43.8176L124.31 43.8358C124.31 43.5987 124.328 43.0332 124.364 42.1211C124.383 41.7562 124.383 41.4096 124.383 41.0995V40.1327L124.346 38.6916C124.127 38.9469 123.927 39.1841 123.744 39.4212C123.507 39.7131 123.27 40.005 123.051 40.3151C122.741 40.7347 122.321 41.3002 121.792 42.0299C121.026 43.0879 120.588 43.6899 120.479 43.8358C120.296 43.7994 120.15 43.7811 120.004 43.7811C119.913 43.7811 119.822 43.7994 119.713 43.8176L119.603 43.8358V41.5738V40.4793C119.603 40.1509 119.603 39.8043 119.585 39.4212C119.567 39.0382 119.548 38.728 119.548 38.4727C119.548 38.3085 119.548 38.1443 119.53 37.9619C119.494 37.5058 119.475 37.2139 119.475 37.1045L119.439 36.5207L120.315 36.5572L121.19 36.5025L121.172 36.7032C121.172 36.8491 121.154 37.068 121.135 37.3416C121.117 37.6335 121.099 37.8524 121.099 37.9984V39.1841V41.5373C121.354 41.2272 121.665 40.8441 122.029 40.3881C122.194 40.1692 122.376 39.9503 122.558 39.7314C122.96 39.2206 123.361 38.6916 123.744 38.1808C124.145 37.6518 124.547 37.1045 124.966 36.5025C125.149 36.539 125.313 36.5572 125.441 36.5572C125.587 36.5572 125.751 36.539 125.915 36.5025L125.878 37.0133V38.7463C125.878 39.7678 125.897 40.6617 125.915 41.4279C125.97 42.194 126.006 42.9967 126.079 43.8358Z" fill="#6C707C"/>
  <path d="M130.621 37.3051L130.603 38.0895L130.566 40.7529L130.603 42.121C130.603 42.3764 130.603 42.723 130.621 43.1244C130.639 43.5257 130.639 43.7628 130.639 43.8358C130.512 43.8358 130.348 43.8176 130.147 43.7993C129.928 43.7811 129.8 43.7628 129.764 43.7628C129.636 43.7628 129.472 43.7628 129.253 43.7993C129.052 43.8176 128.925 43.8358 128.87 43.8358C128.87 43.6351 128.888 43.3615 128.925 42.9967C128.961 42.6318 128.979 42.4129 128.979 42.3035C128.979 41.738 128.979 41.0265 128.998 40.1691C129.016 39.3118 129.016 38.801 129.016 38.6733L128.979 37.2869C128.87 37.2869 128.688 37.2869 128.45 37.3051C128.195 37.3234 128.067 37.3234 128.049 37.3234L127.009 37.4328C127.046 37.3051 127.064 37.1592 127.064 36.9768C127.064 36.922 127.064 36.8673 127.064 36.8126C127.046 36.7214 127.046 36.6666 127.046 36.6302L127.009 36.5025L127.812 36.5207C128.031 36.5207 128.396 36.5207 128.925 36.5389C129.454 36.5572 129.727 36.5572 129.764 36.5572H130.858C131.114 36.5572 131.314 36.5572 131.479 36.5389C132.117 36.5025 132.464 36.4842 132.518 36.4842C132.5 36.6119 132.482 36.6849 132.482 36.7214C132.482 36.7579 132.482 36.8308 132.482 36.9038C132.482 37.1045 132.5 37.2686 132.518 37.4146C131.862 37.3598 131.223 37.3051 130.621 37.3051Z" fill="#6C707C"/>
  <path d="M136.586 37.3051L136.568 38.0895L136.532 40.7529L136.568 42.121C136.568 42.3764 136.568 42.723 136.586 43.1244C136.605 43.5257 136.605 43.7628 136.605 43.8358C136.477 43.8358 136.313 43.8176 136.112 43.7993C135.893 43.7811 135.784 43.7628 135.729 43.7628C135.601 43.7628 135.437 43.7628 135.218 43.7993C135.017 43.8176 134.89 43.8358 134.835 43.8358C134.835 43.6351 134.853 43.3615 134.89 42.9967C134.926 42.6318 134.945 42.4129 134.945 42.3035C134.945 41.738 134.945 41.0265 134.963 40.1691C134.981 39.3118 134.981 38.801 134.981 38.6733L134.945 37.2869C134.835 37.2869 134.653 37.2869 134.415 37.3051C134.178 37.3234 134.032 37.3234 134.014 37.3234L132.974 37.4328C133.011 37.3051 133.029 37.1592 133.029 36.9768C133.029 36.922 133.029 36.8673 133.029 36.8126C133.011 36.7214 133.011 36.6666 133.011 36.6302L132.974 36.5025L133.777 36.5207C133.996 36.5207 134.361 36.5207 134.89 36.5389C135.419 36.5572 135.692 36.5572 135.729 36.5572H136.823C137.079 36.5572 137.28 36.5572 137.444 36.5389C138.082 36.5025 138.429 36.4842 138.483 36.4842C138.465 36.6119 138.447 36.6849 138.447 36.7214C138.447 36.7579 138.447 36.8308 138.447 36.9038C138.447 37.1045 138.465 37.2686 138.483 37.4146C137.827 37.3598 137.188 37.3051 136.586 37.3051Z" fill="#6C707C"/>
  <path d="M139.541 36.6484V36.5025C139.724 36.5025 140.016 36.5207 140.381 36.539C140.764 36.5572 141.037 36.5755 141.238 36.5755C141.584 36.5755 142.041 36.5572 142.624 36.539C143.208 36.5207 143.555 36.5025 143.664 36.5025C143.628 36.6302 143.628 36.7944 143.628 36.9586C143.628 36.995 143.628 37.0498 143.628 37.1045C143.628 37.1592 143.628 37.2139 143.646 37.2869L143.664 37.4146C143.39 37.4146 142.989 37.3964 142.442 37.3599C141.895 37.3234 141.493 37.3052 141.22 37.3052L141.183 38.4179V39.6037L143.628 39.5125C143.609 39.6219 143.609 39.7314 143.591 39.8043C143.573 39.8955 143.573 39.9503 143.573 40.005C143.573 40.0962 143.573 40.1692 143.591 40.2239C143.609 40.2786 143.609 40.3333 143.628 40.4063C143.427 40.4063 143.099 40.3881 142.679 40.3516C142.259 40.3151 141.931 40.2969 141.712 40.2969H141.183L141.165 41.665V43.0149C141.931 43.0149 142.752 42.9602 143.646 42.869C143.609 42.9967 143.609 43.1609 143.609 43.3251C143.609 43.3615 143.609 43.4163 143.609 43.471C143.609 43.5257 143.609 43.5804 143.628 43.6534L143.646 43.7811C143.427 43.7811 143.117 43.7629 142.679 43.7446C142.241 43.7264 141.931 43.7081 141.712 43.7081L140.453 43.7446L139.505 43.7811L139.541 43.1791L139.596 41.1725V39.6037V38.345C139.596 38.0713 139.596 37.8707 139.596 37.7247C139.541 37.0133 139.541 36.6667 139.541 36.6484Z" fill="#6C707C"/>
  <path fill-rule="evenodd" clip-rule="evenodd" d="M1.08383 24.5357C1.08383 23.7695 1.32097 23.1675 1.97769 23.1675C2.59792 23.1675 2.85331 23.7877 2.85331 24.3168C2.85331 25.0829 2.50671 25.6302 1.92296 25.6302C1.32097 25.6484 1.08383 25.0647 1.08383 24.5357ZM1.92296 25.9038L2.36077 26.1957C2.56144 26.3599 2.78034 26.5241 2.98101 26.6882C3.16343 26.5788 3.34585 26.5058 3.56475 26.4511C3.19991 26.2504 2.85331 26.0315 2.50671 25.8309C3.12694 25.6302 3.54651 25.0647 3.54651 24.3897C3.54651 23.5141 2.94452 22.9304 2.01417 22.9304C1.13855 22.9304 0.390625 23.4776 0.390625 24.408C0.390625 25.3748 1.01086 25.9038 1.92296 25.9038ZM4.07553 23.0216V24.7181C4.07553 24.8823 4.09378 25.0647 4.1485 25.2289C4.29444 25.7579 4.82346 25.9221 5.33424 25.9221C5.60787 25.9221 5.8815 25.8491 6.11865 25.6849C6.53822 25.393 6.53822 24.9735 6.53822 24.4809V23.0216C6.48349 23.0216 6.44701 23.0216 6.37404 23.0216C6.33756 23.0216 6.28283 23.0216 6.20986 23.0216V24.2803C6.20986 24.4809 6.20986 24.9552 6.13689 25.1377C5.99096 25.5025 5.79029 25.6484 5.40721 25.6484C5.24303 25.6484 5.07885 25.5755 4.95115 25.466C4.80522 25.3201 4.76873 25.1924 4.75049 24.9735C4.69576 24.7728 4.69577 24.4262 4.69577 24.2073V23.0216C4.60455 23.0216 4.4951 23.0398 4.40389 23.0398C4.2762 23.0398 4.16674 23.0216 4.07553 23.0216ZM7.2679 23.0216V25.8673C7.37736 25.8491 7.46857 25.8491 7.59626 25.8491C7.68747 25.8491 7.79693 25.8491 7.88814 25.8673V23.0216C7.79693 23.0216 7.68747 23.0398 7.59626 23.0398C7.46857 23.0398 7.37736 23.0216 7.2679 23.0216ZM11.9744 23.0216V25.8491C12.0291 25.8491 12.0838 25.8491 12.1385 25.8491C12.2115 25.8491 12.248 25.8491 12.3027 25.8491V23.8607L12.7588 24.3168C13.2148 24.7911 13.6526 25.3018 14.1452 25.8309L14.4918 25.8491V23.0033C14.4371 23.0033 14.3823 23.0033 14.3276 23.0033C14.2546 23.0033 14.2182 23.0033 14.1634 23.0033V24.9188C13.5614 24.262 12.9594 23.6236 12.3757 23.0033H11.9744V23.0216ZM16.4984 25.9038C17.4835 25.9038 18.122 25.2106 18.122 24.408C18.122 23.7695 17.7754 22.9486 16.5896 22.9486C15.5681 22.9486 14.9661 23.6053 14.9661 24.4262C14.9843 25.3748 15.5863 25.9038 16.4984 25.9038ZM15.6593 24.5357C15.6593 23.6053 16.0059 23.1675 16.5896 23.1675C17.2099 23.1675 17.447 23.7877 17.447 24.3168C17.447 25.01 17.1734 25.6302 16.5531 25.6302C15.8964 25.6484 15.6593 25.0647 15.6593 24.5357ZM18.6145 23.0216V25.8491C18.6692 25.8491 18.724 25.8491 18.7787 25.8491C18.8334 25.8491 18.8881 25.8491 18.9429 25.8491V23.8607L19.3807 24.3168C19.8367 24.7911 20.311 25.3018 20.7671 25.8309L21.1137 25.8491V23.0033C21.0589 23.0033 21.0225 23.0033 20.9495 23.0033C20.8948 23.0033 20.8583 23.0033 20.7853 23.0033V24.9188C20.2016 24.262 19.5996 23.6236 18.9976 23.0033H18.6145V23.0216ZM25.7289 25.8673V24.6086C26.4769 24.6086 27.0059 24.4445 27.0059 23.7148C27.0059 23.2587 26.6958 23.0216 26.1303 23.0216H25.1452V25.8673C25.2364 25.8491 25.3458 25.8491 25.4553 25.8491C25.5647 25.8491 25.6377 25.8309 25.7289 25.8673ZM25.7289 24.3715V23.2222H25.9843C26.2215 23.2222 26.3674 23.4594 26.3674 23.7695C26.3674 24.0249 26.2762 24.262 26.0026 24.335C25.9113 24.3532 25.8201 24.3715 25.7289 24.3715ZM27.4254 23.0216V25.8673C27.5349 25.8491 27.6261 25.8491 27.7173 25.8491C27.8268 25.8491 27.918 25.8491 28.0457 25.8673V24.5357H28.0639C28.1551 24.6998 28.2646 24.8823 28.3375 24.9917L28.8301 25.8673C28.9395 25.8491 29.0672 25.8491 29.1949 25.8491C29.3044 25.8491 29.4503 25.8491 29.5598 25.8673L29.3956 25.5937C29.1402 25.2289 28.8848 24.8275 28.6841 24.4445C29.049 24.3715 29.3044 24.0979 29.3044 23.7148C29.3044 23.4411 29.1949 23.2587 28.9578 23.1128C28.7754 23.0216 28.4652 23.0398 28.2828 23.0398L27.4254 23.0216ZM28.0457 24.335V23.2222C28.3011 23.2222 28.6112 23.204 28.6659 23.5506C28.6841 23.6418 28.6841 23.6965 28.6841 23.7695C28.6841 24.1708 28.4652 24.3715 28.0457 24.335ZM31.2928 25.9038C32.2778 25.9038 32.9163 25.2106 32.9163 24.408C32.8981 23.7695 32.5697 22.9486 31.384 22.9486C30.3442 22.9486 29.7604 23.6053 29.7604 24.4262C29.7787 25.3748 30.3807 25.9038 31.2928 25.9038ZM30.4536 24.5357C30.4536 23.6053 30.8002 23.1675 31.384 23.1675C31.986 23.1675 32.2414 23.7877 32.2414 24.3168C32.2414 25.01 31.9677 25.6302 31.311 25.6302C30.6908 25.6484 30.4536 25.0647 30.4536 24.5357ZM33.9744 25.8673V24.4627H34.4122C34.5764 24.4627 34.7405 24.4809 34.923 24.5174C34.9047 24.4445 34.9047 24.408 34.9047 24.335C34.9047 24.2803 34.9047 24.2256 34.923 24.1526C34.7405 24.1708 34.5764 24.1891 34.4122 24.1891H33.9744V23.3134C34.4122 23.3134 34.6858 23.3317 34.923 23.3682C34.923 23.3134 34.9047 23.2587 34.9047 23.1857C34.9047 23.131 34.923 23.0763 34.923 23.0216H33.3724V25.8673C33.4636 25.8491 33.5548 25.8491 33.6642 25.8491C33.7737 25.8309 33.8832 25.8309 33.9744 25.8673ZM35.4885 23.0216V25.8673C35.5797 25.8491 35.6891 25.8491 35.7803 25.8491C35.8898 25.8491 35.981 25.8491 36.1087 25.8673V23.0216C35.9992 23.0216 35.908 23.0398 35.7803 23.0398C35.6891 23.0398 35.5797 23.0216 35.4885 23.0216ZM39.0457 25.3748L38.9727 25.3566C38.7903 25.5207 38.4802 25.6484 38.2248 25.6484C37.6045 25.6484 37.2579 25.1559 37.2579 24.4445C37.2579 23.8425 37.5316 23.1675 38.2248 23.1675C38.4802 23.1675 38.7356 23.3317 38.8997 23.5688H38.9727C38.9909 23.4047 39.0274 23.277 39.0639 23.131C38.8085 23.0216 38.4802 22.9486 38.2065 22.9486C37.3309 22.9486 36.583 23.4411 36.583 24.5174C36.583 25.3566 37.2397 25.9038 38.1153 25.9038C38.389 25.9038 38.6991 25.8673 38.9545 25.7214L39.0457 25.3748ZM39.5929 23.0216V25.8673C39.6841 25.8491 39.8118 25.8491 39.903 25.8491C40.0125 25.8491 40.1037 25.8491 40.1949 25.8673V23.0216C40.1037 23.0216 40.0125 23.0398 39.903 23.0398C39.8118 23.0398 39.6841 23.0216 39.5929 23.0216ZM42.0556 25.8673V23.2952C42.311 23.2952 42.5664 23.3499 42.8035 23.3682C42.8035 23.2952 42.7853 23.2587 42.7853 23.1857C42.7853 23.131 42.8035 23.0763 42.8035 23.0216H40.6692C40.6875 23.0763 40.6875 23.131 40.6875 23.1857C40.6875 23.2587 40.6875 23.2952 40.6692 23.3682C40.9064 23.3499 41.1618 23.2952 41.4354 23.2952V25.8673C41.5448 25.8491 41.6361 25.8491 41.7637 25.8491C41.8367 25.8309 41.9644 25.8309 42.0556 25.8673ZM43.7521 25.612C43.8616 25.4295 43.7339 25.2106 43.515 25.2106C43.3691 25.2106 43.3143 25.2471 43.2596 25.393C43.2049 25.539 43.1684 25.6667 43.1501 25.7944L42.9677 26.5788L43.0589 26.597C43.2961 26.2687 43.5515 25.9221 43.7521 25.612ZM49.1518 23.0216H47.7472V25.8491H48.8964C49.7356 25.8491 50.3923 25.3018 50.3923 24.3532C50.3923 23.66 50.0274 23.0398 49.1518 23.0216ZM48.3492 25.5755V23.2405H48.7505C49.3342 23.2405 49.6991 23.5323 49.6991 24.335C49.6991 25.3018 49.2613 25.5755 48.6958 25.5755H48.3492ZM52.4719 23.0216H50.903V25.8491H52.4719C52.4719 25.7761 52.4536 25.7032 52.4536 25.6667C52.4536 25.5937 52.4719 25.5572 52.4719 25.4843C52.2165 25.539 51.9428 25.5572 51.5233 25.5572V24.4627H51.9429C52.1253 24.4627 52.3077 24.4809 52.4536 24.5174C52.4536 24.4445 52.4354 24.408 52.4354 24.335C52.4354 24.2803 52.4536 24.2256 52.4536 24.1526C52.3077 24.1708 52.1253 24.1891 51.9429 24.1891H51.5233V23.3134C51.9428 23.2952 52.2165 23.3317 52.4719 23.3682C52.4719 23.3134 52.4536 23.2587 52.4536 23.1857C52.4536 23.131 52.4719 23.0581 52.4719 23.0216ZM53.5846 25.8673V24.4627H54.0042C54.1866 24.4627 54.3508 24.4809 54.515 24.5174C54.515 24.4445 54.4967 24.408 54.4967 24.335C54.4967 24.2803 54.515 24.2256 54.515 24.1526C54.3508 24.1708 54.1866 24.1891 54.0224 24.1891H53.5846V23.3134C54.0042 23.3134 54.2778 23.3317 54.5332 23.3682C54.5332 23.3134 54.515 23.2587 54.515 23.1857C54.515 23.131 54.5332 23.0763 54.5332 23.0216H52.9644V25.8673C53.0739 25.8491 53.1651 25.8491 53.2563 25.8491C53.3657 25.8309 53.4752 25.8309 53.5846 25.8673ZM55.0622 23.0216V25.8673C55.1717 25.8491 55.2629 25.8491 55.3906 25.8491C55.4818 25.8491 55.5913 25.8491 55.7007 25.8673V23.0216C55.6095 23.0216 55.5001 23.0398 55.3906 23.0398C55.2629 23.0398 55.1717 23.0216 55.0622 23.0216ZM58.6195 25.3748L58.5647 25.3566C58.3823 25.5207 58.0722 25.6484 57.8168 25.6484C57.1966 25.6484 56.85 25.1559 56.85 24.4445C56.85 23.8425 57.1236 23.1675 57.7986 23.1675C58.0722 23.1675 58.3276 23.3317 58.4918 23.5688H58.5465C58.6012 23.4047 58.6195 23.277 58.6377 23.131C58.4006 23.0216 58.0904 22.9486 57.7986 22.9486C56.8865 22.9486 56.1568 23.4411 56.1568 24.5174C56.1568 25.3566 56.8317 25.9038 57.7074 25.9038C57.981 25.9038 58.2911 25.8673 58.51 25.7214L58.6195 25.3748ZM59.185 23.0216V25.8673C59.2944 25.8491 59.3856 25.8491 59.5133 25.8491C59.6045 25.8491 59.714 25.8491 59.8234 25.8673V23.0216C59.7322 23.0216 59.6228 23.0398 59.5133 23.0398C59.3856 23.0398 59.2944 23.0216 59.185 23.0216ZM61.6477 25.8673V23.2952C61.903 23.2952 62.1402 23.3499 62.3956 23.3682C62.3773 23.2952 62.3773 23.2587 62.3773 23.1857C62.3773 23.131 62.3773 23.0763 62.3956 23.0216H60.2613C60.2613 23.0763 60.2795 23.131 60.2795 23.1857C60.2795 23.2587 60.2613 23.2952 60.2613 23.3682C60.4619 23.3499 60.7173 23.2952 61.0274 23.2952V25.8673C61.1186 25.8491 61.2281 25.8491 61.3193 25.8491C61.447 25.8309 61.5382 25.8309 61.6477 25.8673Z" fill="#6C707C"/>
  <path d="M55.4091 20.5954C55.0625 20.5042 54.7342 20.3947 54.4423 20.2853C53.5484 19.9569 52.7275 19.6833 51.9066 19.7745C51.3229 19.811 50.9763 20.0663 50.5202 20.3582C50.4655 20.3765 50.502 20.5042 50.5567 20.4677C50.8851 20.4494 51.104 20.3947 51.3411 20.3765C52.7823 20.1393 54.0045 20.6501 55.3909 20.7231C55.4639 20.7595 55.4821 20.6136 55.4091 20.5954Z" fill="#6C707C"/>
  <path d="M57.5978 19.9751C56.9229 19.8839 56.1567 19.6285 55.354 19.3914C54.0771 18.99 52.7454 18.5522 51.6327 18.6434C50.8482 18.6434 50.4104 19.0265 49.8084 19.4826C49.7537 19.5373 49.8267 19.6285 49.8814 19.592C50.5016 19.3549 51.0672 19.1542 51.7239 19.1542C52.8549 19.136 54.223 19.4279 55.3905 19.7015C56.2479 19.8839 56.9776 20.0663 57.5613 20.0846C57.6526 20.1028 57.6708 19.9934 57.5978 19.9751Z" fill="#6C707C"/>
  <path d="M60.2613 1.25871L59.8052 1.36816C58.2364 1.71476 56.7223 1.60531 55.3359 1.22222C55.0622 1.13101 54.8069 1.05804 54.5332 0.966832C54.2778 0.875622 54.0225 0.747927 53.7671 0.638474C52.6725 0.145937 51.7057 0 50.9213 0C50.2099 0.0182421 49.6079 0.182421 49.17 0.437811C48.6958 0.693201 48.3674 1.05804 48.2215 1.3864C48.1485 1.55058 48.112 1.71476 48.112 1.87894V2.79104C45.923 7.09618 42.5117 10.3433 38.4437 12.8425C34.2845 15.3599 29.4321 17.0564 24.4155 18.2056C20.1468 19.1725 15.0573 19.7015 10.588 20.0116C6.10041 20.3035 2.26956 20.3764 0.390625 20.3947L0.408867 21.0514C2.28781 21.0332 6.17338 20.9784 10.6245 20.6866C12.3757 20.5771 14.2364 20.4129 16.0788 20.194V21.4162H16.7538V20.1211C19.2712 19.8292 21.7886 19.4461 24.1054 18.9353V21.4162H24.7803V18.7894C27.2977 18.2056 29.7787 17.4942 32.1502 16.6003V21.4345H32.8069V16.3267C34.9047 15.4876 36.9296 14.5207 38.7903 13.3897C39.2463 13.1161 39.7206 12.806 40.1767 12.4959V21.4162H40.8152V12.0398C43.7704 9.94195 46.2696 7.35157 48.0938 4.1592V20.1028C48.112 21.1609 49.1336 21.6352 50.1369 21.6352H62.3956V3.72139L60.2613 1.25871ZM48.9147 1.8607C48.9147 1.82421 48.9147 1.76949 48.9329 1.71476C49.0424 1.45937 49.2977 1.27695 49.5349 1.13101C49.8815 0.94859 50.374 0.802653 50.9395 0.802653C51.6327 0.784411 52.4719 0.94859 53.4387 1.3864C53.7123 1.49585 53.9677 1.62355 54.2778 1.71476C54.5515 1.80597 54.8251 1.89718 55.1352 1.98839C56.4669 2.35323 57.9627 2.49917 59.4768 2.24378V18.3516C59.2762 18.4063 59.0938 18.4245 58.8749 18.4428C58.5647 18.461 58.2911 18.4975 57.9992 18.4975C56.4669 18.5158 55.0623 18.1509 53.7671 17.5854C52.6725 17.0746 51.7057 16.9104 50.9213 16.9469C50.2099 16.9469 49.6079 17.1293 49.17 17.3665C49.0788 17.4395 48.9876 17.476 48.9147 17.5307V1.8607ZM50.1369 21.0696C49.5896 21.0514 48.8964 20.6683 48.9147 20.1028V18.8076C48.9147 18.7347 48.9147 18.6982 48.9329 18.6434C49.0241 18.461 49.2248 18.2421 49.5349 18.0779C49.8815 17.8773 50.374 17.7496 50.9395 17.7313C51.6327 17.7131 52.4719 17.8773 53.4387 18.3151C54.8251 18.9353 56.3574 19.3366 57.9992 19.3002C58.3276 19.3002 58.6377 19.2819 58.9661 19.2272C59.2944 19.209 59.6045 19.136 59.9147 19.063L61.6477 21.0514L50.1369 21.0696ZM61.8118 20.4312L60.2795 18.6434V2.13433L61.8118 3.92206V20.4312Z" fill="#6C707C"/>
  <path d="M1.75882 34.8972L2.67093 28.2206C2.79862 28.2206 2.9628 28.2388 3.16347 28.2753C3.38237 28.3118 3.51007 28.3301 3.54655 28.3301C3.74721 28.3301 3.92964 28.3118 4.09381 28.2936C4.25799 28.2753 4.36745 28.2388 4.45866 28.2206C5.1701 29.7712 5.71736 30.9569 6.10045 31.7596C6.24638 32.0697 6.83013 33.2372 7.83345 35.2438C8.4172 36.4113 9.00095 37.5788 9.58469 38.7281L10.8981 36.1742C12.2845 33.4926 13.5615 30.8292 14.7655 28.2024H15.0026C15.1303 28.2571 15.258 28.2936 15.3674 28.2936C15.4769 28.2936 15.6046 28.2936 15.7323 28.2936C16.0971 28.2936 16.389 28.2571 16.6444 28.2024C16.9363 30.9022 17.1917 33.0913 17.3923 34.7878C17.593 36.4843 17.7572 37.7612 17.8666 38.6186L18.3956 42.4859C18.4139 42.5407 18.4321 42.6866 18.4868 42.9055C18.5233 43.1244 18.5598 43.3068 18.5598 43.4163C18.3044 43.4163 17.9578 43.3981 17.52 43.3616C17.0822 43.3251 16.8268 43.3068 16.7356 43.3068C16.4802 43.3068 16.1336 43.3251 15.714 43.3616C15.2762 43.3981 15.0208 43.4163 14.9296 43.4163C14.9296 41.9752 14.8202 40.3334 14.6013 38.4909C14.3824 36.6485 14.1817 34.8607 13.981 33.146C13.4155 34.2952 12.85 35.4262 12.3028 36.5573C11.7373 37.6883 11.19 38.8193 10.6427 39.9503C10.2779 40.7165 9.73063 41.8657 9.03743 43.3981C8.80028 43.3981 8.61786 43.3981 8.50841 43.3981C8.45368 43.3981 8.34423 43.3981 8.19829 43.3981L6.48353 39.8408C5.91803 38.6733 5.40725 37.5971 4.93295 36.612C4.40393 35.5357 3.85667 34.4594 3.32765 33.3831L2.85335 37.3234L2.63444 39.8408L2.48851 42.0299L2.3973 43.4163C2.06894 43.3616 1.83179 43.3251 1.7041 43.3068C1.55816 43.3068 1.44871 43.2886 1.3575 43.2886C1.04738 43.2886 0.70078 43.3251 0.335938 43.3981C0.335938 43.2704 0.335938 43.1609 0.35418 43.0697C0.372422 42.9785 0.408906 42.8143 0.481874 42.5772C0.554843 42.2123 0.664296 41.665 0.791991 40.8989C0.883201 40.3334 0.992654 39.7131 1.10211 39.0564C1.21156 38.3815 1.33925 37.6335 1.44871 36.8126C1.61289 36.0282 1.68585 35.3715 1.75882 34.8972Z" fill="#6C707C"/>
  <path d="M19.4722 28.2024C19.764 28.2024 20.1654 28.2206 20.6761 28.2753C21.1869 28.3118 21.4606 28.3483 21.5518 28.3483C22.2267 28.3483 22.8834 28.3118 23.5402 28.2206L24.5617 30.1543L25.6562 32.2521C25.7657 32.4528 25.8934 32.6899 26.0576 32.9636C26.4407 33.6203 26.6778 34.0216 26.7508 34.204C26.8237 34.3682 27.0062 34.6966 27.2798 35.1526C27.5534 35.6269 27.7358 35.9005 27.8271 35.9917L28.1919 35.5539L28.575 34.8607C28.6844 34.6601 28.9581 34.0398 29.4141 33.0183C29.7607 32.2156 30.0526 31.5954 30.2533 31.1758L31.0742 29.3516L31.5667 28.2388L31.8403 28.2936C32.0957 28.3483 32.3329 28.3665 32.57 28.3665C32.8984 28.3665 33.2632 28.3301 33.6645 28.2388C33.3909 28.7679 32.8801 29.68 32.1687 30.9752C31.7126 31.8143 31.2201 32.7264 30.7276 33.675C30.1073 34.8607 29.5965 35.8823 29.1952 36.7032C29.0493 36.9951 28.8304 37.4511 28.5567 38.0714C28.2284 38.7463 28.046 39.1476 28.0095 39.2753C27.7541 39.8591 27.4805 40.5523 27.1703 41.3549C26.8602 42.1576 26.6231 42.869 26.4407 43.4893C26.0758 43.4893 25.7839 43.4893 25.5833 43.471C25.3826 43.4528 25.182 43.4345 24.9995 43.4163C24.8354 43.4163 24.5435 43.4345 24.1057 43.4893C24.4888 42.8508 24.8536 42.1941 25.2002 41.5374C25.5468 40.8806 25.8569 40.2422 26.1488 39.6037C26.0941 39.403 25.9299 39.0747 25.6745 38.6004C25.4191 38.1261 25.1455 37.6335 24.8901 37.1592C24.3063 36.1194 23.6861 35.0432 23.0294 33.9121C22.3544 32.7994 21.8072 31.8508 21.3329 31.1211C20.6761 30.1178 20.0742 29.1692 19.4722 28.2024Z" fill="#6C707C"/>
  <path d="M49.1335 43.4528C48.9693 43.4163 48.7139 43.3981 48.3308 43.3798C47.966 43.3616 47.6012 43.3434 47.2181 43.3434L45.6128 43.4346L45.4668 43.4528C45.4668 42.9785 45.5033 41.7928 45.5763 39.8956C45.6128 39.1477 45.6128 38.4362 45.6128 37.7613V35.7364L45.5398 32.7629C45.102 33.292 44.6824 33.8027 44.2993 34.277C43.8068 34.879 43.3325 35.5175 42.8582 36.1377C42.2015 36.9951 41.3259 38.1808 40.2313 39.6949C38.6443 41.884 37.7322 43.1245 37.495 43.4528C37.1302 43.3798 36.8018 43.3434 36.51 43.3434C36.3093 43.3434 36.1086 43.3616 35.908 43.4163L35.6708 43.4528V38.7646V36.5026C35.6708 35.8276 35.6526 35.0797 35.6161 34.2953C35.5796 33.5109 35.5614 32.8541 35.5431 32.3069C35.5431 31.9785 35.5249 31.6319 35.5066 31.2671C35.4337 30.3185 35.3972 29.7165 35.3972 29.4793L35.3242 28.2571L37.1484 28.3483L38.9726 28.2389L38.9544 28.6585C38.9544 28.9503 38.9362 29.4064 38.8814 29.9901C38.8267 30.5921 38.8085 31.0299 38.8085 31.34V33.8027V38.6916C39.3375 38.0531 39.9942 37.2687 40.7421 36.3201C41.107 35.8641 41.4718 35.408 41.8367 34.9337C42.6758 33.8575 43.4967 32.7812 44.3176 31.7049C45.1385 30.6104 45.9776 29.4611 46.835 28.2206C47.1998 28.2936 47.5464 28.3301 47.8383 28.3301C48.1302 28.3301 48.4768 28.2936 48.8416 28.2206L48.7687 29.2604V32.8541C48.7687 34.9702 48.7869 36.8309 48.8416 38.4362C48.8781 40.0233 48.9876 41.7016 49.1335 43.4528Z" fill="#6C707C"/>
  <path d="M58.948 35.2074V35.408C59.4222 35.408 59.9148 35.4992 60.4073 35.6817C60.8999 35.8641 61.3377 36.1012 61.739 36.4113C62.5599 37.1228 62.9612 38.0166 62.9612 39.0747C62.9612 40.2057 62.5599 41.1908 61.7755 42.0482C61.4289 42.3948 61.0276 42.6866 60.535 42.8873C60.1702 43.0515 59.6776 43.1974 59.0756 43.3069C58.9115 43.3433 58.6926 43.3616 58.4189 43.3798C58.1453 43.3981 57.8717 43.4163 57.5798 43.4163L54.3145 43.3433L52.3625 43.4346C52.4173 43.015 52.472 42.5225 52.4902 41.9752C52.5267 41.4097 52.5267 40.8807 52.5267 40.3699C52.5267 39.6584 52.545 38.4909 52.5632 36.8492C52.5997 35.2256 52.5997 34.35 52.5997 34.2405C52.5997 33.5838 52.5632 32.5805 52.5085 31.2306C52.4538 29.8807 52.4173 28.8591 52.4173 28.1841L54.9347 28.2571H58.1453C59.4223 28.2571 60.4438 28.4943 61.1917 28.9868C62.1038 29.5705 62.5781 30.4644 62.5781 31.6684C62.5781 32.6535 62.2133 33.4744 61.4654 34.1311C60.8269 34.6966 59.9878 35.0614 58.948 35.2074ZM55.7373 34.8243H56.1022C56.613 34.8243 57.0325 34.7878 57.3609 34.7331C57.6892 34.6783 57.9994 34.5142 58.3277 34.2405C58.6561 33.9669 58.8932 33.6385 59.0574 33.2372C59.2216 32.8359 59.2946 32.3981 59.2946 31.942C59.2946 31.6319 59.2398 31.2671 59.1121 30.8657C58.9844 30.4644 58.8203 30.1725 58.6014 30.0084C58.1088 29.607 57.5433 29.4064 56.9048 29.4064C56.7224 29.4064 56.5765 29.4064 56.467 29.4064C56.3576 29.4064 56.1569 29.4429 55.8468 29.4976C55.8468 29.8442 55.8286 30.4097 55.8103 31.2123C55.7738 32.015 55.7738 32.4346 55.7738 32.5075L55.7373 34.8243ZM55.7373 42.1759H56.8319C57.2514 42.1759 57.6345 42.1029 57.9811 41.9387C58.3277 41.7745 58.6196 41.5374 58.8385 41.1908C59.2398 40.5888 59.4405 39.9321 59.4405 39.2389C59.4405 38.1626 59.1851 37.3599 58.6926 36.8492C58.2 36.3384 57.4521 36.083 56.4853 36.083C56.3576 36.083 56.2481 36.083 56.1569 36.083C55.9745 36.083 55.8468 36.083 55.7556 36.083L55.7373 39.3301V42.1759Z" fill="#6C707C"/>
</svg>